<svg width="15" height="16" viewBox="0 0 15 16" fill="none" xmlns="http://www.w3.org/2000/svg">
<path d="M5.36111 4.86791H13.1184C13.1869 4.86791 13.2527 4.8416 13.3012 4.79478C13.3497 4.74795 13.3769 4.68444 13.3769 4.61822C13.3769 4.552 13.3497 4.4885 13.3012 4.44167C13.2527 4.39485 13.1869 4.36854 13.1184 4.36854H5.36111C5.29254 4.36854 5.22677 4.39485 5.17827 4.44167C5.12978 4.4885 5.10254 4.552 5.10254 4.61822C5.10254 4.68444 5.12978 4.74795 5.17827 4.79478C5.22677 4.8416 5.29254 4.86791 5.36111 4.86791ZM5.36111 5.86663H13.1184C13.1869 5.86663 13.2527 5.84032 13.3012 5.7935C13.3497 5.74668 13.3769 5.68317 13.3769 5.61695C13.3769 5.55073 13.3497 5.48722 13.3012 5.4404C13.2527 5.39357 13.1869 5.36727 13.1184 5.36727H5.36111C5.29254 5.36727 5.22677 5.39357 5.17827 5.4404C5.12978 5.48722 5.10254 5.55073 5.10254 5.61695C5.10254 5.68317 5.12978 5.74668 5.17827 5.7935C5.22677 5.84032 5.29254 5.86663 5.36111 5.86663ZM5.36111 2.87046H13.1184C13.1869 2.87046 13.2527 2.84415 13.3012 2.79733C13.3497 2.7505 13.3769 2.68699 13.3769 2.62077C13.3769 2.55456 13.3497 2.49105 13.3012 2.44422C13.2527 2.3974 13.1869 2.37109 13.1184 2.37109H5.36111C5.29254 2.37109 5.22677 2.3974 5.17827 2.44422C5.12978 2.49105 5.10254 2.55456 5.10254 2.62077C5.10254 2.68699 5.12978 2.7505 5.17827 2.79733C5.22677 2.84415 5.29254 2.87046 5.36111 2.87046ZM5.36111 3.86918H13.1184C13.1869 3.86918 13.2527 3.84287 13.3012 3.79605C13.3497 3.74923 13.3769 3.68572 13.3769 3.6195C13.3769 3.55328 13.3497 3.48977 13.3012 3.44295C13.2527 3.39612 13.1869 3.36982 13.1184 3.36982H5.36111C5.29254 3.36982 5.22677 3.39612 5.17827 3.44295C5.12978 3.48977 5.10254 3.55328 5.10254 3.6195C5.10254 3.68572 5.12978 3.74923 5.17827 3.79605C5.22677 3.84287 5.29254 3.86918 5.36111 3.86918ZM5.36111 6.86535H9.6276C9.69617 6.86535 9.76194 6.83905 9.81044 6.79222C9.85893 6.7454 9.88617 6.68189 9.88617 6.61567C9.88617 6.54945 9.85893 6.48595 9.81044 6.43912C9.76194 6.3923 9.69617 6.36599 9.6276 6.36599H5.36111C5.29254 6.36599 5.22677 6.3923 5.17827 6.43912C5.12978 6.48595 5.10254 6.54945 5.10254 6.61567C5.10254 6.68189 5.12978 6.7454 5.17827 6.79222C5.22677 6.83905 5.29254 6.86535 5.36111 6.86535ZM5.36111 13.0241C5.29254 13.0241 5.22677 13.0504 5.17827 13.0972C5.12978 13.1441 5.10254 13.2076 5.10254 13.2738C5.10254 13.34 5.12978 13.4035 5.17827 13.4503C5.22677 13.4972 5.29254 13.5235 5.36111 13.5235H7.70988C7.77846 13.5235 7.84422 13.4972 7.89272 13.4503C7.94121 13.4035 7.96845 13.34 7.96845 13.2738C7.96845 13.2076 7.94121 13.1441 7.89272 13.0972C7.84422 13.0504 7.77846 13.0241 7.70988 13.0241H5.36111Z" fill="#02101B"/>
<path d="M13.8951 4.65788e-06H4.58614C4.38149 -0.000693048 4.1849 0.0770168 4.0395 0.216089C3.8941 0.355161 3.81177 0.544241 3.81055 0.741855V7.87761C3.89563 7.86941 3.98184 7.86496 4.06912 7.86496C4.1564 7.86496 4.24261 7.86941 4.3277 7.87761V0.741855C4.32875 0.67663 4.35654 0.614471 4.405 0.569012C4.45345 0.523553 4.51859 0.498506 4.58614 0.499367H13.8951C13.9626 0.498506 14.0278 0.523553 14.0762 0.569012C14.1247 0.614471 14.1525 0.67663 14.1535 0.741855V12.2344H11.7873C11.5887 12.2379 11.3996 12.3174 11.2615 12.4554C11.1234 12.5933 11.0475 12.7785 11.0506 12.9704V15.4802H4.58614C4.51859 15.4811 4.45345 15.456 4.405 15.4106C4.35654 15.3651 4.32875 15.303 4.3277 15.2377V12.8459C4.24261 12.8541 4.1564 12.8586 4.06912 12.8586C3.98184 12.8586 3.89563 12.8541 3.81055 12.8459V15.2377C3.81177 15.4354 3.8941 15.6244 4.0395 15.7635C4.1849 15.9026 4.38149 15.9803 4.58614 15.9796H11.1896C11.2239 15.9796 11.2578 15.9731 11.2894 15.9603C11.321 15.9476 11.3497 15.9289 11.3737 15.9053L14.5962 12.7529C14.6439 12.7061 14.6707 12.6431 14.6707 12.5774V0.741855C14.6695 0.544241 14.5871 0.355161 14.4417 0.216089C14.2963 0.0770168 14.0997 -0.000693048 13.8951 4.65788e-06ZM11.5678 15.0046V12.9704C11.5647 12.9109 11.586 12.8527 11.6271 12.8084C11.6682 12.7641 11.7258 12.7373 11.7873 12.7337H13.8891L11.5678 15.0046Z" fill="#02101B"/>
<path d="M6 10C6 9.40666 5.82405 8.82664 5.49441 8.33329C5.16476 7.83994 4.69623 7.45543 4.14805 7.22836C3.59987 7.0013 2.99667 6.94189 2.41473 7.05765C1.83279 7.1734 1.29824 7.45912 0.878681 7.87868C0.459123 8.29824 0.173401 8.83279 0.0576455 9.41473C-0.0581101 9.99667 0.00129984 10.5999 0.228363 11.1481C0.455426 11.6962 0.839943 12.1648 1.33329 12.4944C1.82664 12.8241 2.40666 13 3 13C3.79537 12.9991 4.5579 12.6827 5.12032 12.1203C5.68273 11.5579 5.99909 10.7954 6 10ZM0.750001 10C0.750001 9.55499 0.881961 9.11998 1.12919 8.74997C1.37643 8.37996 1.72783 8.09157 2.13896 7.92127C2.5501 7.75098 3.0025 7.70642 3.43895 7.79323C3.87541 7.88005 4.27632 8.09434 4.59099 8.40901C4.90566 8.72368 5.11995 9.12459 5.20677 9.56105C5.29358 9.9975 5.24903 10.4499 5.07873 10.861C4.90843 11.2722 4.62004 11.6236 4.25003 11.8708C3.88002 12.118 3.44501 12.25 3 12.25C2.40346 12.2493 1.83155 12.0121 1.40973 11.5903C0.987914 11.1685 0.750652 10.5965 0.750001 10Z" fill="#02101B"/>
<path d="M4 9L2.66667 11L2 10.0667" stroke="#02101B" stroke-width="0.7" stroke-linecap="round" stroke-linejoin="round"/>
</svg>
