<svg width="44" height="44" viewBox="0 0 44 44" fill="none" xmlns="http://www.w3.org/2000/svg">
<rect x="0.5" y="0.5" width="43" height="43" rx="4.5" fill="white" stroke="#435BAA"/>
<g clip-path="url(#clip0_2806_5110)">
<path d="M32.1434 15.1167L27.4737 18.2958V17.3333C27.4737 16.05 26.4789 15 25.2632 15H14.2105C12.9947 15 12 16.05 12 17.3333V26.6667C12 27.95 12.9947 29 14.2105 29H25.2632C26.4789 29 27.4737 27.95 27.4737 26.6667V25.7042L32.1434 28.8833C32.6684 29.175 33 28.6792 33 28.3875V15.5833C33 15.2917 32.6961 14.7667 32.1434 15.1167ZM26.3684 26.6667C26.3684 27.3083 25.8711 27.8333 25.2632 27.8333H14.2105C13.6026 27.8333 13.1053 27.3083 13.1053 26.6667V17.3333C13.1053 16.6917 13.6026 16.1667 14.2105 16.1667H25.2632C25.8711 16.1667 26.3684 16.6917 26.3684 17.3333V26.6667ZM31.8947 27.3375L27.4737 24.3333V19.6667L31.8947 16.6625V27.3375Z" fill="#435BAA"/>
<path d="M303.76 -146V258.16H-124.4V-146H303.76ZM305.68 -147.92H-126.32V260.08H305.68V-147.92Z" fill="#0000FF"/>
</g>
<defs>
<clipPath id="clip0_2806_5110">
<rect width="24" height="24" fill="white" transform="translate(10 10)"/>
</clipPath>
</defs>
</svg>
