<svg width="20" height="20" viewBox="0 0 20 20" fill="none" xmlns="http://www.w3.org/2000/svg">
<g clip-path="url(#clip0_4057_69)">
<path d="M9.99999 0C4.47368 0 0 4.47368 0 10C0 15.5263 4.47368 20 9.99999 20C15.5263 20 20 15.5263 20 10C20 4.47368 15.5263 0 9.99999 0ZM9.99999 18.9474C5.05262 18.9474 1.05263 14.9474 1.05263 10C1.05263 5.05262 5.05262 1.05263 9.99999 1.05263C14.9474 1.05263 18.9474 5.05262 18.9474 10C18.9474 14.9474 14.9474 18.9474 9.99999 18.9474ZM15.1316 10C15.1316 10.2895 14.8947 10.5263 14.6053 10.5263H5.39473C5.10526 10.5263 4.86841 10.2895 4.86841 10C4.86841 9.71051 5.10526 9.47366 5.39473 9.47366H14.6053C14.8947 9.47366 15.1316 9.71051 15.1316 10ZM15.1316 13.1579C15.1316 13.4474 14.8947 13.6842 14.6053 13.6842H5.39473C5.10526 13.6842 4.86841 13.4474 4.86841 13.1579C4.86841 12.8684 5.10526 12.6316 5.39473 12.6316H14.6053C14.8947 12.6316 15.1316 12.8684 15.1316 13.1579ZM15.1316 6.84209C15.1316 7.13156 14.8947 7.36841 14.6053 7.36841H5.39473C5.10526 7.36841 4.86841 7.13156 4.86841 6.84209C4.86841 6.55262 5.10526 6.31578 5.39473 6.31578H14.6053C14.8947 6.31578 15.1316 6.55262 15.1316 6.84209Z" fill="#435BAA"/>
</g>
<defs>
<clipPath id="clip0_4057_69">
<rect width="20" height="20" fill="white"/>
</clipPath>
</defs>
</svg>
