<svg width="18" height="18" viewBox="0 0 18 18" fill="none" xmlns="http://www.w3.org/2000/svg">
<path fill-rule="evenodd" clip-rule="evenodd" d="M2.12067 0.573942C2.31751 0.377391 2.55388 0.22492 2.81411 0.12663C3.07434 0.028341 3.35249 -0.0135214 3.63012 0.00381737C3.90776 0.0211561 4.17853 0.0973 4.42451 0.227203C4.67049 0.357106 4.88605 0.537802 5.05692 0.757317L7.07629 3.35157C7.44642 3.82744 7.57692 4.44732 7.43067 5.03232L6.81529 7.49607C6.78347 7.62367 6.78519 7.75734 6.82028 7.88409C6.85537 8.01084 6.92263 8.12636 7.01554 8.21944L9.77967 10.9836C9.87286 11.0767 9.98857 11.144 10.1155 11.1791C10.2425 11.2142 10.3764 11.2158 10.5042 11.1838L12.9668 10.5684C13.2555 10.4963 13.5568 10.4907 13.848 10.552C14.1392 10.6134 14.4126 10.7402 14.6475 10.9228L17.2418 12.9411C18.1744 13.6667 18.2599 15.0448 17.4252 15.8784L16.2619 17.0417C15.4294 17.8742 14.1852 18.2398 13.0253 17.8314C10.0566 16.7869 7.36122 15.0874 5.13904 12.8589C2.91074 10.6371 1.21123 7.94208 0.166541 4.97382C-0.240708 3.81507 0.124917 2.56969 0.957416 1.73719L2.12067 0.573942ZM14.0625 1.12407C14.2117 1.12407 14.3548 1.18333 14.4603 1.28882C14.5658 1.39431 14.625 1.53738 14.625 1.68657V3.37407H16.3125C16.4617 3.37407 16.6048 3.43333 16.7103 3.53882C16.8158 3.64431 16.875 3.78738 16.875 3.93657C16.875 4.08575 16.8158 4.22882 16.7103 4.33431C16.6048 4.4398 16.4617 4.49907 16.3125 4.49907H14.625V6.18657C14.625 6.33575 14.5658 6.47882 14.4603 6.58431C14.3548 6.6898 14.2117 6.74907 14.0625 6.74907C13.9134 6.74907 13.7703 6.6898 13.6648 6.58431C13.5593 6.47882 13.5 6.33575 13.5 6.18657V4.49907H11.8125C11.6634 4.49907 11.5203 4.4398 11.4148 4.33431C11.3093 4.22882 11.25 4.08575 11.25 3.93657C11.25 3.78738 11.3093 3.64431 11.4148 3.53882C11.5203 3.43333 11.6634 3.37407 11.8125 3.37407H13.5V1.68657C13.5 1.53738 13.5593 1.39431 13.6648 1.28882C13.7703 1.18333 13.9134 1.12407 14.0625 1.12407Z" fill="#33C046"/>
</svg>
