<svg width="16" height="14" viewBox="0 0 16 14" fill="none" xmlns="http://www.w3.org/2000/svg">
<path d="M10.6719 8.54844H12.4649M14.3124 13.4563H1.44165C1.19907 13.4563 1.0022 13.2576 1.0022 13.0168V3.02539C1.0022 2.78281 1.20083 2.58594 1.44165 2.58594H14.3141C14.5567 2.58594 14.7536 2.78457 14.7536 3.02539V13.0168C14.7518 13.2576 14.5549 13.4563 14.3124 13.4563V13.4563ZM6.98052 5.98379H8.77349H6.98052ZM3.28911 5.98379H5.08208H3.28911ZM10.6719 5.98379H12.4649H10.6719ZM6.98052 11.1113H8.77349H6.98052ZM3.28911 11.1113H5.08208H3.28911ZM4.36138 4.02559V0.617188V4.02559ZM11.3926 4.02559V0.617188V4.02559ZM6.98052 8.54844H8.77349H6.98052ZM3.28911 8.54844H5.08208H3.28911Z" stroke="#435BAA" stroke-miterlimit="10"/>
</svg>
