<svg width="13" height="12" viewBox="0 0 13 12" fill="none" xmlns="http://www.w3.org/2000/svg">
<path d="M8.72461 7.10937H10.2187M11.7583 11.1992H1.03271C0.830566 11.1992 0.666504 11.0337 0.666504 10.833V2.50684C0.666504 2.30469 0.832031 2.14062 1.03271 2.14062H11.7598C11.9619 2.14062 12.126 2.30615 12.126 2.50684V10.833C12.1245 11.0337 11.9604 11.1992 11.7583 11.1992V11.1992ZM5.64844 4.97217H7.14258H5.64844ZM2.57227 4.97217H4.06641H2.57227ZM8.72461 4.97217H10.2187H8.72461ZM5.64844 9.24512H7.14258H5.64844ZM2.57227 9.24512H4.06641H2.57227ZM3.46582 3.34033V0.5V3.34033ZM9.32519 3.34033V0.5V3.34033ZM5.64844 7.10937H7.14258H5.64844ZM2.57227 7.10937H4.06641H2.57227Z" stroke="#02101B" stroke-miterlimit="10"/>
</svg>
