<svg width="28" height="28" viewBox="0 0 28 28" fill="none" xmlns="http://www.w3.org/2000/svg">
<circle cx="14" cy="14" r="14" fill="#A7B9F5" fill-opacity="0.06"/>
<path d="M16.6719 15.547H18.4648M20.3123 20.4548H7.44159C7.19901 20.4548 7.00214 20.2562 7.00214 20.0153V10.0239C7.00214 9.78135 7.20077 9.58447 7.44159 9.58447H20.3141C20.5566 9.58447 20.7535 9.78311 20.7535 10.0239V20.0153C20.7517 20.2562 20.5549 20.4548 20.3123 20.4548V20.4548ZM12.9805 12.9823H14.7734H12.9805ZM9.28905 12.9823H11.082H9.28905ZM16.6719 12.9823H18.4648H16.6719ZM12.9805 18.1099H14.7734H12.9805ZM9.28905 18.1099H11.082H9.28905ZM10.3613 11.0241V7.61572V11.0241ZM17.3926 11.0241V7.61572V11.0241ZM12.9805 15.547H14.7734H12.9805ZM9.28905 15.547H11.082H9.28905Z" stroke="white" stroke-miterlimit="10"/>
</svg>
