<svg width="32" height="32" viewBox="0 0 32 32" fill="none" xmlns="http://www.w3.org/2000/svg">
<circle cx="16" cy="16" r="15.65" stroke="#435BAA" stroke-width="0.7"/>
<path d="M21.8693 21.5979L20.4959 19.282C20.4531 19.2095 20.374 19.0754 20.2159 19.0123C20.005 18.9304 19.8112 19.0391 19.7282 19.0854L18.3516 19.8509C18.1262 19.975 17.8758 20.0904 17.7216 20.0059C17.634 19.9582 17.5667 19.8422 17.4877 19.6953L15.9674 16.8688L14.5361 14.0071C14.4643 13.8636 14.4056 13.7368 14.4161 13.6355C14.4343 13.4574 14.6692 13.3125 14.8962 13.1944L16.2936 12.4668C16.3783 12.4228 16.576 12.3195 16.6281 12.0981C16.6666 11.9338 16.6023 11.7898 16.5678 11.712L15.4617 9.25088C15.3368 8.97346 15.1658 8.59376 14.8103 8.39717C14.3849 8.16203 13.8801 8.29755 13.5789 8.37974C12.9219 8.55787 12.3401 8.74002 11.8731 9.1657C11.0787 9.89124 10.9159 11.0616 10.8256 12.1018C10.7406 13.0803 10.8658 14.2389 11.1976 15.5455C11.4777 16.6501 11.906 17.7302 12.4718 18.758C12.9864 19.8107 13.6204 20.7787 14.3581 21.6368C15.2445 22.6666 16.0899 23.4032 16.943 23.8897C17.6741 24.3069 18.5031 24.7323 19.3473 24.7323C19.5364 24.7323 19.7262 24.7115 19.916 24.6639C20.525 24.5109 21.0001 24.1245 21.5147 23.6723C21.7506 23.4643 22.1461 23.1168 22.1948 22.6271C22.235 22.2158 22.0235 21.8589 21.8693 21.5979ZM21.1615 23.2563C20.7009 23.6615 20.2798 24.0064 19.7869 24.1298C18.9407 24.3425 18.0109 23.8688 17.2066 23.4106C16.4191 22.9611 15.5974 22.2426 14.7641 21.2745C14.0942 20.4956 13.513 19.6208 13.0336 18.6708C13.0274 18.6474 13.0183 18.6248 13.0066 18.6037C12.9872 18.5696 12.9681 18.5354 12.9492 18.5011C12.9313 18.4645 12.9136 18.4278 12.8962 18.391C12.8856 18.369 12.8722 18.3484 12.8563 18.33C12.3561 17.3914 11.9742 16.4099 11.7202 15.4079C11.4039 14.1621 11.2836 13.0662 11.3634 12.1501C11.4444 11.2146 11.5854 10.1666 12.2336 9.57491C12.6112 9.23039 13.1291 9.0704 13.7176 8.91106C14.0204 8.82887 14.3348 8.76011 14.5526 8.88019C14.7351 8.98115 14.8501 9.21127 14.9707 9.47964L16.0817 11.9593C16.0725 11.9643 16.0613 11.9707 16.0478 11.9777L14.6504 12.705C14.4168 12.8267 13.9304 13.08 13.879 13.5781C13.851 13.8495 13.969 14.085 14.055 14.2567L15.4992 17.1436L17.0142 19.9596C17.1055 20.1287 17.23 20.3608 17.4659 20.4903C17.8956 20.7264 18.3787 20.4608 18.6093 20.334L19.9866 19.5685C20.0347 19.5416 20.0558 19.5336 20.0327 19.5651L21.4067 21.8824C21.5563 22.1346 21.6782 22.3607 21.6571 22.572C21.6327 22.8229 21.3988 23.0477 21.1615 23.2563Z" fill="#435BAA"/>
</svg>
