<svg width="17" height="17" viewBox="0 0 17 17" fill="none" xmlns="http://www.w3.org/2000/svg">
<path d="M14.3424 9.22372C14.1901 9.19503 14.0386 9.16185 13.8878 9.12571C13.571 9.04796 13.259 8.95154 12.9536 8.83694C12.2194 8.55939 11.3934 8.8728 11.028 9.56753L10.4482 10.6811C9.5913 10.1947 8.8043 9.59434 8.10863 8.8965C7.41291 8.19824 6.81464 7.40926 6.33003 6.55092L7.43685 5.97489C8.13158 5.60946 8.44509 4.78363 8.16786 4.04927C8.05293 3.7434 7.95638 3.43097 7.87872 3.1136C7.84191 2.96304 7.80935 2.81126 7.78108 2.65821C7.57176 1.56326 6.6113 0.773346 5.49657 0.779331H3.12196C2.43816 0.779284 1.78843 1.07781 1.34298 1.59663C0.901584 2.10791 0.705271 2.78638 0.805406 3.45439C1.83353 10.0186 6.98046 15.1691 13.544 16.2017C13.6583 16.219 13.7737 16.2279 13.8893 16.228C14.4448 16.2274 14.9818 16.0276 15.4025 15.6648C15.9218 15.2192 16.2206 14.569 16.2206 13.8847V11.5082C16.2269 10.3936 15.4373 9.43304 14.3424 9.22372ZM15.4485 13.8847C15.4483 14.3439 15.2475 14.7802 14.8989 15.079C14.5578 15.3731 14.1057 15.5044 13.6601 15.4386C7.43039 14.4586 2.54508 9.57017 1.56917 3.33979C1.5023 2.89401 1.63354 2.44121 1.92844 2.10027C2.22705 1.7518 2.66308 1.5513 3.12196 1.55139H5.49657C6.23903 1.5454 6.88019 2.0696 7.02188 2.79845C7.05242 2.96507 7.08861 3.1317 7.12857 3.29682C7.21382 3.64406 7.31956 3.98594 7.44524 4.3207C7.58552 4.68976 7.42884 5.10553 7.07994 5.2903L5.62554 6.04727C5.43658 6.14562 5.36302 6.37845 5.46118 6.56751C6.01068 7.62692 6.71917 8.59595 7.56205 9.44087C8.40451 10.2866 9.3718 10.9981 10.4301 11.5505C10.5214 11.5969 10.627 11.6061 10.7249 11.5761C10.8224 11.5455 10.9038 11.4774 10.9511 11.3868L11.7126 9.92416C11.8974 9.57573 12.3127 9.41933 12.6815 9.55924C13.0158 9.68505 13.3575 9.79056 13.7046 9.87515C13.8682 9.91586 14.0333 9.95054 14.2007 9.98221C14.9299 10.1239 15.4545 10.7654 15.4485 11.5082V13.8847Z" fill="#435BAA"/>
</svg>
