<svg width="18" height="18" viewBox="0 0 18 18" fill="none" xmlns="http://www.w3.org/2000/svg">
<path d="M10.7608 8.99893L16.1306 3.64085C16.3658 3.40566 16.4979 3.08668 16.4979 2.75408C16.4979 2.42148 16.3658 2.1025 16.1306 1.86731C15.8955 1.63213 15.5765 1.5 15.244 1.5C14.9114 1.5 14.5925 1.63213 14.3573 1.86731L9 7.23789L3.64268 1.86731C3.40752 1.63213 3.08859 1.5 2.75603 1.5C2.42348 1.5 2.10454 1.63213 1.86939 1.86731C1.63424 2.1025 1.50213 2.42148 1.50213 2.75408C1.50213 3.08668 1.63424 3.40566 1.86939 3.64085L7.2392 8.99893L1.86939 14.357C1.75234 14.4731 1.65944 14.6113 1.59604 14.7635C1.53264 14.9157 1.5 15.0789 1.5 15.2438C1.5 15.4087 1.53264 15.5719 1.59604 15.7241C1.65944 15.8763 1.75234 16.0144 1.86939 16.1306C1.98548 16.2476 2.1236 16.3405 2.27578 16.4039C2.42795 16.4674 2.59118 16.5 2.75603 16.5C2.92089 16.5 3.08411 16.4674 3.23629 16.4039C3.38847 16.3405 3.52659 16.2476 3.64268 16.1306L9 10.76L14.3573 16.1306C14.4734 16.2476 14.6115 16.3405 14.7637 16.4039C14.9159 16.4674 15.0791 16.5 15.244 16.5C15.4088 16.5 15.572 16.4674 15.7242 16.4039C15.8764 16.3405 16.0145 16.2476 16.1306 16.1306C16.2477 16.0144 16.3406 15.8763 16.404 15.7241C16.4674 15.5719 16.5 15.4087 16.5 15.2438C16.5 15.0789 16.4674 14.9157 16.404 14.7635C16.3406 14.6113 16.2477 14.4731 16.1306 14.357L10.7608 8.99893Z" fill="#02101B"/>
</svg>
