<svg width="512" height="368" viewBox="0 0 512 368" fill="none" xmlns="http://www.w3.org/2000/svg">
<path d="M472 0H40C17.945 0 0 17.945 0 40V328C0 350.055 17.945 368 40 368H472C494.055 368 512 350.055 512 328V40C512 17.945 494.055 0 472 0Z" fill="#CBCBCB"/>
<path d="M176 160H80C71.163 160 64 152.837 64 144V80C64 71.163 71.163 64 80 64H176C184.837 64 192 71.163 192 80V144C192 152.837 184.837 160 176 160Z" fill="#979797"/>
<path d="M120 264H80C71.163 264 64 256.837 64 248V240C64 231.163 71.163 224 80 224H120C128.837 224 136 231.163 136 240V248C136 256.837 128.837 264 120 264Z" fill="#F4F4F4"/>
<path d="M224 264H184C175.163 264 168 256.837 168 248V240C168 231.163 175.163 224 184 224H224C232.837 224 240 231.163 240 240V248C240 256.837 232.837 264 224 264Z" fill="#F4F4F4"/>
<path d="M328 264H288C279.163 264 272 256.837 272 248V240C272 231.163 279.163 224 288 224H328C336.837 224 344 231.163 344 240V248C344 256.837 336.837 264 328 264Z" fill="#F4F4F4"/>
<path d="M432 264H392C383.163 264 376 256.837 376 248V240C376 231.163 383.163 224 392 224H432C440.837 224 448 231.163 448 240V248C448 256.837 440.837 264 432 264Z" fill="#F4F4F4"/>
<path d="M232 312H72C67.578 312 64 308.418 64 304C64 299.582 67.578 296 72 296H232C236.422 296 240 299.582 240 304C240 308.418 236.422 312 232 312Z" fill="#C9C9C9"/>
<path d="M336 312H264C259.578 312 256 308.418 256 304C256 299.582 259.578 296 264 296H336C340.422 296 344 299.582 344 304C344 308.418 340.422 312 336 312Z" fill="#C9C9C9"/>
<path d="M368 144.002C359.211 153.821 346.439 160 332.224 160C305.714 160 284.224 138.51 284.224 112C284.224 85.49 305.714 64 332.224 64C346.437 64 359.207 70.177 367.996 79.993" fill="#E3E3E3"/>
<path d="M192 120H112V104H192V88H112V64H96V160H112V136H192V120Z" fill="#EBEBEB"/>
<path d="M400 160C426.51 160 448 138.51 448 112C448 85.4903 426.51 64 400 64C373.49 64 352 85.4903 352 112C352 138.51 373.49 160 400 160Z" fill="#8E8E8D"/>
</svg>
