<svg width="55" height="42" viewBox="0 0 55 42" fill="none" xmlns="http://www.w3.org/2000/svg">
<path d="M1.0012 33C0.898362 33.0144 0.794029 33.0144 0.691196 33C0.482348 32.9322 0.301625 32.7975 0.176921 32.6168C0.0522161 32.4361 -0.00953625 32.2193 0.00119559 32V1C0.00119559 0.734784 0.106553 0.48043 0.294089 0.292893C0.481625 0.105357 0.735979 0 1.0012 0H37.5012C37.7664 0 38.0208 0.105357 38.2083 0.292893C38.3958 0.48043 38.5012 0.734784 38.5012 1V9.5C38.5012 9.76522 38.3958 10.0196 38.2083 10.2071C38.0208 10.3946 37.7664 10.5 37.5012 10.5H14.5012V27C14.5012 27.2652 14.3958 27.5196 14.2083 27.7071C14.0208 27.8946 13.7664 28 13.5012 28H5.0912L1.8112 32.58C1.71918 32.7092 1.59773 32.8147 1.45689 32.8878C1.31604 32.9608 1.15985 32.9993 1.0012 33ZM2.0012 2V28.89L3.7712 26.42C3.86321 26.2908 3.98466 26.1853 4.1255 26.1122C4.26635 26.0392 4.42255 26.0007 4.5812 26H12.5012V9.5C12.5012 9.23478 12.6066 8.98043 12.7941 8.79289C12.9816 8.60536 13.236 8.5 13.5012 8.5H36.5012V2H2.0012Z" fill="black"/>
<path d="M53.501 41.5C53.3491 41.5008 53.199 41.467 53.0621 41.4012C52.9252 41.3353 52.8051 41.2392 52.711 41.12L49.091 36.5H13.501C13.2358 36.5 12.9814 36.3946 12.7939 36.2071C12.6063 36.0196 12.501 35.7652 12.501 35.5V9.5C12.501 9.23478 12.6063 8.98043 12.7939 8.79289C12.9814 8.60536 13.2358 8.5 13.501 8.5H53.501C53.7662 8.5 54.0205 8.60536 54.2081 8.79289C54.3956 8.98043 54.501 9.23478 54.501 9.5V40.5C54.513 40.7168 54.4542 40.9317 54.3333 41.1121C54.2124 41.2925 54.0361 41.4287 53.831 41.5C53.7215 41.5145 53.6105 41.5145 53.501 41.5V41.5ZM14.501 34.5H49.581C49.7329 34.4992 49.883 34.533 50.0198 34.5988C50.1567 34.6647 50.2768 34.7608 50.371 34.88L52.501 37.6V10.5H14.501V34.5Z" fill="black"/>
<line x1="19" y1="14.5" x2="47" y2="14.5" stroke="black"/>
<line x1="19" y1="19.5" x2="47" y2="19.5" stroke="black"/>
<line x1="19" y1="24.5" x2="43" y2="24.5" stroke="black"/>
<line x1="19" y1="29.5" x2="37" y2="29.5" stroke="black"/>
</svg>
