<svg width="26" height="26" viewBox="0 0 26 26" fill="none" xmlns="http://www.w3.org/2000/svg">
<path d="M23.1401 1.30078H2.86005C1.99945 1.30078 1.30005 2.00018 1.30005 2.86078V5.98078C1.30005 6.84138 1.99945 7.54078 2.86005 7.54078H4.94005V24.1808C4.94005 24.4668 5.17145 24.7008 5.46005 24.7008H6.76005C6.89785 24.7008 7.02785 24.6462 7.12665 24.5474L8.32005 23.3566L9.51085 24.5474C9.71365 24.7502 10.0438 24.7502 10.2466 24.5474L11.44 23.3566L12.6308 24.5474C12.8337 24.7502 13.1638 24.7502 13.3666 24.5474L14.5601 23.3566L15.7509 24.5474C15.9537 24.7502 16.2838 24.7502 16.4866 24.5474L17.68 23.3566L18.8709 24.5474C18.9697 24.6462 19.1023 24.7008 19.24 24.7008H20.5401C20.826 24.7008 21.0601 24.4668 21.0601 24.1808V7.54078H23.1401C23.9981 7.54078 24.7001 6.84138 24.7001 5.98078V2.86078C24.7001 2.00018 23.9981 1.30078 23.1401 1.30078ZM20.0201 23.6608H19.4533L18.0467 22.2516C17.8439 22.0488 17.5137 22.0488 17.3109 22.2516L16.1201 23.445L14.9267 22.2516C14.7239 22.0488 14.3937 22.0488 14.1909 22.2516L13 23.445L11.8066 22.2516C11.6038 22.0488 11.2737 22.0488 11.0709 22.2516L9.88005 23.445L8.68665 22.2516C8.48385 22.0488 8.15365 22.0488 7.95085 22.2516L6.54425 23.6608H5.98005V4.94078H20.0201V23.6608ZM23.6601 5.98078C23.6601 6.26678 23.4261 6.50078 23.1401 6.50078H21.0601V4.94078H21.58C21.8661 4.94078 22.1 4.70678 22.1 4.42078C22.1 4.13218 21.8661 3.90078 21.58 3.90078H4.42005C4.13145 3.90078 3.90005 4.13218 3.90005 4.42078C3.90005 4.70678 4.13145 4.94078 4.42005 4.94078H4.94005V6.50078H2.86005C2.57145 6.50078 2.34005 6.26678 2.34005 5.98078V2.86078C2.34005 2.57478 2.57145 2.34078 2.86005 2.34078H23.1401C23.4261 2.34078 23.6601 2.57478 23.6601 2.86078V5.98078Z" fill="#503F09"/>
<path d="M12.4799 10.16H13.5199C13.8059 10.16 14.0399 10.394 14.0399 10.68C14.0399 10.966 13.8059 11.2 13.5199 11.2H11.9599C11.6713 11.2 11.4399 11.4314 11.4399 11.72C11.4399 12.006 11.6713 12.24 11.9599 12.24H12.4799V12.76C12.4799 13.046 12.7113 13.28 12.9999 13.28C13.2859 13.28 13.5199 13.046 13.5199 12.76V12.24C14.3779 12.24 15.0799 11.5406 15.0799 10.68C15.0799 9.8194 14.3779 9.12 13.5199 9.12H12.4799C12.1913 9.12 11.9599 8.886 11.9599 8.6C11.9599 8.314 12.1913 8.08 12.4799 8.08H14.0399C14.3259 8.08 14.5599 7.846 14.5599 7.56C14.5599 7.2714 14.3259 7.04 14.0399 7.04H13.5199V6.52C13.5199 6.2314 13.2859 6 12.9999 6C12.7113 6 12.4799 6.2314 12.4799 6.52V7.04C11.6193 7.04 10.9199 7.7394 10.9199 8.6C10.9199 9.4606 11.6193 10.16 12.4799 10.16Z" fill="#503F09"/>
<g clip-path="url(#clip0_7307_118)">
<path d="M11.875 18L12.625 18.75L14.125 17.25M15.5 18C15.5 19.3807 14.3807 20.5 13 20.5C11.6193 20.5 10.5 19.3807 10.5 18C10.5 16.6193 11.6193 15.5 13 15.5C14.3807 15.5 15.5 16.6193 15.5 18Z" stroke="#503F09" stroke-width="0.8" stroke-linecap="round" stroke-linejoin="round"/>
</g>
<defs>
<clipPath id="clip0_7307_118">
<rect width="6" height="6" fill="white" transform="translate(10 15)"/>
</clipPath>
</defs>
</svg>
