<svg width="26" height="26" viewBox="0 0 26 26" fill="none" xmlns="http://www.w3.org/2000/svg">
<path d="M23.1401 1.30078H2.86005C1.99945 1.30078 1.30005 2.00018 1.30005 2.86078V5.98078C1.30005 6.84138 1.99945 7.54078 2.86005 7.54078H4.94005V24.1808C4.94005 24.4668 5.17145 24.7008 5.46005 24.7008H6.76005C6.89785 24.7008 7.02785 24.6462 7.12665 24.5474L8.32005 23.3566L9.51085 24.5474C9.71365 24.7502 10.0438 24.7502 10.2466 24.5474L11.44 23.3566L12.6308 24.5474C12.8337 24.7502 13.1638 24.7502 13.3666 24.5474L14.5601 23.3566L15.7509 24.5474C15.9537 24.7502 16.2838 24.7502 16.4866 24.5474L17.68 23.3566L18.8709 24.5474C18.9697 24.6462 19.1023 24.7008 19.24 24.7008H20.5401C20.826 24.7008 21.0601 24.4668 21.0601 24.1808V7.54078H23.1401C23.9981 7.54078 24.7001 6.84138 24.7001 5.98078V2.86078C24.7001 2.00018 23.9981 1.30078 23.1401 1.30078ZM20.0201 23.6608H19.4533L18.0467 22.2516C17.8439 22.0488 17.5137 22.0488 17.3109 22.2516L16.1201 23.445L14.9267 22.2516C14.7239 22.0488 14.3937 22.0488 14.1909 22.2516L13 23.445L11.8066 22.2516C11.6038 22.0488 11.2737 22.0488 11.0709 22.2516L9.88005 23.445L8.68665 22.2516C8.48385 22.0488 8.15365 22.0488 7.95085 22.2516L6.54425 23.6608H5.98005V4.94078H20.0201V23.6608ZM23.6601 5.98078C23.6601 6.26678 23.4261 6.50078 23.1401 6.50078H21.0601V4.94078H21.58C21.8661 4.94078 22.1 4.70678 22.1 4.42078C22.1 4.13218 21.8661 3.90078 21.58 3.90078H4.42005C4.13145 3.90078 3.90005 4.13218 3.90005 4.42078C3.90005 4.70678 4.13145 4.94078 4.42005 4.94078H4.94005V6.50078H2.86005C2.57145 6.50078 2.34005 6.26678 2.34005 5.98078V2.86078C2.34005 2.57478 2.57145 2.34078 2.86005 2.34078H23.1401C23.4261 2.34078 23.6601 2.57478 23.6601 2.86078V5.98078Z" fill="#503F09"/>
<path d="M12.4799 14.8202H13.5199C13.8059 14.8202 14.0399 15.0542 14.0399 15.3402C14.0399 15.6262 13.8059 15.8602 13.5199 15.8602H11.9599C11.6713 15.8602 11.4399 16.0916 11.4399 16.3802C11.4399 16.6662 11.6713 16.9002 11.9599 16.9002H12.4799V17.4202C12.4799 17.7062 12.7113 17.9402 12.9999 17.9402C13.2859 17.9402 13.5199 17.7062 13.5199 17.4202V16.9002C14.3779 16.9002 15.0799 16.2008 15.0799 15.3402C15.0799 14.4796 14.3779 13.7802 13.5199 13.7802H12.4799C12.1913 13.7802 11.9599 13.5462 11.9599 13.2602C11.9599 12.9742 12.1913 12.7402 12.4799 12.7402H14.0399C14.3259 12.7402 14.5599 12.5062 14.5599 12.2202C14.5599 11.9316 14.3259 11.7002 14.0399 11.7002H13.5199V11.1802C13.5199 10.8916 13.2859 10.6602 12.9999 10.6602C12.7113 10.6602 12.4799 10.8916 12.4799 11.1802V11.7002C11.6193 11.7002 10.9199 12.3996 10.9199 13.2602C10.9199 14.1208 11.6193 14.8202 12.4799 14.8202Z" fill="#503F09"/>
</svg>
