<svg width="30" height="30" viewBox="0 0 30 30" fill="none" xmlns="http://www.w3.org/2000/svg">
<path d="M19.5 15C20.3284 15 21 14.3284 21 13.5C21 12.6716 20.3284 12 19.5 12C18.6716 12 18 12.6716 18 13.5C18 14.3284 18.6716 15 19.5 15Z" fill="#435BAA"/>
<path d="M14.5 15C15.3284 15 16 14.3284 16 13.5C16 12.6716 15.3284 12 14.5 12C13.6716 12 13 12.6716 13 13.5C13 14.3284 13.6716 15 14.5 15Z" fill="#435BAA"/>
<path d="M24.5 15C25.3284 15 26 14.3284 26 13.5C26 12.6716 25.3284 12 24.5 12C23.6716 12 23 12.6716 23 13.5C23 14.3284 23.6716 15 24.5 15Z" fill="#435BAA"/>
<path d="M28.898 18.1756C29.6239 16.7241 30.0003 15.1229 29.9972 13.5C29.9972 11.4233 29.3815 9.39323 28.2279 7.66651C27.0743 5.9398 25.4346 4.59399 23.5163 3.79927C21.5979 3.00455 19.487 2.79661 17.4504 3.20176C15.4139 3.6069 13.5432 4.60693 12.075 6.07538C10.6067 7.54383 9.60682 9.41475 9.20173 11.4515C8.79664 13.4883 9.00455 15.5995 9.79916 17.5182C10.5938 19.4368 11.9394 21.0767 13.6659 22.2304C15.3924 23.3842 17.4222 24 19.4986 24C21.576 24.0034 23.6067 23.3838 25.3284 22.2212L29.1265 23.9444C29.206 23.9806 29.2923 23.9996 29.3797 24C29.5211 24.0006 29.6584 23.9526 29.7687 23.8641C29.859 23.7917 29.9271 23.6955 29.9653 23.5863C30.0035 23.4771 30.0103 23.3593 29.9849 23.2465L28.898 18.1756ZM27.6628 18.2188L28.5398 22.3138L25.5384 20.9488C25.4392 20.9037 25.3298 20.8856 25.2213 20.8965C25.1128 20.9073 25.0092 20.9467 24.9209 21.0106C23.3458 22.1567 21.4465 22.7711 19.4986 22.7647C17.4749 22.7629 15.5074 22.0983 13.8969 20.8725C12.2865 19.6468 11.1217 17.9273 10.5807 15.9769C10.0396 14.0266 10.1521 11.9527 10.9008 10.0723C11.6495 8.1919 12.9934 6.60846 14.7269 5.56404C16.4604 4.51961 18.4882 4.07168 20.5003 4.28872C22.5124 4.50575 24.398 5.37581 25.869 6.76589C27.34 8.15597 28.3154 9.98957 28.646 11.9864C28.9766 13.9832 28.6443 16.0334 27.6999 17.8235C27.6381 17.9455 27.6186 18.0845 27.6443 18.2188H27.6628Z" fill="#435BAA"/>
<path d="M14.0206 24.5375C12.6143 25.3747 10.9898 25.7854 9.34892 25.7187C7.70806 25.652 6.12325 25.1107 4.79147 24.1622C4.69929 24.0963 4.59111 24.0558 4.47791 24.0446C4.36471 24.0334 4.25053 24.052 4.14698 24.0985L1.569 25.2628L2.33595 21.7255C2.36982 21.5715 2.34455 21.4105 2.26505 21.2738C1.65154 20.121 1.32246 18.8415 1.30459 17.5395C1.28671 16.2374 1.58056 14.9496 2.16221 13.7808C2.74385 12.612 3.59686 11.5953 4.6518 10.8135C5.70673 10.0317 6.93379 9.50676 8.23308 9.28152C8.40401 9.25284 8.55639 9.1583 8.65671 9.01871C8.75703 8.87912 8.79706 8.7059 8.76801 8.53717C8.73895 8.36844 8.64318 8.21802 8.50176 8.11899C8.36035 8.01996 8.18488 7.98045 8.01395 8.00913C5.76538 8.3982 3.72883 9.56019 2.26495 11.2893C0.80107 13.0185 0.00430854 15.2032 0.0157627 17.4566C0.0194755 18.9214 0.361105 20.366 1.01473 21.681L0.0157627 26.2298C-0.0107737 26.346 -0.0036982 26.4673 0.0361831 26.5798C0.0760645 26.6923 0.147148 26.7914 0.241336 26.866C0.360762 26.9577 0.50906 27.005 0.660258 26.9996C0.751451 26.9992 0.841515 26.9797 0.924501 26.9423L4.34677 25.4091C5.92697 26.4488 7.78414 27.0023 9.68319 26.9996C11.4479 26.9991 13.1791 26.524 14.6909 25.6254C14.7635 25.5817 14.8266 25.5243 14.8766 25.4565C14.9266 25.3887 14.9626 25.3117 14.9823 25.2301C15.0021 25.1485 15.0053 25.0639 14.9918 24.981C14.9783 24.8982 14.9483 24.8188 14.9036 24.7475C14.8143 24.6045 14.6714 24.5022 14.5059 24.4629C14.3405 24.4235 14.1661 24.4504 14.0206 24.5375V24.5375Z" fill="#435BAA"/>
</svg>
