<svg width="30" height="30" viewBox="0 0 30 30" fill="none" xmlns="http://www.w3.org/2000/svg">
<path d="M16.3026 15.0253H14.9985C13.7734 15.0267 12.599 15.514 11.7328 16.3802C10.8666 17.2464 10.3793 18.4209 10.3779 19.6459V22.5393C10.3779 22.6947 10.4397 22.8438 10.5495 22.9537C10.6594 23.0636 10.8085 23.1253 10.9639 23.1253H20.3371C20.4925 23.1253 20.6415 23.0636 20.7514 22.9537C20.8613 22.8438 20.923 22.6947 20.923 22.5393V19.6459C20.9217 18.4209 20.4344 17.2464 19.5682 16.3802C18.702 15.514 17.5276 15.0267 16.3026 15.0253V15.0253ZM19.7512 21.9534H11.5499V19.6459C11.5509 18.7315 11.9146 17.855 12.5611 17.2084C13.2076 16.5619 14.0842 16.1982 14.9985 16.1972H16.3026C17.217 16.1982 18.0935 16.5619 18.7401 17.2084C19.3866 17.855 19.7503 18.7315 19.7513 19.6459V21.9534H19.7512ZM15.8186 13.8245C16.4745 13.8245 17.1157 13.63 17.6611 13.2655C18.2065 12.9011 18.6315 12.3832 18.8826 11.7772C19.1336 11.1712 19.1992 10.5044 19.0713 9.86106C18.9433 9.21774 18.6275 8.62681 18.1636 8.163C17.6998 7.6992 17.1089 7.38334 16.4656 7.25538C15.8223 7.12741 15.1555 7.19309 14.5495 7.4441C13.9435 7.69511 13.4255 8.12018 13.0611 8.66556C12.6967 9.21094 12.5022 9.85213 12.5022 10.5081C12.5032 11.3873 12.8529 12.2303 13.4747 12.852C14.0964 13.4737 14.9393 13.8235 15.8186 13.8245V13.8245ZM15.8186 8.36353C16.2427 8.36353 16.6574 8.4893 17.01 8.72495C17.3627 8.96059 17.6376 9.29552 17.7999 9.68738C17.9622 10.0792 18.0047 10.5104 17.9219 10.9264C17.8392 11.3424 17.6349 11.7246 17.335 12.0245C17.0351 12.3244 16.653 12.5286 16.237 12.6114C15.821 12.6941 15.3898 12.6517 14.9979 12.4893C14.6061 12.327 14.2711 12.0522 14.0355 11.6995C13.7998 11.3468 13.6741 10.9322 13.6741 10.5081C13.6747 9.93949 13.9008 9.39439 14.3029 8.99235C14.7049 8.59031 15.25 8.36416 15.8186 8.36353V8.36353Z" fill="#435BAA"/>
<path d="M23.7499 1.34766H7.5518C6.77507 1.34854 6.0304 1.65749 5.48117 2.20672C4.93194 2.75595 4.62299 3.50061 4.62211 4.27734V5.42297H3.90674C3.75134 5.42297 3.6023 5.4847 3.49242 5.59459C3.38253 5.70447 3.3208 5.85351 3.3208 6.00891C3.3208 6.16431 3.38253 6.31334 3.49242 6.42323C3.6023 6.53311 3.75134 6.59484 3.90674 6.59484H4.62211V23.8125H3.90674C3.75134 23.8125 3.6023 23.8742 3.49242 23.9841C3.38253 24.094 3.3208 24.243 3.3208 24.3984C3.3208 24.5538 3.38253 24.7029 3.49242 24.8128C3.6023 24.9226 3.75134 24.9844 3.90674 24.9844H4.62211V25.7227C4.62299 26.4994 4.93194 27.2441 5.48117 27.7933C6.0304 28.3425 6.77507 28.6515 7.5518 28.6523H23.7499C24.5267 28.6515 25.2713 28.3425 25.8205 27.7933C26.3698 27.2441 26.6787 26.4994 26.6796 25.7227V4.27734C26.6787 3.50061 26.3697 2.75594 25.8205 2.20671C25.2713 1.65748 24.5266 1.34854 23.7499 1.34766V1.34766ZM25.5077 25.7227C25.5071 26.1887 25.3218 26.6355 24.9922 26.965C24.6627 27.2946 24.2159 27.4799 23.7499 27.4805H7.5518C7.08576 27.4799 6.63896 27.2946 6.30942 26.965C5.97988 26.6355 5.79451 26.1887 5.79398 25.7227V24.9844H6.75949C6.91489 24.9844 7.06393 24.9226 7.17381 24.8128C7.2837 24.7029 7.34543 24.5538 7.34543 24.3984C7.34543 24.243 7.2837 24.094 7.17381 23.9841C7.06393 23.8742 6.91489 23.8125 6.75949 23.8125H5.79398V6.59484H6.75949C6.91489 6.59484 7.06393 6.53311 7.17381 6.42323C7.2837 6.31334 7.34543 6.16431 7.34543 6.00891C7.34543 5.85351 7.2837 5.70447 7.17381 5.59459C7.06393 5.4847 6.91489 5.42297 6.75949 5.42297H5.79398V4.27734C5.79451 3.8113 5.97988 3.3645 6.30942 3.03496C6.63896 2.70543 7.08576 2.52006 7.5518 2.51953H23.7499C24.216 2.52006 24.6628 2.70543 24.9923 3.03496C25.3218 3.3645 25.5072 3.8113 25.5077 4.27734V25.7227H25.5077Z" fill="#435BAA"/>
</svg>
