<svg width="18" height="18" viewBox="0 0 18 18" fill="none" xmlns="http://www.w3.org/2000/svg">
<path d="M9.03769 17.9621C4.08769 17.9621 0.0751953 13.9496 0.0751953 8.99961C0.0751953 4.04961 4.08769 0.0371094 9.03769 0.0371094C13.9877 0.0371094 18.0002 4.04961 18.0002 8.99961C18.0002 13.9121 13.9877 17.9621 9.03769 17.9621ZM9.03769 0.974609C4.65019 0.974609 1.05019 4.5746 1.05019 8.9621C1.05019 13.3496 4.65019 16.9496 9.03769 16.9496C13.4252 16.9496 17.0252 13.3496 17.0252 8.9621C17.0252 4.5746 13.4252 0.974609 9.03769 0.974609Z" fill="#435BAA"/>
<path d="M5.1378 13.5742L4.42529 12.8617L12.9003 4.38672L13.6128 5.09922L5.1378 13.5742Z" fill="#435BAA"/>
<path d="M12.475 13.1875L4 4.7125L4.71251 4L13.1875 12.475L12.475 13.1875Z" fill="#435BAA"/>
</svg>
