<svg width="18" height="18" viewBox="0 0 18 18" fill="none" xmlns="http://www.w3.org/2000/svg">
<path d="M9.04008 6.42198C9.84336 6.42198 10.5627 6.78163 11.0423 7.3462L11.3934 7.10109C10.8359 6.42905 9.98881 6 9.04008 6C7.36117 6 6 7.34314 6 8.99995C6 10.6568 7.36117 12 9.04008 12C10.4808 12 11.6866 11.0107 12 9.68307L11.4018 10.1011C10.9825 10.9733 10.0817 11.5781 9.04008 11.5781C7.5995 11.5781 6.4275 10.4216 6.4275 8.99995C6.4275 7.57844 7.5995 6.42198 9.04008 6.42198Z" fill="#02101B"/>
<path d="M16.2099 7.66663H15.487L14.7814 8.16663H16.2099C16.367 8.16663 16.5 8.345 16.5 8.55613V9.44438C16.5 9.65525 16.367 9.8335 16.2099 9.8335H14.675L14.5892 10.2269C14.4451 10.887 14.1842 11.5161 13.8188 12.0845L13.6016 12.4233L13.8862 12.7079L14.6877 13.5094C14.7478 13.5691 14.7564 13.6488 14.7529 13.7049C14.7471 13.8054 14.6975 13.9091 14.6174 13.9894L13.9897 14.6174C13.903 14.7039 13.7919 14.7536 13.6849 14.7536C13.6349 14.7536 13.5639 14.7421 13.5091 14.6873L12.7076 13.886L12.4231 13.6016L12.0844 13.8188C11.516 14.1841 10.887 14.445 10.2269 14.5891L9.8335 14.675V16.21C9.8335 16.3671 9.65525 16.5 9.44425 16.5H8.55587C8.34487 16.5 8.16663 16.3671 8.16663 16.21V14.675L7.77313 14.5891C7.11302 14.445 6.48398 14.1841 5.91563 13.8188L5.57688 13.6016L5.29238 13.8861L4.49062 14.6877C4.43625 14.7421 4.36525 14.7535 4.31512 14.7535C4.20825 14.7535 4.09713 14.7039 4.01075 14.6178L3.38275 13.9895C3.30238 13.9091 3.253 13.8054 3.24712 13.705C3.24375 13.6488 3.25238 13.5693 3.31275 13.5091L4.114 12.7079L4.39838 12.4234L4.18138 12.0846C3.81596 11.5162 3.55503 10.8871 3.41088 10.2269L3.32512 9.8335H1.79025C1.63288 9.8335 1.5 9.65525 1.5 9.44438V8.55625C1.5 8.345 1.63288 8.16675 1.79025 8.16675H3.325L3.41075 7.77325C3.55487 7.11316 3.81581 6.48415 4.18125 5.91587L4.39838 5.57713L4.11387 5.2925L3.31212 4.49075C3.25775 4.43663 3.24638 4.36575 3.24638 4.31575C3.24638 4.20875 3.29588 4.09788 3.38238 4.01125L4.01038 3.383C4.09725 3.29637 4.20825 3.24662 4.31525 3.24662C4.36525 3.24662 4.43625 3.258 4.49088 3.31288L5.29213 4.11413L5.57675 4.39862L5.9155 4.18138C6.48381 3.81602 7.11288 3.55525 7.773 3.41138L8.1665 3.32575V1.79C8.1665 1.63275 8.34475 1.5 8.55575 1.5H9.44413C9.65513 1.5 9.83337 1.63288 9.83337 1.79V3.32562L10.2269 3.41138C10.8869 3.5553 11.516 3.81607 12.0843 4.18138L12.423 4.39838L12.7075 4.114L13.5095 3.31225C13.5637 3.25787 13.6346 3.2465 13.6845 3.2465C13.7915 3.2465 13.9026 3.29625 13.9891 3.38263L14.6174 4.01125C14.6975 4.09138 14.747 4.195 14.7528 4.29525C14.7563 4.3515 14.7475 4.431 14.6874 4.49113L14.0674 5.11125L15.2521 4.27275C15.2411 4.05575 15.1465 3.83312 14.9709 3.65775L14.3427 3.02912C14.1555 2.842 13.9149 2.7465 13.6845 2.7465C13.4874 2.7465 13.2978 2.8165 13.1555 2.959L12.354 3.76025C11.7356 3.36314 11.0514 3.07953 10.3334 2.92275V1.79C10.3334 1.35375 9.93525 1 9.44413 1H8.55575C8.0645 1 7.6665 1.35375 7.6665 1.79V2.92275C6.94847 3.07951 6.26416 3.36312 5.64575 3.76025L4.8445 2.959C4.70213 2.8165 4.5125 2.7465 4.31525 2.7465C4.08487 2.7465 3.84438 2.842 3.657 3.02912L3.02875 3.65762C2.68162 4.00487 2.65 4.53638 2.959 4.84462L3.76025 5.64587C3.36306 6.26431 3.07929 6.9486 2.92225 7.66663H1.79025C1.35362 7.66663 1 8.06463 1 8.55613V9.44438C1 9.93538 1.35375 10.3335 1.79025 10.3335H2.92237C3.07948 11.0515 3.36324 11.7359 3.76038 12.3544L2.95913 13.1556C2.65013 13.4639 2.68175 13.9951 3.02888 14.3429L3.65712 14.9712C3.84437 15.1581 4.085 15.2535 4.31512 15.2535C4.5125 15.2535 4.70225 15.1835 4.8445 15.041L5.64587 14.2397C6.26433 14.6369 6.94861 14.9207 7.66663 15.0778V16.21C7.66663 16.6462 8.06462 17 8.55587 17H9.44425C9.9355 17 10.3335 16.6462 10.3335 16.21V15.0778C11.0515 14.9207 11.7357 14.6369 12.3541 14.2397L13.1556 15.041C13.2979 15.1835 13.4876 15.2535 13.6849 15.2535C13.9151 15.2535 14.1556 15.1581 14.3429 14.9712L14.9711 14.3429C15.3182 13.9951 15.3499 13.4639 15.0411 13.1555L14.2397 12.3542C14.6369 11.7358 14.9207 11.0515 15.0778 10.3335H16.2099C16.6464 10.3335 17 9.93538 17 9.44438V8.55625C17 8.06475 16.6462 7.66675 16.2099 7.66675V7.66663Z" fill="#02101B"/>
<path d="M9.66993 8.48959C9.65985 8.4747 9.6501 8.45957 9.64067 8.44422L8.6615 7.0695C8.59912 6.97787 8.51648 6.90307 8.42049 6.85135C8.3245 6.79964 8.21796 6.77252 8.10978 6.77226C7.96651 6.77226 7.82936 6.81893 7.71296 6.90708L7.27926 7.23582C6.97821 7.46384 6.9092 7.90704 7.12799 8.22748C7.14012 8.24485 8.35608 9.95985 8.88717 10.7415C8.94155 10.8214 9.01363 10.8865 9.09735 10.9315C9.18106 10.9765 9.27397 11 9.36825 11H9.36838C9.4939 11 9.61779 10.9579 9.72669 10.8781C12.0585 9.16719 14.3897 7.45534 16.7203 5.74261C17.0211 5.51446 17.0902 5.07139 16.8742 4.75445L16.562 4.29724C16.4996 4.20561 16.417 4.13081 16.3211 4.0791C16.2251 4.02738 16.1186 4.00026 16.0104 4C15.8689 3.99964 15.731 4.04599 15.6166 4.13235L9.82458 8.38239C9.7752 8.42138 9.72355 8.45718 9.66993 8.48959ZM15.9084 4.55352C15.9859 4.4948 16.0984 4.51528 16.1537 4.59669L16.466 5.05389C16.5251 5.14087 16.5069 5.26208 16.4281 5.32183C16.4281 5.32183 10.8021 9.45572 9.43814 10.4546C9.41376 10.4724 9.39038 10.4815 9.36838 10.4815C9.35425 10.4813 9.34035 10.4777 9.32779 10.471C9.31523 10.4643 9.30434 10.4547 9.29599 10.4429C8.76202 9.65704 7.54306 7.93763 7.53343 7.92428C7.50491 7.88267 7.49322 7.83113 7.50086 7.7807C7.5085 7.73027 7.53486 7.68493 7.57432 7.65439L8.00814 7.32552C8.03815 7.30283 8.07328 7.29078 8.10978 7.29078C8.16704 7.29078 8.2193 7.3193 8.25631 7.37322L9.22323 8.7298C9.26686 8.80045 9.347 8.91932 9.42676 8.9818C9.47965 9.02289 9.54441 9.04467 9.61429 9.04467C9.7797 9.04467 9.98561 8.90817 10.1214 8.79967L15.9084 4.55352Z" fill="#02101B"/>
</svg>
