<svg width="16" height="16" viewBox="0 0 16 16" fill="none" xmlns="http://www.w3.org/2000/svg">
<path d="M8.00005 11.9232C10.1657 11.9232 11.9235 10.1654 11.9235 7.9998C11.9235 5.83418 10.1657 4.07637 8.00005 4.07637C5.83442 4.07637 4.07661 5.83418 4.07661 7.9998C4.07661 10.1654 5.83442 11.9232 8.00005 11.9232ZM8.00005 4.79355C9.77192 4.79355 11.2063 6.22793 11.2063 7.9998C11.2063 9.77168 9.77192 11.2061 8.00005 11.2061C6.22817 11.2061 4.7938 9.77168 4.7938 7.9998C4.7938 6.22793 6.22817 4.79355 8.00005 4.79355ZM8.35161 3.00762V0.870117C8.35161 0.673242 8.19692 0.518555 8.00005 0.518555C7.80317 0.518555 7.64849 0.673242 7.64849 0.870117V3.00762C7.64849 3.20449 7.80317 3.35918 8.00005 3.35918C8.19692 3.35918 8.35161 3.20449 8.35161 3.00762ZM8.35161 15.1295V12.992C8.35161 12.7951 8.19692 12.6404 8.00005 12.6404C7.80317 12.6404 7.64849 12.7951 7.64849 12.992V15.1295C7.64849 15.3264 7.80317 15.4811 8.00005 15.4811C8.19692 15.4811 8.35161 15.3264 8.35161 15.1295ZM4.72349 4.72324C4.86411 4.58262 4.86411 4.35762 4.72349 4.21699L3.20474 2.69824C3.06411 2.55762 2.83911 2.55762 2.69849 2.69824C2.55786 2.83887 2.55786 3.06387 2.69849 3.20449L4.21724 4.72324C4.28755 4.79355 4.37192 4.82168 4.47036 4.82168C4.55474 4.82168 4.65317 4.79355 4.72349 4.72324ZM13.3016 12.7951L11.7829 11.2764C11.6422 11.1357 11.4172 11.1357 11.2766 11.2764C11.136 11.417 11.136 11.642 11.2766 11.7826L12.7954 13.3014C12.8657 13.3717 12.95 13.3998 13.0485 13.3998C13.1329 13.3998 13.2313 13.3717 13.3016 13.3014C13.4422 13.1607 13.4422 12.9357 13.3016 12.7951ZM0.870361 8.35137H3.00786C3.20474 8.35137 3.35942 8.19668 3.35942 7.9998C3.35942 7.80293 3.20474 7.64824 3.00786 7.64824H0.870361C0.673486 7.64824 0.518799 7.80293 0.518799 7.9998C0.518799 8.19668 0.673486 8.35137 0.870361 8.35137ZM15.4954 7.9998C15.4954 7.80293 15.3407 7.64824 15.1438 7.64824H12.9922C12.7954 7.64824 12.6407 7.80293 12.6407 7.9998C12.6407 8.19668 12.7954 8.35137 12.9922 8.35137H15.1297C15.3266 8.35137 15.4954 8.19668 15.4954 7.9998ZM2.69849 13.3014C2.7688 13.3717 2.85317 13.3998 2.95161 13.3998C3.05005 13.3998 3.13442 13.3717 3.20474 13.3014L4.72349 11.7826C4.86411 11.642 4.86411 11.417 4.72349 11.2764C4.58286 11.1357 4.35786 11.1357 4.21724 11.2764L2.69849 12.7951C2.55786 12.9357 2.55786 13.1607 2.69849 13.3014ZM11.7829 4.72324L13.3016 3.20449C13.4422 3.06387 13.4422 2.83887 13.3016 2.69824C13.161 2.55762 12.936 2.55762 12.7954 2.69824L11.2766 4.21699C11.136 4.35762 11.136 4.58262 11.2766 4.72324C11.3469 4.79355 11.4313 4.82168 11.5297 4.82168C11.6282 4.82168 11.7125 4.79355 11.7829 4.72324Z" fill="black"/>
</svg>
