<svg width="14" height="16" viewBox="0 0 14 16" fill="none" xmlns="http://www.w3.org/2000/svg">
<path d="M13.0688 3.98245C12.1935 3.98245 11.3181 3.98245 10.4428 3.98245C10.3161 3.98245 10.1895 3.98245 10.0628 3.98245C10.0274 3.98245 9.99218 3.98069 9.95694 3.97761C10.0377 3.98466 9.95975 3.97733 9.94412 3.9744C9.92092 3.97002 9.89807 3.96394 9.87527 3.95787C9.85265 3.95184 9.83052 3.94418 9.80842 3.93653C9.77634 3.92412 9.77929 3.92581 9.81726 3.94158C9.80318 3.93532 9.78924 3.92873 9.77548 3.9218C9.73415 3.90162 9.69515 3.87706 9.65716 3.85124C9.5929 3.80756 9.7067 3.89303 9.64693 3.84354C9.62932 3.82897 9.61278 3.81319 9.59625 3.79742C9.57971 3.78165 9.56433 3.76474 9.54895 3.74785C9.5393 3.73725 9.49244 3.67625 9.53958 3.73899C9.50736 3.6961 9.48034 3.64957 9.45572 3.60202C9.44897 3.58899 9.41954 3.51728 9.44913 3.59088C9.44042 3.56922 9.43332 3.54695 9.4262 3.52475C9.41181 3.47964 9.40244 3.43309 9.39483 3.38642C9.40848 3.4702 9.39502 3.34385 9.39502 3.32302C9.39502 3.32023 9.39502 3.31743 9.39502 3.31464C9.39502 3.27236 9.39502 3.23008 9.39502 3.18781C9.39502 2.98786 9.39502 2.78789 9.39502 2.58794C9.39502 1.82818 9.39502 1.06843 9.39502 0.308671C9.21998 0.38118 9.04493 0.45369 8.86989 0.5262C9.36742 1.02373 9.86495 1.52126 10.3625 2.01881C11.0919 2.74818 11.8212 3.47755 12.5506 4.20692C12.6508 4.30715 12.7511 4.40738 12.8513 4.50761C12.9698 4.62612 13.1678 4.62612 13.2863 4.50761C13.4048 4.3891 13.4048 4.19108 13.2863 4.07257C12.7888 3.57504 12.2912 3.07751 11.7937 2.57996C11.0643 1.85059 10.335 1.12122 9.60561 0.39185C9.50537 0.29162 9.40514 0.191389 9.30491 0.091159C9.11511 -0.0986496 8.77979 0.0403582 8.77979 0.308688C8.77979 1.18401 8.77979 2.05931 8.77979 2.93463C8.77979 3.0613 8.77979 3.18798 8.77979 3.31465C8.77979 3.73145 8.97924 4.10715 9.30973 4.35542C9.69307 4.6434 10.1642 4.5977 10.6135 4.5977C11.432 4.5977 12.2504 4.5977 13.0688 4.5977C13.2365 4.5977 13.3764 4.45778 13.3764 4.29008C13.3764 4.12239 13.2365 3.98245 13.0688 3.98245Z" fill="#02101B"/>
<path d="M12.7615 4.29049C12.7615 4.75155 12.7615 5.21261 12.7615 5.67366C12.7615 6.7175 12.7615 7.76135 12.7615 8.80519C12.7615 9.92284 12.7615 11.0405 12.7615 12.1581C12.7615 12.8406 12.7615 13.523 12.7615 14.2055C12.7615 14.2485 12.7615 14.2915 12.7615 14.3344C12.7615 14.3679 12.76 14.4013 12.7577 14.4348C12.7567 14.4494 12.746 14.5306 12.7577 14.4487C12.7544 14.4723 12.7496 14.4956 12.7449 14.519C12.7341 14.5728 12.7182 14.6254 12.7004 14.6772C12.6958 14.6906 12.6657 14.7637 12.6972 14.6902C12.688 14.7115 12.6778 14.7322 12.6675 14.7529C12.6471 14.7942 12.6233 14.8337 12.5985 14.8724C12.5862 14.8918 12.5728 14.9104 12.5594 14.929C12.605 14.8655 12.56 14.9274 12.5507 14.9385C12.5166 14.9795 12.4788 15.0173 12.4397 15.0536C12.423 15.0692 12.4054 15.0838 12.3879 15.0985C12.3281 15.1484 12.4406 15.0603 12.3773 15.1059C12.34 15.1327 12.3006 15.1564 12.2606 15.179C12.2405 15.1904 12.2198 15.2006 12.1991 15.2109C12.1863 15.2172 12.114 15.2471 12.1878 15.2171C12.1372 15.2377 12.0848 15.2535 12.0319 15.2673C12.009 15.2733 11.9858 15.278 11.9626 15.2827C11.9481 15.2856 11.868 15.2964 11.9498 15.2862C11.9014 15.2922 11.8526 15.2941 11.8039 15.2945C11.8015 15.2946 11.7991 15.2945 11.7967 15.2945C11.7449 15.2945 11.6931 15.2945 11.6412 15.2945C10.9136 15.2945 10.186 15.2945 9.45836 15.2945C8.32377 15.2945 7.18915 15.2945 6.05455 15.2945C5.0802 15.2945 4.10584 15.2945 3.13147 15.2945C2.88165 15.2945 2.63183 15.2945 2.38201 15.2945C2.34745 15.2945 2.31291 15.2945 2.27835 15.2945C2.22955 15.2945 2.18104 15.2913 2.13254 15.2862C2.21409 15.2948 2.13469 15.2854 2.11974 15.2827C2.09645 15.2785 2.07341 15.2729 2.05042 15.2673C2.00485 15.2563 1.96031 15.2415 1.91631 15.2255C1.84196 15.1984 1.97603 15.2531 1.90413 15.2207C1.87606 15.2081 1.84885 15.1937 1.82179 15.179C1.78138 15.1571 1.74285 15.132 1.70509 15.1058C1.64099 15.0615 1.75517 15.1473 1.69448 15.0985C1.67667 15.0842 1.65964 15.0689 1.64262 15.0536C1.60857 15.023 1.57707 14.9898 1.54656 14.9558C1.53126 14.9388 1.51692 14.921 1.50259 14.9031C1.55387 14.9669 1.49263 14.8856 1.48382 14.8724C1.4583 14.8341 1.43597 14.7938 1.41481 14.7529C1.40417 14.7324 1.39466 14.7113 1.38515 14.6902C1.41783 14.7628 1.38688 14.6908 1.38194 14.6772C1.36585 14.6331 1.35353 14.5877 1.34249 14.5421C1.33692 14.519 1.33263 14.4956 1.32838 14.4723C1.32289 14.4373 1.32316 14.4408 1.32913 14.4829C1.3273 14.4669 1.32576 14.4508 1.32453 14.4348C1.32133 14.3976 1.32082 14.3603 1.32082 14.323C1.32082 14.2759 1.32082 14.2288 1.32082 14.1816C1.32082 13.9522 1.32082 13.7227 1.32082 13.4933C1.32082 12.6315 1.32082 11.7696 1.32082 10.9078C1.32082 9.77167 1.32082 8.63551 1.32082 7.49933C1.32082 6.40416 1.32082 5.30899 1.32082 4.2138C1.32082 3.47499 1.32082 2.73618 1.32082 1.99737C1.32082 1.86016 1.32082 1.72294 1.32082 1.58573C1.32082 1.5331 1.32363 1.48072 1.32913 1.42837C1.32055 1.5099 1.32992 1.4305 1.33265 1.41557C1.3369 1.39226 1.34247 1.36924 1.34803 1.34623C1.35905 1.30066 1.37387 1.25612 1.3899 1.21211C1.41699 1.13775 1.36227 1.27182 1.39466 1.19992C1.40416 1.17887 1.41479 1.15833 1.42543 1.13784C1.45011 1.09022 1.47909 1.04494 1.50959 1.00087C1.55396 0.936762 1.46811 1.05095 1.51694 0.99027C1.53126 0.972445 1.54656 0.95543 1.56183 0.938414C1.59238 0.904383 1.62562 0.872883 1.65964 0.842367C1.67665 0.827074 1.69449 0.81273 1.7123 0.798404C1.65109 0.847658 1.71228 0.800426 1.72394 0.792357C1.76808 0.761807 1.8149 0.735316 1.86252 0.710637C1.88305 0.700002 1.90417 0.690492 1.92524 0.681C1.85268 0.713678 1.92463 0.682723 1.9382 0.677783C1.98234 0.661717 2.02774 0.649377 2.07336 0.638356C2.09644 0.632783 2.11981 0.628512 2.14316 0.62424C2.22323 0.609615 2.07501 0.631061 2.15652 0.622482C2.19698 0.618229 2.2379 0.616682 2.27858 0.616682C2.90898 0.616682 3.53937 0.616682 4.16976 0.616682C5.29202 0.616682 6.41427 0.616682 7.53653 0.616682C8.05357 0.616682 8.5706 0.616682 9.08764 0.616682C9.01513 0.586658 8.94262 0.556617 8.87013 0.526594C9.36766 1.02412 9.86519 1.52166 10.3627 2.0192C11.0921 2.74857 11.8215 3.47794 12.5508 4.20731C12.6511 4.30754 12.7513 4.40777 12.8515 4.508C12.97 4.62652 13.168 4.62652 13.2865 4.508C13.4051 4.38949 13.4051 4.19147 13.2865 4.07296C12.789 3.57543 12.2915 3.0779 11.794 2.58035C11.0646 1.85098 10.3352 1.12161 9.60585 0.392244C9.46698 0.253377 9.2867 0.00146484 9.07247 0.00146484C8.84295 0.00146484 8.61346 0.00146484 8.38396 0.00146484C7.33772 0.00146484 6.29153 0.00146484 5.24531 0.00146484C4.33726 0.00146484 3.42921 0.00146484 2.52116 0.00146484C2.44527 0.00146484 2.36937 0.00146484 2.29347 0.00146484C1.98256 0.00146484 1.67289 0.0883535 1.41338 0.261111C0.948883 0.570311 0.705566 1.08164 0.705566 1.63222C0.705566 2.15292 0.705566 2.67362 0.705566 3.19432C0.705566 4.19123 0.705566 5.18814 0.705566 6.18504C0.705566 7.34279 0.705566 8.50054 0.705566 9.65827C0.705566 10.6615 0.705566 11.6647 0.705566 12.6679C0.705566 13.2012 0.705566 13.7346 0.705566 14.2679C0.705566 14.7657 0.893406 15.2503 1.29531 15.5619C1.58126 15.7836 1.92009 15.9098 2.28445 15.9098C2.33499 15.9098 2.38551 15.9098 2.43604 15.9098C3.16019 15.9098 3.88434 15.9098 4.60849 15.9098C5.74247 15.9098 6.87646 15.9098 8.01044 15.9098C8.98701 15.9098 9.96358 15.9098 10.9401 15.9098C11.1921 15.9098 11.4441 15.9098 11.6961 15.9098C11.732 15.9098 11.7679 15.9098 11.8038 15.9098C12.2441 15.9098 12.6766 15.7186 12.9708 15.3908C13.2302 15.1019 13.3766 14.7231 13.3766 14.3344C13.3766 14.2914 13.3766 14.2484 13.3766 14.2055C13.3766 13.9504 13.3766 13.6954 13.3766 13.4404C13.3766 12.4767 13.3766 11.5131 13.3766 10.5494C13.3766 9.40501 13.3766 8.26065 13.3766 7.11628C13.3766 6.30022 13.3766 5.48413 13.3766 4.66807C13.3766 4.54219 13.3766 4.41633 13.3766 4.29047C13.3766 4.12278 13.2367 3.98286 13.069 3.98286C12.9013 3.98286 12.7615 4.12281 12.7615 4.29049Z" fill="#02101B"/>
<path d="M2.84569 8.86577C3.37714 8.86577 3.90862 8.86577 4.44007 8.86577C5.54883 8.86577 6.65759 8.86577 7.76635 8.86577C8.72395 8.86577 9.68155 8.86577 10.6392 8.86577C10.8383 8.86577 11.0374 8.86577 11.2365 8.86577C11.4042 8.86577 11.5441 8.72585 11.5441 8.55816C11.5441 8.39046 11.4042 8.25054 11.2365 8.25054C10.7051 8.25054 10.1736 8.25054 9.64213 8.25054C8.53339 8.25054 7.42463 8.25054 6.31587 8.25054C5.35827 8.25054 4.40066 8.25054 3.44306 8.25054C3.24394 8.25054 3.04481 8.25054 2.8457 8.25054C2.67801 8.25054 2.53809 8.39046 2.53809 8.55816C2.53809 8.72585 2.67801 8.86577 2.84569 8.86577ZM2.84569 11.2502C3.37714 11.2502 3.90862 11.2502 4.44007 11.2502C5.54883 11.2502 6.65759 11.2502 7.76635 11.2502C8.72395 11.2502 9.68155 11.2502 10.6392 11.2502C10.8383 11.2502 11.0374 11.2502 11.2365 11.2502C11.4042 11.2502 11.5441 11.1103 11.5441 10.9426C11.5441 10.7749 11.4042 10.635 11.2365 10.635C10.7051 10.635 10.1736 10.635 9.64213 10.635C8.53339 10.635 7.42463 10.635 6.31587 10.635C5.35827 10.635 4.40066 10.635 3.44306 10.635C3.24394 10.635 3.04481 10.635 2.8457 10.635C2.67801 10.635 2.53809 10.7749 2.53809 10.9426C2.53809 11.1103 2.67801 11.2502 2.84569 11.2502ZM2.84569 13.6346C3.50919 13.6346 4.17268 13.6346 4.83616 13.6346C5.92776 13.6346 7.01935 13.6346 8.11093 13.6346C8.41155 13.6346 8.71216 13.6346 9.01278 13.6346C9.18047 13.6346 9.32039 13.4947 9.32039 13.327C9.32039 13.1593 9.18047 13.0194 9.01278 13.0194C8.34929 13.0194 7.68579 13.0194 7.0223 13.0194C5.9307 13.0194 4.83912 13.0194 3.74753 13.0194C3.44693 13.0194 3.14631 13.0194 2.8457 13.0194C2.67801 13.0194 2.53809 13.1593 2.53809 13.327C2.53809 13.4947 2.67801 13.6346 2.84569 13.6346ZM5.03676 3.37493C5.03643 3.39928 5.03546 3.42339 5.03383 3.44769C5.02834 3.52879 5.04604 3.38113 5.03202 3.46036C5.02388 3.50643 5.01026 3.55134 4.99491 3.59545C4.96918 3.66952 5.02321 3.53623 4.99004 3.60684C4.9803 3.62758 4.96896 3.6475 4.95766 3.66739C4.94638 3.68722 4.9336 3.70615 4.92084 3.72503C4.90095 3.7524 4.90331 3.74982 4.9279 3.71728C4.91834 3.72902 4.90848 3.74052 4.89832 3.75175C4.8683 3.78585 4.83447 3.8164 4.79965 3.84551C4.85959 3.7954 4.80109 3.84272 4.78853 3.85119C4.76959 3.86397 4.74973 3.87527 4.72988 3.88656C4.70995 3.89791 4.68916 3.90767 4.66841 3.91743C4.7401 3.88373 4.67047 3.91509 4.65592 3.92013C4.63387 3.9278 4.61127 3.93369 4.5887 3.93957C4.57198 3.94393 4.46876 3.95954 4.55395 3.94915C4.50575 3.95503 4.45704 3.95501 4.40861 3.95304C4.39332 3.95242 4.31328 3.94151 4.39516 3.95374C4.37184 3.95026 4.34883 3.94492 4.32589 3.93957C4.30316 3.93428 4.28089 3.9272 4.25867 3.92013C4.24457 3.91565 4.17294 3.88531 4.24617 3.91743C4.19725 3.89598 4.15134 3.86828 4.10718 3.83845C4.04316 3.7952 4.15668 3.88042 4.09749 3.83094C4.08007 3.81637 4.0638 3.80051 4.04754 3.78466C4.03128 3.7688 4.01625 3.75173 4.00125 3.7347C3.95028 3.6768 4.03862 3.78791 3.99375 3.72503C3.96719 3.6878 3.94504 3.64764 3.92454 3.60682C3.88953 3.53707 3.94734 3.66878 3.91967 3.59543C3.90871 3.56636 3.90044 3.53635 3.8926 3.50633C3.88666 3.48349 3.88255 3.46024 3.87844 3.43703C3.89273 3.51777 3.88021 3.43956 3.87914 3.4236C3.87585 3.37516 3.87845 3.32652 3.88302 3.27827C3.87532 3.35951 3.88408 3.28215 3.88729 3.2664C3.89199 3.24346 3.89849 3.22095 3.905 3.19848C3.91145 3.17619 3.91964 3.15446 3.92783 3.13277C3.89876 3.20984 3.9375 3.11753 3.94564 3.10235C3.95641 3.0822 3.96872 3.06294 3.981 3.0437C3.98884 3.03144 4.03569 2.97083 3.98668 3.03258C4.01493 2.99698 4.04715 2.96476 4.08044 2.93391C4.09113 2.92402 4.15158 2.87724 4.08863 2.92463C4.10685 2.91092 4.12606 2.89863 4.14525 2.88638C4.16454 2.87406 4.18472 2.86327 4.20486 2.85249C4.21845 2.84546 4.23221 2.83876 4.24615 2.83243C4.20785 2.8481 4.20472 2.84973 4.23675 2.83734C4.28052 2.82081 4.32608 2.8096 4.37184 2.80023C4.45067 2.78409 4.3036 2.80608 4.38451 2.79842C4.4087 2.79613 4.43301 2.7958 4.45727 2.79548C4.48154 2.79515 4.50582 2.79678 4.53002 2.79842C4.61113 2.8039 4.46345 2.7862 4.5427 2.80023C4.59636 2.80972 4.64853 2.8263 4.69942 2.84549C4.62545 2.8176 4.69587 2.84556 4.70967 2.85249C4.73011 2.86276 4.74971 2.87459 4.76928 2.88638C4.78879 2.89814 4.80737 2.91139 4.8259 2.92463C4.76233 2.87928 4.82271 2.92391 4.83409 2.93391C4.86821 2.96394 4.89876 2.99776 4.92785 3.03258C4.87775 2.97265 4.92505 3.03114 4.93353 3.0437C4.9506 3.06896 4.96534 3.09568 4.97969 3.12253C4.98674 3.13611 4.99342 3.14988 4.99974 3.16382C4.98408 3.12551 4.98247 3.12238 4.99486 3.15441C5.00584 3.18349 5.01409 3.21349 5.02193 3.24352C5.02629 3.26023 5.0419 3.36345 5.03151 3.27827C5.03548 3.31033 5.03632 3.34267 5.03676 3.37493C5.03903 3.54259 5.17498 3.68255 5.34438 3.68255C5.51035 3.68255 5.65427 3.54262 5.652 3.37493C5.64527 2.87559 5.34355 2.44811 4.88438 2.26095C4.445 2.08187 3.92386 2.21082 3.59668 2.54642C3.2414 2.91083 3.18447 3.44248 3.38356 3.89656C3.57057 4.32308 4.05007 4.58678 4.50599 4.56829C5.14323 4.54247 5.64349 4.00658 5.65202 3.37493C5.65428 3.20723 5.51037 3.06731 5.3444 3.06731C5.17498 3.06731 5.03903 3.20729 5.03676 3.37493Z" fill="#02101B"/>
<path d="M5.38923 4.51167C5.41048 4.52542 5.43128 4.53955 5.45188 4.55427C5.39343 4.51252 5.45955 4.56196 5.46812 4.56935C5.50625 4.60229 5.54088 4.63904 5.5741 4.67684C5.62935 4.73968 5.5388 4.62627 5.58809 4.69399C5.60298 4.71444 5.61641 4.73586 5.62984 4.75727C5.64331 4.77877 5.65526 4.80117 5.6672 4.82353C5.67502 4.83859 5.68247 4.85383 5.68957 4.86925C5.67574 4.83469 5.67528 4.83376 5.68817 4.86649C5.70701 4.91465 5.72063 4.96468 5.73241 5.01499C5.73839 5.04053 5.74252 5.06646 5.74663 5.09235C5.73473 5.01755 5.74526 5.10513 5.74595 5.11648C5.74823 5.15401 5.74726 5.19196 5.74726 5.22956C5.74726 5.45284 5.74726 5.6761 5.74726 5.89938C5.74726 5.90834 5.74675 5.91624 5.7464 5.92603C5.74899 5.8522 5.74457 5.91585 5.73768 5.937C5.7602 5.86774 5.73705 5.92808 5.72577 5.9451C5.7759 5.86955 5.68377 5.9702 5.75545 5.91541C5.74206 5.92566 5.67595 5.95609 5.74735 5.92733C5.7303 5.9342 5.65835 5.94431 5.73638 5.93605C5.72654 5.93708 5.71619 5.93691 5.70613 5.93691C5.6609 5.93691 5.61567 5.93691 5.57043 5.93691C5.35089 5.93691 5.13136 5.93691 4.91183 5.93691C4.39828 5.93691 3.88474 5.93691 3.37119 5.93691C3.31934 5.93691 3.26748 5.93691 3.21563 5.93691C3.21183 5.93691 3.20805 5.93691 3.20425 5.93691C3.12299 5.93691 3.2636 5.9531 3.18963 5.93459C3.11649 5.91627 3.24289 5.96496 3.17838 5.92812C3.1139 5.89131 3.22204 5.97052 3.16985 5.91831C3.21876 5.96721 3.17604 5.92562 3.16481 5.90594C3.17926 5.94448 3.18091 5.94742 3.16978 5.91471C3.16219 5.88045 3.1617 5.88423 3.16832 5.92603C3.15925 5.84035 3.16746 5.75002 3.16746 5.6641C3.16746 5.53033 3.16746 5.39654 3.16746 5.26275C3.16746 5.23218 3.16746 5.2016 3.16746 5.17105C3.16746 5.15138 3.1681 5.13533 3.16882 5.11573C3.1692 5.10532 3.17859 5.01573 3.16845 5.09012C3.17678 5.029 3.19251 4.96916 3.21106 4.91045C3.21413 4.90075 3.24565 4.82012 3.21728 4.88684C3.22739 4.86308 3.23918 4.84007 3.25096 4.81709C3.26268 4.79421 3.27601 4.77218 3.28931 4.75019C3.2961 4.73898 3.35945 4.65077 3.315 4.7079C3.34639 4.66756 3.38192 4.63062 3.41855 4.5951C3.4369 4.57731 3.45645 4.56084 3.47598 4.54439C3.42117 4.59056 3.50545 4.52475 3.51704 4.51711C3.65668 4.42491 3.71564 4.24686 3.62739 4.09623C3.54617 3.95756 3.34662 3.89336 3.20652 3.98588C2.8027 4.2525 2.55225 4.69148 2.55225 5.17899C2.55225 5.40635 2.55225 5.63372 2.55225 5.86108C2.55225 6.24672 2.83214 6.55216 3.2254 6.55216C3.38642 6.55216 3.54743 6.55216 3.70843 6.55216C4.24883 6.55216 4.78924 6.55216 5.32964 6.55216C5.45657 6.55216 5.58349 6.55216 5.71044 6.55216C5.99005 6.55216 6.22015 6.37552 6.32223 6.12216C6.36907 6.0059 6.36248 5.87937 6.36248 5.75664C6.36248 5.55228 6.36464 5.34779 6.36215 5.14345C6.35636 4.66789 6.09436 4.23575 5.69973 3.98048C5.55879 3.88932 5.36069 3.95116 5.27886 4.09084C5.19123 4.24039 5.24871 4.42078 5.38923 4.51167Z" fill="#02101B"/>
</svg>
