<svg width="62" height="68" viewBox="0 0 62 68" fill="none" xmlns="http://www.w3.org/2000/svg">
<path d="M7.25078 64L0.988281 57.75H7.25078V64ZM54.7508 64L61.0133 57.75H54.7508V64Z" fill="#1A6ED0"/>
<path d="M44.75 0.25H9.2375C8.71038 0.25 8.20485 0.459397 7.83213 0.832125C7.4594 1.20485 7.25 1.71038 7.25 2.2375V65.9875C7.24999 66.5158 7.45899 67.0226 7.83136 67.3973C8.20373 67.772 8.70924 67.9842 9.2375 67.9875H52.7625C53.0294 67.986 53.2934 67.931 53.5387 67.8259C53.7841 67.7207 54.0059 67.5675 54.1911 67.3753C54.3764 67.1831 54.5212 66.9558 54.6172 66.7067C54.7132 66.4576 54.7583 66.1918 54.75 65.925V10.25H44.75V0.25Z" fill="#F1F1F1"/>
<path d="M2.25 35.25H59.75C60.0815 35.25 60.3995 35.3817 60.6339 35.6161C60.8683 35.8505 61 36.1685 61 36.5V57.75H1V36.5C1 36.1685 1.1317 35.8505 1.36612 35.6161C1.60054 35.3817 1.91848 35.25 2.25 35.25V35.25Z" fill="#459BFF"/>
<path d="M25.9355 45.8848C25.9355 46.8496 25.75 47.6562 25.3789 48.3047C25.0117 48.9492 24.4785 49.4355 23.7793 49.7637C23.0801 50.0879 22.2383 50.25 21.2539 50.25H18.8281V41.6836H21.5176C22.416 41.6836 23.1953 41.8438 23.8555 42.1641C24.5156 42.4805 25.0273 42.9512 25.3906 43.5762C25.7539 44.1973 25.9355 44.9668 25.9355 45.8848ZM24.0488 45.9316C24.0488 45.2988 23.9551 44.7793 23.7676 44.373C23.584 43.9629 23.3105 43.6602 22.9473 43.4648C22.5879 43.2695 22.1426 43.1719 21.6113 43.1719H20.6445V48.75H21.4238C22.3105 48.75 22.9688 48.5137 23.3984 48.041C23.832 47.5684 24.0488 46.8652 24.0488 45.9316ZM35.4863 45.9551C35.4863 46.6152 35.4043 47.2168 35.2402 47.7598C35.0762 48.2988 34.8262 48.7637 34.4902 49.1543C34.1582 49.5449 33.7363 49.8457 33.2246 50.0566C32.7129 50.2637 32.1074 50.3672 31.4082 50.3672C30.709 50.3672 30.1035 50.2637 29.5918 50.0566C29.0801 49.8457 28.6562 49.5449 28.3203 49.1543C27.9883 48.7637 27.7402 48.2969 27.5762 47.7539C27.4121 47.2109 27.3301 46.6074 27.3301 45.9434C27.3301 45.0566 27.4746 44.2852 27.7637 43.6289C28.0566 42.9688 28.5059 42.457 29.1113 42.0938C29.7168 41.7305 30.4863 41.5488 31.4199 41.5488C32.3496 41.5488 33.1133 41.7305 33.7109 42.0938C34.3125 42.457 34.7578 42.9688 35.0469 43.6289C35.3398 44.2891 35.4863 45.0645 35.4863 45.9551ZM29.2344 45.9551C29.2344 46.5527 29.3086 47.0684 29.457 47.502C29.6094 47.9316 29.8457 48.2637 30.166 48.498C30.4863 48.7285 30.9004 48.8438 31.4082 48.8438C31.9238 48.8438 32.3418 48.7285 32.6621 48.498C32.9824 48.2637 33.2148 47.9316 33.3594 47.502C33.5078 47.0684 33.582 46.5527 33.582 45.9551C33.582 45.0566 33.4141 44.3496 33.0781 43.834C32.7422 43.3184 32.1895 43.0605 31.4199 43.0605C30.9082 43.0605 30.4902 43.1777 30.166 43.4121C29.8457 43.6426 29.6094 43.9746 29.457 44.4082C29.3086 44.8379 29.2344 45.3535 29.2344 45.9551ZM40.9004 43.0723C40.5527 43.0723 40.2441 43.1406 39.9746 43.2773C39.709 43.4102 39.4844 43.6035 39.3008 43.8574C39.1211 44.1113 38.9844 44.418 38.8906 44.7773C38.7969 45.1367 38.75 45.541 38.75 45.9902C38.75 46.5957 38.8242 47.1133 38.9727 47.543C39.125 47.9688 39.3594 48.2949 39.6758 48.5215C39.9922 48.7441 40.4004 48.8555 40.9004 48.8555C41.248 48.8555 41.5957 48.8164 41.9434 48.7383C42.2949 48.6602 42.6758 48.5488 43.0859 48.4043V49.9277C42.707 50.084 42.334 50.1953 41.9668 50.2617C41.5996 50.332 41.1875 50.3672 40.7305 50.3672C39.8477 50.3672 39.1211 50.1855 38.5508 49.8223C37.9844 49.4551 37.5645 48.9434 37.291 48.2871C37.0176 47.627 36.8809 46.8574 36.8809 45.9785C36.8809 45.3301 36.9688 44.7363 37.1445 44.1973C37.3203 43.6582 37.5781 43.1914 37.918 42.7969C38.2578 42.4023 38.6777 42.0977 39.1777 41.8828C39.6777 41.668 40.252 41.5605 40.9004 41.5605C41.3262 41.5605 41.752 41.6152 42.1777 41.7246C42.6074 41.8301 43.0176 41.9766 43.4082 42.1641L42.8223 43.6406C42.502 43.4883 42.1797 43.3555 41.8555 43.2422C41.5312 43.1289 41.2129 43.0723 40.9004 43.0723Z" fill="white"/>
<path d="M38.3333 12L35.5396 22.2857L33.4444 12H28.5556L26.4604 22.2857L23.6667 12H20L24.8889 30H28.5556L31 18.4286L33.4444 30H37.1111L42 12H38.3333Z" fill="#459BFF"/>
</svg>
