<svg width="15" height="18" viewBox="0 0 15 18" fill="none" xmlns="http://www.w3.org/2000/svg">
<path d="M11.2577 5.01759H4.53939C4.40601 5.01759 4.2998 4.90287 4.2998 4.75879C4.2998 4.61472 4.40601 4.5 4.53939 4.5H11.2602C11.3936 4.5 11.4998 4.61472 11.4998 4.75879C11.4973 4.9002 11.3911 5.01759 11.2577 5.01759ZM11.2577 7.54417H4.53939C4.40601 7.54417 4.2998 7.42945 4.2998 7.28538C4.2998 7.1413 4.40601 7.02658 4.53939 7.02658H11.2602C11.3936 7.02658 11.4998 7.1413 11.4998 7.28538C11.4973 7.42945 11.3911 7.54417 11.2577 7.54417ZM11.2577 10.0734H4.53939C4.40601 10.0734 4.2998 9.9587 4.2998 9.81462C4.2998 9.67055 4.40601 9.55583 4.53939 9.55583H11.2602C11.3936 9.55583 11.4998 9.67055 11.4998 9.81462C11.4973 9.95603 11.3911 10.0734 11.2577 10.0734ZM11.2577 12.6H4.53939C4.40601 12.6 4.2998 12.4853 4.2998 12.3412C4.2998 12.1971 4.40601 12.0824 4.53939 12.0824H11.2602C11.3936 12.0824 11.4998 12.1971 11.4998 12.3412C11.4973 12.4853 11.3911 12.6 11.2577 12.6Z" fill="#02101B"/>
<path d="M13.9477 15.2999H2.75226C2.61182 15.2999 2.5 15.1882 2.5 15.0479V1.15194C2.5 1.01163 2.61182 0.899902 2.75226 0.899902H11.7164C11.7841 0.899902 11.8465 0.925886 11.8959 0.972656L14.1272 3.20203C14.174 3.2488 14.2 3.31376 14.2 3.38132V15.0479C14.2 15.1856 14.0856 15.2999 13.9477 15.2999ZM3.00451 14.7958H13.6955V3.48525L11.6124 1.40398H3.00451V14.7958Z" fill="#02101B"/>
<path d="M13.951 3.5999H11.749C11.6104 3.5999 11.5 3.48954 11.5 3.35095V1.14886C11.5 1.01026 11.6104 0.899902 11.749 0.899902C11.8875 0.899902 11.9979 1.01026 11.9979 1.14886V3.10199H13.951C14.0896 3.10199 14.2 3.21235 14.2 3.35095C14.2 3.48697 14.0871 3.5999 13.951 3.5999Z" fill="#02101B"/>
<path d="M11.3613 17.1H0.464281C0.327594 17.1 0.21875 16.9911 0.21875 16.8544V3.31731C0.21875 3.18062 0.327594 3.07178 0.464281 3.07178H2.63862C2.77531 3.07178 2.88416 3.18062 2.88416 3.31731C2.88416 3.454 2.77531 3.56284 2.63862 3.56284H0.709812V16.6089H11.1158V14.6826C11.1158 14.5459 11.2246 14.4371 11.3613 14.4371C11.498 14.4371 11.6068 14.5459 11.6068 14.6826V16.8544C11.6068 16.9911 11.498 17.1 11.3613 17.1Z" fill="#02101B"/>
</svg>
