<svg width="70" height="70" viewBox="0 0 70 70" fill="none" xmlns="http://www.w3.org/2000/svg">
<g clip-path="url(#clip0_2271_1504)">
<path d="M11.664 68.8875C11.2822 68.9432 10.8929 68.8646 10.5626 68.6651C10.2324 68.4656 9.98165 68.1576 9.85327 67.7938C9.4413 67.7524 9.03951 67.6405 8.66546 67.4629L8.69335 67.6494C8.7463 68.0076 8.86937 68.3517 9.05551 68.6622C9.24165 68.9728 9.48721 69.2435 9.77813 69.459C10.069 69.6745 10.3996 69.8305 10.7509 69.918C11.1022 70.0056 11.4673 70.023 11.8253 69.9693L26.2907 67.8124H18.8751L11.664 68.8875ZM0.0308531 9.69816L6.56273 53.3984V45.9992L1.11257 9.53684C1.04782 9.10051 1.15871 8.65631 1.42094 8.30161C1.68317 7.94691 2.07534 7.71066 2.51148 7.64465L6.56273 7.03981V5.93402L2.35015 6.56238C1.62722 6.6716 0.977091 7.06304 0.542322 7.65087C0.107552 8.23869 -0.0763803 8.97493 0.0308531 9.69816ZM48.1936 2.51168L48.828 6.75707L50.0967 7.84645L49.2759 2.35035C49.1671 1.62789 48.7764 0.978001 48.1893 0.543144C47.6022 0.108287 46.8667 -0.076061 46.1439 0.0305091L31.6856 2.18684H39.1012L46.3052 1.11223C46.7411 1.04799 47.1847 1.15923 47.5387 1.42158C47.8927 1.68392 48.1282 2.07595 48.1936 2.51168ZM53.0805 52.3232C55.5393 49.2793 56.8789 45.4836 56.8752 41.5706C56.8856 39.389 56.4629 37.227 55.6315 35.21C54.8002 33.193 53.5767 31.3611 52.0321 29.8204C45.4887 23.2836 34.7355 23.3946 28.0582 30.066C26.4448 31.6617 25.1642 33.5619 24.2906 35.6562C23.417 37.7506 22.9677 39.9975 22.969 42.2668C22.9604 44.4485 23.3842 46.6104 24.2159 48.6274C25.0477 50.6444 26.2708 52.4767 27.8146 54.0183C29.3585 55.5599 31.1925 56.7804 33.2108 57.6092C35.229 58.438 37.3915 58.8586 39.5732 58.8469C41.8426 58.8454 44.0895 58.3962 46.1852 57.5252C48.2808 56.6542 50.1841 55.3784 51.786 53.7708C51.9865 53.571 52.181 53.3672 52.3695 53.1594L69.0667 69.8397C69.1699 69.9393 69.308 69.9944 69.4514 69.9931C69.5948 69.9919 69.7319 69.9344 69.8333 69.833C69.9347 69.7316 69.9922 69.5944 69.9935 69.451C69.9947 69.3076 69.9396 69.1695 69.84 69.0664L53.0805 52.3232ZM51.0133 52.9975C44.7614 59.2412 34.7005 59.3522 28.5859 53.2425C27.1433 51.8033 26.0007 50.0921 25.2243 48.208C24.4478 46.3239 24.053 44.3045 24.0627 42.2668C24.0828 37.9764 25.7976 33.8679 28.8336 30.8364C31.8696 27.8049 35.9807 26.0962 40.271 26.0825C42.3092 26.071 44.3294 26.4635 46.215 27.2374C48.1005 28.0113 49.814 29.1513 51.2563 30.5915C52.6985 32.0317 53.8411 33.7434 54.6178 35.6278C55.3945 37.5122 55.79 39.5319 55.7815 41.57C55.7823 43.6956 55.3612 45.8002 54.5426 47.7618C53.724 49.7234 52.5242 51.5031 51.0127 52.9975H51.0133Z" fill="#C1C1C1"/>
<path d="M40.0176 48.3447C39.6743 48.3449 39.3315 48.3695 38.9917 48.4186C38.9425 48.7679 38.918 49.1202 38.9184 49.4729C38.9186 49.8175 38.9431 50.1616 38.9917 50.5027C39.3395 50.5521 39.6904 50.5766 40.0417 50.576C40.385 50.576 40.7278 50.5516 41.0676 50.5027C41.117 50.1534 41.1415 49.8011 41.1409 49.4483C41.141 49.1038 41.1165 48.7596 41.0676 48.4186C40.7198 48.369 40.3689 48.3443 40.0176 48.3447ZM43.8031 34.1479C42.826 33.2812 41.385 32.8479 39.48 32.8479C38.8304 32.8436 38.1814 32.8888 37.5386 32.983C36.88 33.0927 36.2308 33.2527 35.5967 33.4615C35.6783 33.7558 35.7516 34.0172 35.8165 34.2458C35.883 34.4797 35.9645 34.7091 36.0604 34.9326C36.5001 34.7853 36.948 34.6545 37.4041 34.54C38.0059 34.4111 38.6208 34.3536 39.2361 34.3688C40.3177 34.3195 41.3869 34.6158 42.2888 35.2148C42.6786 35.5024 42.9901 35.8831 43.1949 36.322C43.3997 36.761 43.4913 37.2442 43.4613 37.7277C43.4716 38.219 43.3669 38.7059 43.1556 39.1496C42.9579 39.5502 42.6841 39.9085 42.3495 40.2045C42.0101 40.5027 41.6323 40.7541 41.2262 40.9521C40.8281 41.1498 40.4159 41.3178 39.993 41.4547L39.1623 41.7243V45.5251C39.2761 45.5415 39.4064 45.5537 39.5533 45.5617C39.83 45.5779 40.1074 45.5779 40.384 45.5617C40.5302 45.5537 40.6766 45.5415 40.8232 45.5251V42.7792C41.22 42.6499 41.6077 42.4941 41.9836 42.3127C42.5144 42.0623 43.011 41.7451 43.4613 41.3688C43.9718 40.9417 44.4018 40.4269 44.7311 39.8485C45.1016 39.1864 45.2871 38.4369 45.2682 37.6785C45.2994 37.0182 45.1842 36.3593 44.9308 35.7488C44.6774 35.1383 44.2921 34.5914 43.8025 34.1473L43.8031 34.1479Z" fill="#C1C1C1"/>
<path d="M56.8755 64.1605C56.8753 64.5485 56.7213 64.9206 56.4472 65.1951C56.173 65.4697 55.8011 65.6243 55.4131 65.625H10.2123C9.82425 65.6244 9.4523 65.4699 9.17812 65.1953C8.90394 64.9207 8.74994 64.5485 8.74994 64.1605V5.83953C8.74994 5.45149 8.90394 5.07931 9.17812 4.80472C9.4523 4.53013 9.82425 4.37558 10.2123 4.375H42.1498C42.5312 4.37755 42.8968 4.52817 43.1693 4.79508C43.4418 5.06198 43.6 5.42431 43.6105 5.80563L43.774 12.9916C43.7882 13.6469 44.0536 14.2716 44.5154 14.7368C44.9772 15.2019 45.6 15.4719 46.2552 15.4908L55.4553 15.7571C55.8364 15.7664 56.1987 15.9249 56.4642 16.1984C56.7298 16.4719 56.8775 16.8388 56.8755 17.22V35.4009C57.6013 37.3768 57.9714 39.4657 57.9687 41.5707C57.9706 43.6949 57.6006 45.803 56.8755 47.7996V54.5694L57.9692 55.662V17.22C57.9695 16.8467 57.8874 16.4779 57.7288 16.14C57.5702 15.802 57.3389 15.5032 57.0516 15.2649C57.0445 15.2584 57.0412 15.2485 57.0335 15.242L43.8899 3.95992C43.8645 3.94261 43.8376 3.9276 43.8096 3.91508C43.3509 3.5101 42.7611 3.28493 42.1492 3.28125H10.2117C9.53394 3.28255 8.88433 3.55261 8.40536 4.03219C7.92639 4.51177 7.65717 5.16173 7.65674 5.83953V64.1605C7.65717 64.8384 7.92647 65.4884 8.40555 65.968C8.88464 66.4476 9.53439 66.7176 10.2123 66.7188H55.4131C56.0911 66.7177 56.741 66.4478 57.2202 65.9682C57.6994 65.4886 57.9688 64.8385 57.9692 64.1605V60.2995L56.8755 59.2069V64.1605ZM54.6519 14.6388L46.2869 14.397C45.9121 14.3863 45.5558 14.2319 45.2916 13.9659C45.0275 13.6998 44.8757 13.3423 44.8678 12.9675L44.7119 6.10695L54.6519 14.6388Z" fill="#C1C1C1"/>
</g>
<defs>
<clipPath id="clip0_2271_1504">
<rect width="70" height="70" fill="white"/>
</clipPath>
</defs>
</svg>
