<svg width="4" height="14" viewBox="0 0 4 14" fill="none" xmlns="http://www.w3.org/2000/svg">
<path d="M2.00004 7.66797C2.36823 7.66797 2.66671 7.36949 2.66671 7.0013C2.66671 6.63311 2.36823 6.33464 2.00004 6.33464C1.63185 6.33464 1.33337 6.63311 1.33337 7.0013C1.33337 7.36949 1.63185 7.66797 2.00004 7.66797Z" stroke="#02101B" stroke-width="2" stroke-linecap="round" stroke-linejoin="round"/>
<path d="M2.00004 3.0013C2.36823 3.0013 2.66671 2.70283 2.66671 2.33464C2.66671 1.96645 2.36823 1.66797 2.00004 1.66797C1.63185 1.66797 1.33337 1.96645 1.33337 2.33464C1.33337 2.70283 1.63185 3.0013 2.00004 3.0013Z" stroke="#02101B" stroke-width="2" stroke-linecap="round" stroke-linejoin="round"/>
<path d="M2.00004 12.3346C2.36823 12.3346 2.66671 12.0362 2.66671 11.668C2.66671 11.2998 2.36823 11.0013 2.00004 11.0013C1.63185 11.0013 1.33337 11.2998 1.33337 11.668C1.33337 12.0362 1.63185 12.3346 2.00004 12.3346Z" stroke="#02101B" stroke-width="2" stroke-linecap="round" stroke-linejoin="round"/>
</svg>
