<svg width="30" height="30" viewBox="0 0 30 30" fill="none" xmlns="http://www.w3.org/2000/svg">
<rect x="0.5" y="0.5" width="29" height="29" rx="4.5" stroke="#435BAA"/>
<g clip-path="url(#clip0_4559_1484)">
<path d="M10.3975 16.4268V17.9814C10.3975 18.1246 10.51 18.2371 10.6531 18.2371H12.2077C12.2742 18.2371 12.3406 18.2115 12.3867 18.1604L17.9708 12.5814L16.0531 10.6638L10.4742 16.2428C10.423 16.2939 10.3975 16.3553 10.3975 16.4268ZM19.4537 11.0984C19.6531 10.899 19.6531 10.5768 19.4537 10.3774L18.2571 9.18082C18.0577 8.98139 17.7355 8.98139 17.5361 9.18082L16.6003 10.1166L18.5179 12.0342L19.4537 11.0984Z" fill="#435BAA"/>
<path d="M10.0563 19.0898H19.2608C19.3965 19.0898 19.5265 19.1617 19.6224 19.2895C19.7183 19.4174 19.7722 19.5908 19.7722 19.7717C19.7722 19.9525 19.7183 20.1259 19.6224 20.2538C19.5265 20.3816 19.3965 20.4535 19.2608 20.4535H10.0563C9.92066 20.4535 9.7906 20.3816 9.6947 20.2538C9.5988 20.1259 9.54492 19.9525 9.54492 19.7717C9.54492 19.5908 9.5988 19.4174 9.6947 19.2895C9.7906 19.1617 9.92066 19.0898 10.0563 19.0898Z" fill="#435BAA"/>
</g>
<defs>
<clipPath id="clip0_4559_1484">
<rect width="12.2727" height="12.2727" fill="white" transform="translate(8.86328 8.17969)"/>
</clipPath>
</defs>
</svg>
