<svg width="35" height="35" viewBox="0 0 35 35" fill="none" xmlns="http://www.w3.org/2000/svg">
<rect width="35" height="35" rx="5" fill="white"/>
<g clip-path="url(#clip0_8211_9485)">
<path d="M24.3438 13.875L23.75 13.2812L18.25 18.7812C17.5625 19.4688 16.4062 19.4688 15.7188 18.7812L10.2188 13.3125L9.625 13.9062L13.7188 18L9.625 22.0938L10.2188 22.6875L14.3125 18.5938L15.125 19.4062C15.625 19.9062 16.2812 20.1875 16.9688 20.1875C17.6562 20.1875 18.3125 19.9062 18.8125 19.4062L19.625 18.5938L23.7188 22.6875L24.3125 22.0938L20.2188 18L24.3438 13.875Z" fill="#F55943"/>
<path d="M24.9886 25.5H9.01135C8.08103 25.5 7.3125 24.7213 7.3125 23.7787V12.2213C7.3125 11.2787 8.08103 10.5 9.01135 10.5H24.9886C25.919 10.5 26.6875 11.2787 26.6875 12.2213V23.7787C26.6875 24.7213 25.919 25.5 24.9886 25.5ZM8.9709 11.6066C8.64731 11.6066 8.40462 11.8525 8.40462 12.1803V23.7377C8.40462 24.0656 8.64731 24.3115 8.9709 24.3115H24.9482C25.2718 24.3115 25.5145 24.0656 25.5145 23.7377V12.1803C25.5145 11.8525 25.2718 11.6066 24.9482 11.6066H8.9709Z" fill="#F55943"/>
</g>
<defs>
<clipPath id="clip0_8211_9485">
<rect width="20" height="20" fill="white" transform="translate(7.5 7.5)"/>
</clipPath>
</defs>
</svg>
