<svg width="18" height="18" viewBox="0 0 18 18" fill="none" xmlns="http://www.w3.org/2000/svg">
<path d="M16.4723 13.4047L12.5073 9.44946C12.4554 9.39765 12.385 9.36855 12.3117 9.36855C12.2383 9.36854 12.168 9.39763 12.116 9.44943L11.6473 9.91691L10.9666 9.23731L13.2714 6.9307C14.3214 7.20136 15.385 6.91838 16.1454 6.15742C16.9132 5.38899 17.2306 4.26091 16.9736 3.21341C16.9232 3.00776 16.6584 2.9334 16.5085 3.08353L15.0326 4.56061L13.4033 2.92998L14.8795 1.45265C15.0293 1.30263 14.9551 1.03813 14.7496 0.987664C13.7028 0.730436 12.5754 1.0481 11.8075 1.81664C11.0346 2.59009 10.7634 3.64274 11.0648 4.66307L9.36483 6.36487C9.31408 6.41712 9.28593 6.48724 9.28647 6.56008C9.28702 6.63291 9.31621 6.70261 9.36774 6.75409C9.41927 6.80557 9.48899 6.83469 9.56183 6.83517C9.63466 6.83564 9.70476 6.80742 9.75695 6.75662L11.577 4.93453C11.6141 4.89735 11.6399 4.85039 11.6514 4.79912C11.6628 4.74784 11.6595 4.69437 11.6417 4.64493C11.3308 3.77993 11.5394 2.86912 12.1995 2.20845C12.7042 1.70334 13.3976 1.43417 14.0937 1.45504L12.8156 2.73412C12.7636 2.7861 12.7345 2.85656 12.7345 2.93003C12.7345 3.00349 12.7636 3.07395 12.8156 3.12593L14.8366 5.14859C14.9673 5.2569 15.098 5.2569 15.2287 5.14859L16.5062 3.86989C16.5263 4.56708 16.258 5.26054 15.7533 5.76561C15.0924 6.42711 14.1885 6.64197 13.2735 6.35508C13.2251 6.33994 13.1736 6.33833 13.1244 6.35041C13.0752 6.36249 13.0303 6.38781 12.9945 6.42362L10.5744 8.8457L5.43039 3.70969L5.68031 3.46035C5.80385 3.29839 5.78613 3.15373 5.62707 3.02645L3.24145 1.59686C3.18852 1.56514 3.12651 1.55199 3.06526 1.55951C3.00401 1.56703 2.94702 1.59478 2.90333 1.63837L1.62835 2.91021C1.58449 2.95395 1.55655 3.01112 1.54899 3.0726C1.54143 3.13407 1.55469 3.19631 1.58663 3.24937L3.01967 5.62919C3.14675 5.78759 3.29109 5.80532 3.45275 5.68243L3.70353 5.43226L7.00358 8.72725L4.71991 11.0127C3.62617 10.7674 2.57539 11.0559 1.81579 11.8161C1.04795 12.5845 0.730598 13.7126 0.987582 14.7601C1.03805 14.9658 1.30268 15.04 1.45271 14.89L2.92857 13.4129L4.55791 15.0435L3.08174 16.5208C2.93189 16.6708 3.00607 16.9354 3.21161 16.9858C4.25426 17.242 5.39615 16.915 6.15367 16.1569C6.91403 15.3959 7.19674 14.3314 6.92608 13.2808L8.45289 11.7522C8.50319 11.6998 8.53094 11.6299 8.5302 11.5573C8.52946 11.4847 8.50028 11.4153 8.44893 11.364C8.39757 11.3127 8.32815 11.2836 8.25557 11.2829C8.18299 11.2823 8.11304 11.3101 8.06077 11.3605L6.41893 13.0043C6.38319 13.0401 6.35792 13.085 6.34587 13.1341C6.33382 13.1832 6.33544 13.2347 6.35057 13.283C6.63739 14.1987 6.42274 15.1035 5.76162 15.7651C5.25693 16.2702 4.56331 16.5385 3.86751 16.5185L5.14564 15.2394C5.19755 15.1875 5.22671 15.117 5.22671 15.0435C5.22671 14.9701 5.19755 14.8996 5.14564 14.8476L3.12459 12.825C2.99392 12.7167 2.86325 12.7167 2.73257 12.825L1.45496 14.1036C1.43485 13.4064 1.70311 12.713 2.20784 12.2079C2.85968 11.5555 3.77996 11.329 4.73303 11.5868C4.7801 11.5995 4.8297 11.5996 4.87682 11.587C4.92394 11.5745 4.9669 11.5497 5.00136 11.5151L7.39581 9.11885L9.92006 11.6392L9.43185 12.1261C9.32326 12.2569 9.32326 12.3877 9.43181 12.5185L13.3975 16.4746C14.2331 17.3081 15.636 17.3085 16.472 16.4749C17.309 15.6402 17.3093 14.2398 16.4723 13.4047ZM3.89942 4.8447C3.76896 4.7367 3.63846 4.73666 3.50796 4.8446L3.3119 5.04017L2.17336 3.14933L3.14183 2.18325L5.03723 3.31905L4.84245 3.51335C4.73393 3.64409 4.73389 3.77487 4.84234 3.90565L11.2547 10.3081L10.3125 11.2479L3.89942 4.8447ZM13.7889 16.0822L10.0199 12.3224L12.3116 10.0371L16.0809 13.7971C16.8616 14.7047 16.5783 15.5509 16.0963 16.0566C15.5831 16.595 14.7674 16.8508 13.7889 16.0822Z" fill="black"/>
<path d="M14.8255 15.224L11.7798 12.175C11.7285 12.1225 11.6999 12.0518 11.7002 11.9783C11.7005 11.9048 11.7297 11.8343 11.7814 11.7823C11.8332 11.7302 11.9033 11.7007 11.9765 11.7002C12.0498 11.6997 12.1203 11.7282 12.1728 11.7796L15.2184 14.8286C15.2707 14.8809 15.3001 14.9519 15.3002 15.026C15.3003 15.1 15.2711 15.1711 15.219 15.2235C15.1646 15.2782 15.0088 15.3643 14.8255 15.224Z" fill="black"/>
</svg>
