<svg width="16" height="16" viewBox="0 0 16 16" fill="none" xmlns="http://www.w3.org/2000/svg">
<path d="M12.963 3H6.44444C6.19911 3 6 3.20677 6 3.46154V9.92308C6 10.5169 6.46519 11 7.03704 11H12.963C13.5348 11 14 10.5169 14 9.92308V4.07692C14 3.48308 13.5348 3 12.963 3Z" fill="#300B03"/>
<path d="M8.92308 1H2.46154C2.20677 1 2 1.20677 2 1.46154V8.53846C2 8.79323 2.20677 9 2.46154 9H8.92308C9.51692 9 10 8.51692 10 7.92308V2.07692C10 1.48308 9.51692 1 8.92308 1Z" fill="#A92C10"/>
<path d="M2.5 15C2.2235 15 2 14.7387 2 14.4167V1.58333C2 1.26133 2.2235 1 2.5 1C2.7765 1 3 1.26133 3 1.58333V14.4167C3 14.7387 2.7765 15 2.5 15Z" fill="#A92C10"/>
</svg>
