<svg width="12" height="19" viewBox="0 0 12 19" fill="none" xmlns="http://www.w3.org/2000/svg">
<path d="M11.6673 18.9842C11.8513 18.9842 12.0007 18.8352 12.0007 18.6508V3.31658C12.0007 3.30929 11.997 3.30289 11.9964 3.2956C11.9944 3.26628 11.9886 3.23786 11.9794 3.20988C11.9757 3.19916 11.973 3.1886 11.9681 3.17818C11.9517 3.14291 11.9315 3.10913 11.9028 3.08056L9.23596 0.413732C9.20723 0.38501 9.17331 0.364323 9.13789 0.348402C9.12821 0.344086 9.11824 0.34111 9.10782 0.337687C9.0788 0.327716 9.04949 0.321615 9.01883 0.319978C9.01288 0.31968 9.00723 0.316406 9.00053 0.316406H0.333353C0.149414 0.316406 0 0.465375 0 0.649759V18.6508C0 18.8352 0.149414 18.9842 0.333353 18.9842L11.6673 18.9842ZM10.8627 2.98323H9.33388V1.45441L10.8627 2.98323ZM0.666663 0.98311H8.66713V3.31658C8.66713 3.50097 8.81655 3.64993 9.00049 3.64993H11.334V18.3175H0.666663V0.98311Z" fill="#5370D1"/>
<path d="M10.3345 8.31641H1.66734C1.4834 8.31641 1.33398 8.46538 1.33398 8.64976C1.33398 8.83414 1.4834 8.98311 1.66734 8.98311H10.3345C10.5185 8.98311 10.6679 8.83414 10.6679 8.64976C10.6679 8.46538 10.5185 8.31641 10.3345 8.31641Z" fill="#5370D1"/>
<path d="M10.3345 10.3164H1.66734C1.4834 10.3164 1.33398 10.4654 1.33398 10.6498C1.33398 10.8341 1.4834 10.9831 1.66734 10.9831H10.3345C10.5185 10.9831 10.6679 10.8341 10.6679 10.6498C10.6679 10.4655 10.5185 10.3164 10.3345 10.3164Z" fill="#5370D1"/>
<path d="M10.3335 12.3184H1.66636C1.48242 12.3184 1.33301 12.4673 1.33301 12.6517C1.33301 12.8361 1.48242 12.9851 1.66636 12.9851H10.3335C10.5175 12.9851 10.6669 12.8361 10.6669 12.6517C10.6669 12.4675 10.5175 12.3184 10.3335 12.3184Z" fill="#5370D1"/>
<path d="M1.66636 6.98311H5.6666C5.85053 6.98311 5.99995 6.83414 5.99995 6.64976C5.99995 6.46538 5.85053 6.31641 5.6666 6.31641H1.66636C1.48242 6.31641 1.33301 6.46538 1.33301 6.64976C1.33301 6.83399 1.48242 6.98311 1.66636 6.98311Z" fill="#5370D1"/>
</svg>
