<svg width="18" height="16" viewBox="0 0 18 16" fill="none" xmlns="http://www.w3.org/2000/svg">
<path d="M8.29305 10.7587C8.24944 10.7587 8.20582 10.7571 8.16162 10.7538C8.13183 10.7519 7.38492 10.6932 6.93495 9.99541C6.89017 9.92595 6.87483 9.84155 6.89228 9.76078C6.90974 9.68001 6.95856 9.60948 7.02802 9.56471C7.09747 9.51994 7.18187 9.50459 7.26264 9.52204C7.34341 9.5395 7.41395 9.58832 7.45872 9.65778C7.73657 10.0889 8.20115 10.1321 8.20582 10.1323C8.83493 10.1786 9.38324 9.70977 9.42938 9.08728C9.44072 8.93893 9.42235 8.78981 9.37534 8.64866C9.32833 8.5075 9.25364 8.37714 9.15562 8.26521C9.05796 8.1524 8.93904 8.05995 8.80563 7.99313C8.67223 7.92631 8.52696 7.88644 8.37814 7.87579H8.37464C8.14392 7.85949 7.91869 7.79778 7.71189 7.6942C7.50509 7.59061 7.32079 7.4472 7.16957 7.27219C7.01761 7.09837 6.90183 6.89601 6.82898 6.67693C6.75613 6.45785 6.72768 6.22645 6.7453 5.99625C6.81715 5.03185 7.66433 4.30499 8.63399 4.37587C8.66398 4.37801 9.4105 4.43662 9.86067 5.13524C9.88387 5.16959 9.89998 5.20824 9.90806 5.2489C9.91613 5.28956 9.91601 5.33143 9.9077 5.37204C9.89939 5.41266 9.88306 5.45121 9.85966 5.48543C9.83626 5.51965 9.80627 5.54886 9.77144 5.57134C9.73661 5.59382 9.69764 5.60913 9.65682 5.61636C9.61599 5.62359 9.57414 5.6226 9.53371 5.61344C9.49327 5.60429 9.45507 5.58716 9.42134 5.56305C9.38762 5.53895 9.35904 5.50835 9.33728 5.47306C9.25384 5.34465 9.14367 5.23574 9.0143 5.15379C8.88493 5.07183 8.7394 5.01875 8.58765 4.99816C7.9599 4.95318 7.41257 5.42205 7.36642 6.04356C7.35504 6.19167 7.37328 6.34057 7.42008 6.48155C7.46688 6.62253 7.54131 6.75277 7.63902 6.86466C7.83636 7.09232 8.11599 7.23238 8.4165 7.25408H8.41981C8.65061 7.27026 8.87593 7.33192 9.08281 7.43551C9.28969 7.5391 9.47404 7.68257 9.62526 7.85768C9.77751 8.03133 9.89361 8.23359 9.96676 8.45264C10.0399 8.6717 10.0686 8.90314 10.0513 9.13342C9.98255 10.0544 9.20722 10.7587 8.29305 10.7587Z" fill="#02101B"/>
<path d="M8.39845 5.00257C8.31583 5.00257 8.23659 4.96975 8.17816 4.91132C8.11974 4.8529 8.08691 4.77366 8.08691 4.69103V3.80763C8.08691 3.72501 8.11974 3.64577 8.17816 3.58734C8.23659 3.52892 8.31583 3.49609 8.39845 3.49609C8.48108 3.49609 8.56032 3.52892 8.61874 3.58734C8.67716 3.64577 8.70999 3.72501 8.70999 3.80763V4.69103C8.70999 4.77366 8.67716 4.8529 8.61874 4.91132C8.56032 4.96975 8.48108 5.00257 8.39845 5.00257ZM8.39845 11.633C8.31583 11.633 8.23659 11.6002 8.17816 11.5418C8.11974 11.4834 8.08691 11.4041 8.08691 11.3215V10.4379C8.08691 10.3553 8.11974 10.276 8.17816 10.2176C8.23659 10.1592 8.31583 10.1264 8.39845 10.1264C8.48108 10.1264 8.56032 10.1592 8.61874 10.2176C8.67716 10.276 8.70999 10.3553 8.70999 10.4379V11.3215C8.70999 11.4041 8.67716 11.4834 8.61874 11.5418C8.56032 11.6002 8.48108 11.633 8.39845 11.633Z" fill="#02101B"/>
<path d="M8.3982 15.063C6.40953 15.063 4.50231 14.273 3.0961 12.8668C1.6899 11.4606 0.899902 9.55339 0.899902 7.56471C0.899902 5.57604 1.6899 3.66882 3.0961 2.26261C4.50231 0.856407 6.40953 0.06641 8.3982 0.06641C9.44728 0.0653556 10.4848 0.284969 11.4435 0.710988C12.4022 1.13701 13.2606 1.75991 13.9628 2.53923C14.0182 2.60053 14.047 2.68133 14.0429 2.76385C14.0387 2.84638 14.0019 2.92387 13.9406 2.97928C13.8793 3.03469 13.7985 3.06348 13.716 3.05932C13.6335 3.05516 13.556 3.01838 13.5006 2.95708C12.8555 2.24421 12.0683 1.67425 11.1898 1.28385C10.3112 0.893447 9.3606 0.69125 8.39918 0.690263C4.60719 0.689484 1.52298 3.7737 1.52298 7.56471C1.52298 11.3557 4.60719 14.4399 8.3982 14.4399C10.0337 14.44 11.6157 13.857 12.86 12.7956C12.891 12.768 12.9272 12.7468 12.9664 12.7334C13.0057 12.72 13.0472 12.7145 13.0886 12.7173C13.13 12.7202 13.1705 12.7313 13.2075 12.7499C13.2446 12.7686 13.2775 12.7945 13.3044 12.8261C13.3314 12.8577 13.3517 12.8943 13.3643 12.9339C13.3768 12.9734 13.3813 13.0151 13.3776 13.0564C13.3738 13.0977 13.3618 13.1379 13.3423 13.1745C13.3228 13.2112 13.2962 13.2435 13.264 13.2697C11.9083 14.4294 10.1823 15.0655 8.3982 15.063Z" fill="#02101B"/>
<path d="M8.39838 13.2857C7.53181 13.2854 6.67665 13.0881 5.8975 12.7088C5.11834 12.3295 4.43557 11.7781 3.90075 11.0963C3.36594 10.4144 2.99306 9.61998 2.81029 8.77291C2.62752 7.92583 2.63964 7.0483 2.84572 6.20659C3.05181 5.36489 3.44648 4.58102 3.99992 3.9142C4.55336 3.24738 5.25109 2.71505 6.04042 2.35742C6.82975 1.99978 7.69003 1.8262 8.55627 1.84977C9.42252 1.87335 10.2721 2.09347 11.0408 2.49351C11.8284 2.90589 12.51 3.49478 13.0323 4.21417C13.0563 4.24729 13.0736 4.28482 13.0831 4.32462C13.0926 4.36441 13.0941 4.40568 13.0877 4.44608C13.0812 4.48649 13.0669 4.52522 13.0455 4.56008C13.0241 4.59494 12.996 4.62524 12.9629 4.64925C12.9298 4.67326 12.8922 4.69051 12.8524 4.70001C12.8126 4.70952 12.7714 4.7111 12.731 4.70465C12.6906 4.6982 12.6518 4.68386 12.617 4.66245C12.5821 4.64103 12.5518 4.61296 12.5278 4.57983C12.0543 3.92787 11.4334 3.397 10.7158 3.03049C9.9982 2.66397 9.20416 2.47218 8.39838 2.47073C5.58851 2.47073 3.30241 4.75683 3.30241 7.56669C3.30241 10.3766 5.58851 12.6627 8.39838 12.6627C10.1969 12.6627 11.8812 11.6985 12.794 10.1464C12.8359 10.0752 12.9044 10.0235 12.9844 10.0028C13.0644 9.98202 13.1493 9.99391 13.2206 10.0358C13.2918 10.0777 13.3435 10.1462 13.3642 10.2262C13.385 10.3062 13.3731 10.3912 13.3312 10.4624C12.8265 11.3223 12.1058 12.0353 11.2405 12.5305C10.3752 13.0258 9.39539 13.2861 8.39838 13.2857Z" fill="#02101B"/>
<path d="M15.3266 15.0652H13.0626C12.9799 15.0652 12.9007 15.0324 12.8423 14.974C12.7838 14.9156 12.751 14.8363 12.751 14.7537V6.75266H11.6007C11.546 6.75268 11.4922 6.73829 11.4449 6.71095C11.3975 6.68361 11.3582 6.64429 11.3308 6.59693C11.3035 6.54956 11.2891 6.49584 11.2891 6.44115C11.2891 6.38645 11.3035 6.33272 11.3308 6.28536L13.9247 1.79261C13.9521 1.74522 13.9914 1.70586 14.0388 1.67849C14.0861 1.65113 14.1399 1.63672 14.1946 1.63672C14.2493 1.63672 14.3031 1.65113 14.3504 1.67849C14.3978 1.70586 14.4371 1.74522 14.4645 1.79261L17.0584 6.28536C17.0858 6.33272 17.1001 6.38645 17.1001 6.44115C17.1001 6.49584 17.0857 6.54956 17.0584 6.59693C17.031 6.64429 16.9917 6.68361 16.9443 6.71095C16.897 6.73829 16.8432 6.75268 16.7885 6.75266H15.6382V14.7537C15.6382 14.8363 15.6054 14.9156 15.5469 14.974C15.4885 15.0324 15.4093 15.0652 15.3266 15.0652ZM13.3741 14.4422H15.0151V6.44113C15.0151 6.3585 15.0479 6.27926 15.1064 6.22084C15.1648 6.16241 15.244 6.12959 15.3266 6.12959H16.249L14.1946 2.57145L12.1402 6.12959H13.0626C13.1452 6.12959 13.2244 6.16241 13.2828 6.22084C13.3413 6.27926 13.3741 6.3585 13.3741 6.44113V14.4422Z" fill="#02101B"/>
</svg>
