<svg width="18" height="18" viewBox="0 0 18 18" fill="none" xmlns="http://www.w3.org/2000/svg">
<path d="M5.34375 12.6563C5.26916 12.6563 5.19762 12.6859 5.14488 12.7386C5.09213 12.7914 5.0625 12.8629 5.0625 12.9375V14.3438C5.0625 14.7167 5.21066 15.0744 5.47438 15.3381C5.7381 15.6018 6.09579 15.75 6.46875 15.75C6.84171 15.75 7.1994 15.6018 7.46312 15.3381C7.72684 15.0744 7.875 14.7167 7.875 14.3438V12.9375C7.875 12.8629 7.84537 12.7914 7.79262 12.7386C7.73988 12.6859 7.66834 12.6563 7.59375 12.6563C7.51916 12.6563 7.44762 12.6266 7.39488 12.5739C7.34213 12.5211 7.3125 12.4496 7.3125 12.375C7.3125 12.3004 7.34213 12.2289 7.39488 12.1761C7.44762 12.1234 7.51916 12.0938 7.59375 12.0938C7.66834 12.0938 7.73988 12.0641 7.79262 12.0114C7.84537 11.9586 7.875 11.8871 7.875 11.8125V10.9688C7.875 10.8942 7.84537 10.8226 7.79262 10.7699C7.73988 10.7171 7.66834 10.6875 7.59375 10.6875H7.3125V7.875C7.31194 7.8445 7.3072 7.81422 7.29844 7.785L7.01719 6.94125C6.99832 6.88539 6.96237 6.83687 6.91443 6.80255C6.86648 6.76823 6.80896 6.74985 6.75 6.75H6.1875C6.12854 6.74985 6.07102 6.76823 6.02307 6.80255C5.97513 6.83687 5.93918 6.88539 5.92031 6.94125L5.63906 7.785C5.6303 7.81422 5.62556 7.8445 5.625 7.875V10.6875H5.34375C5.26916 10.6875 5.19762 10.7171 5.14488 10.7699C5.09213 10.8226 5.0625 10.8942 5.0625 10.9688V11.8125C5.0625 11.8871 5.09213 11.9586 5.14488 12.0114C5.19762 12.0641 5.26916 12.0938 5.34375 12.0938C5.41834 12.0938 5.48988 12.1234 5.54262 12.1761C5.59537 12.2289 5.625 12.3004 5.625 12.375C5.625 12.4496 5.59537 12.5211 5.54262 12.5739C5.48988 12.6266 5.41834 12.6563 5.34375 12.6563ZM6.1875 7.92L6.39 7.3125H6.5475L6.75 7.92V10.6875H6.1875V7.92ZM5.625 13.1709C5.78981 13.113 5.93256 13.0053 6.03354 12.8627C6.13452 12.7201 6.18875 12.5497 6.18875 12.375C6.18875 12.2003 6.13452 12.0299 6.03354 11.8873C5.93256 11.7447 5.78981 11.637 5.625 11.5791V11.25H7.3125V11.5791C7.14769 11.637 7.00494 11.7447 6.90396 11.8873C6.80298 12.0299 6.74875 12.2003 6.74875 12.375C6.74875 12.5497 6.80298 12.7201 6.90396 12.8627C7.00494 13.0053 7.14769 13.113 7.3125 13.1709V14.3438C7.3125 14.5675 7.22361 14.7821 7.06537 14.9404C6.90714 15.0986 6.69253 15.1875 6.46875 15.1875C6.24497 15.1875 6.03036 15.0986 5.87213 14.9404C5.71389 14.7821 5.625 14.5675 5.625 14.3438V13.1709ZM10.2741 6.79219C10.2313 6.7675 10.1828 6.75451 10.1334 6.75451C10.0841 6.75451 10.0356 6.7675 9.99281 6.79219C9.61364 6.97289 9.29263 7.25611 9.06609 7.60981C8.83955 7.96351 8.71655 8.37355 8.71098 8.79354C8.70542 9.21353 8.81753 9.62668 9.03463 9.98626C9.25172 10.3458 9.56512 10.6375 9.93937 10.8281L9.65812 14.3381C9.64122 14.5204 9.66253 14.7043 9.72071 14.8779C9.77888 15.0515 9.87264 15.2111 9.99599 15.3464C10.1193 15.4817 10.2696 15.5898 10.4371 15.6638C10.6046 15.7377 10.7856 15.7759 10.9688 15.7759C11.1519 15.7759 11.3329 15.7377 11.5004 15.6638C11.6679 15.5898 11.8182 15.4817 11.9415 15.3464C12.0649 15.2111 12.1586 15.0515 12.2168 14.8779C12.275 14.7043 12.2963 14.5204 12.2794 14.3381L11.9981 10.8281C12.3724 10.6375 12.6858 10.3458 12.9029 9.98626C13.12 9.62668 13.2321 9.21353 13.2265 8.79354C13.221 8.37355 13.0979 7.96351 12.8714 7.60981C12.6449 7.25611 12.3239 6.97289 11.9447 6.79219C11.9019 6.7675 11.8534 6.75451 11.8041 6.75451C11.7547 6.75451 11.7062 6.7675 11.6634 6.79219C11.6229 6.81752 11.5895 6.85276 11.5664 6.89459C11.5432 6.93642 11.5312 6.98345 11.5312 7.03125V8.28563L10.9688 8.6625L10.4062 8.28563V7.03125C10.4063 6.98345 10.3943 6.93642 10.3711 6.89459C10.348 6.85276 10.3146 6.81752 10.2741 6.79219ZM10.8141 9.23344C10.86 9.26368 10.9138 9.2798 10.9688 9.2798C11.0237 9.2798 11.0775 9.26368 11.1234 9.23344L11.9672 8.67094C12.0059 8.64546 12.0377 8.61082 12.0598 8.5701C12.0818 8.52937 12.0935 8.48382 12.0938 8.4375V7.55438C12.3048 7.74671 12.4635 7.98944 12.5552 8.25986C12.6469 8.53027 12.6684 8.81952 12.6178 9.10052C12.5673 9.38153 12.4462 9.64511 12.266 9.86659C12.0858 10.0881 11.8523 10.2602 11.5875 10.3669C11.5319 10.3888 11.4848 10.428 11.4529 10.4785C11.421 10.5291 11.4061 10.5885 11.4103 10.6481L11.7197 14.3578C11.7279 14.4601 11.7146 14.563 11.6807 14.6599C11.6468 14.7567 11.593 14.8454 11.5228 14.9203C11.4512 14.995 11.3651 15.0544 11.2699 15.095C11.1747 15.1356 11.0723 15.1566 10.9688 15.1566C10.8652 15.1566 10.7628 15.1356 10.6676 15.095C10.5724 15.0544 10.4863 14.995 10.4147 14.9203C10.3445 14.8454 10.2907 14.7567 10.2568 14.6599C10.2229 14.563 10.2096 14.4601 10.2178 14.3578L10.5272 10.6481C10.5314 10.5885 10.5165 10.5291 10.4846 10.4785C10.4527 10.428 10.4056 10.3888 10.35 10.3669C10.0852 10.2602 9.8517 10.0881 9.6715 9.86659C9.4913 9.64511 9.37025 9.38153 9.31967 9.10052C9.26908 8.81952 9.29063 8.53027 9.38229 8.25986C9.47395 7.98944 9.63272 7.74671 9.84375 7.55438V8.4375C9.84399 8.48382 9.85567 8.52937 9.87775 8.5701C9.89983 8.61082 9.93162 8.64546 9.97031 8.67094L10.8141 9.23344Z" fill="#02101B"/>
<path d="M16.5938 1.96875H14.9062V1.40625C14.9062 1.18247 14.8174 0.967862 14.6591 0.809629C14.5009 0.651395 14.2863 0.5625 14.0625 0.5625C13.8387 0.5625 13.6241 0.651395 13.4659 0.809629C13.3076 0.967862 13.2188 1.18247 13.2188 1.40625V1.96875H11.5312V1.40625C11.5312 1.18247 11.4424 0.967862 11.2841 0.809629C11.1259 0.651395 10.9113 0.5625 10.6875 0.5625C10.4637 0.5625 10.2491 0.651395 10.0909 0.809629C9.93264 0.967862 9.84375 1.18247 9.84375 1.40625V1.96875H8.15625V1.40625C8.15625 1.18247 8.06736 0.967862 7.90912 0.809629C7.75089 0.651395 7.53628 0.5625 7.3125 0.5625C7.08872 0.5625 6.87411 0.651395 6.71588 0.809629C6.55764 0.967862 6.46875 1.18247 6.46875 1.40625V1.96875H4.78125V1.40625C4.78125 1.18247 4.69236 0.967862 4.53412 0.809629C4.37589 0.651395 4.16128 0.5625 3.9375 0.5625C3.71372 0.5625 3.49911 0.651395 3.34088 0.809629C3.18264 0.967862 3.09375 1.18247 3.09375 1.40625V1.96875H1.40625C1.18247 1.96875 0.967862 2.05764 0.809629 2.21588C0.651395 2.37411 0.5625 2.58872 0.5625 2.8125V7.03125C0.5625 7.10584 0.592132 7.17738 0.644876 7.23012C0.697621 7.28287 0.769158 7.3125 0.84375 7.3125C0.918342 7.3125 0.989879 7.28287 1.04262 7.23012C1.09537 7.17738 1.125 7.10584 1.125 7.03125V5.625H16.875V14.3438C16.875 14.4183 16.9046 14.4899 16.9574 14.5426C17.0101 14.5954 17.0817 14.625 17.1562 14.625C17.2308 14.625 17.3024 14.5954 17.3551 14.5426C17.4079 14.4899 17.4375 14.4183 17.4375 14.3438V2.8125C17.4375 2.58872 17.3486 2.37411 17.1904 2.21588C17.0321 2.05764 16.8175 1.96875 16.5938 1.96875ZM13.7812 1.40625C13.7812 1.33166 13.8109 1.26012 13.8636 1.20738C13.9164 1.15463 13.9879 1.125 14.0625 1.125C14.1371 1.125 14.2086 1.15463 14.2614 1.20738C14.3141 1.26012 14.3438 1.33166 14.3438 1.40625V3.09375C14.3438 3.16834 14.3141 3.23988 14.2614 3.29262C14.2086 3.34537 14.1371 3.375 14.0625 3.375C13.9879 3.375 13.9164 3.34537 13.8636 3.29262C13.8109 3.23988 13.7812 3.16834 13.7812 3.09375V1.40625ZM10.4062 1.40625C10.4062 1.33166 10.4359 1.26012 10.4886 1.20738C10.5414 1.15463 10.6129 1.125 10.6875 1.125C10.7621 1.125 10.8336 1.15463 10.8864 1.20738C10.9391 1.26012 10.9688 1.33166 10.9688 1.40625V3.09375C10.9688 3.16834 10.9391 3.23988 10.8864 3.29262C10.8336 3.34537 10.7621 3.375 10.6875 3.375C10.6129 3.375 10.5414 3.34537 10.4886 3.29262C10.4359 3.23988 10.4062 3.16834 10.4062 3.09375V1.40625ZM7.03125 1.40625C7.03125 1.33166 7.06088 1.26012 7.11363 1.20738C7.16637 1.15463 7.23791 1.125 7.3125 1.125C7.38709 1.125 7.45863 1.15463 7.51137 1.20738C7.56412 1.26012 7.59375 1.33166 7.59375 1.40625V3.09375C7.59375 3.16834 7.56412 3.23988 7.51137 3.29262C7.45863 3.34537 7.38709 3.375 7.3125 3.375C7.23791 3.375 7.16637 3.34537 7.11363 3.29262C7.06088 3.23988 7.03125 3.16834 7.03125 3.09375V1.40625ZM3.65625 1.40625C3.65625 1.33166 3.68588 1.26012 3.73863 1.20738C3.79137 1.15463 3.86291 1.125 3.9375 1.125C4.01209 1.125 4.08363 1.15463 4.13637 1.20738C4.18912 1.26012 4.21875 1.33166 4.21875 1.40625V3.09375C4.21875 3.16834 4.18912 3.23988 4.13637 3.29262C4.08363 3.34537 4.01209 3.375 3.9375 3.375C3.86291 3.375 3.79137 3.34537 3.73863 3.29262C3.68588 3.23988 3.65625 3.16834 3.65625 3.09375V1.40625ZM1.125 5.0625V2.8125C1.125 2.73791 1.15463 2.66637 1.20738 2.61363C1.26012 2.56088 1.33166 2.53125 1.40625 2.53125H3.09375V3.09375C3.09375 3.31753 3.18264 3.53214 3.34088 3.69037C3.49911 3.84861 3.71372 3.9375 3.9375 3.9375C4.16128 3.9375 4.37589 3.84861 4.53412 3.69037C4.69236 3.53214 4.78125 3.31753 4.78125 3.09375V2.53125H6.46875V3.09375C6.46875 3.31753 6.55764 3.53214 6.71588 3.69037C6.87411 3.84861 7.08872 3.9375 7.3125 3.9375C7.53628 3.9375 7.75089 3.84861 7.90912 3.69037C8.06736 3.53214 8.15625 3.31753 8.15625 3.09375V2.53125H9.84375V3.09375C9.84375 3.31753 9.93264 3.53214 10.0909 3.69037C10.2491 3.84861 10.4637 3.9375 10.6875 3.9375C10.9113 3.9375 11.1259 3.84861 11.2841 3.69037C11.4424 3.53214 11.5312 3.31753 11.5312 3.09375V2.53125H13.2188V3.09375C13.2188 3.31753 13.3076 3.53214 13.4659 3.69037C13.6241 3.84861 13.8387 3.9375 14.0625 3.9375C14.2863 3.9375 14.5009 3.84861 14.6591 3.69037C14.8174 3.53214 14.9062 3.31753 14.9062 3.09375V2.53125H16.5938C16.6683 2.53125 16.7399 2.56088 16.7926 2.61363C16.8454 2.66637 16.875 2.73791 16.875 2.8125V5.0625H1.125ZM17.1562 15.1875C17.0817 15.1875 17.0101 15.2171 16.9574 15.2699C16.9046 15.3226 16.875 15.3942 16.875 15.4688V16.5938C16.875 16.6683 16.8454 16.7399 16.7926 16.7926C16.7399 16.8454 16.6683 16.875 16.5938 16.875H1.40625C1.33166 16.875 1.26012 16.8454 1.20738 16.7926C1.15463 16.7399 1.125 16.6683 1.125 16.5938V8.15625C1.125 8.08166 1.09537 8.01012 1.04262 7.95738C0.989879 7.90463 0.918342 7.875 0.84375 7.875C0.769158 7.875 0.697621 7.90463 0.644876 7.95738C0.592132 8.01012 0.5625 8.08166 0.5625 8.15625V16.5938C0.5625 16.8175 0.651395 17.0321 0.809629 17.1904C0.967862 17.3486 1.18247 17.4375 1.40625 17.4375H16.5938C16.8175 17.4375 17.0321 17.3486 17.1904 17.1904C17.3486 17.0321 17.4375 16.8175 17.4375 16.5938V15.4688C17.4375 15.3942 17.4079 15.3226 17.3551 15.2699C17.3024 15.2171 17.2308 15.1875 17.1562 15.1875Z" fill="#02101B"/>
</svg>
