<svg width="14" height="18" viewBox="0 0 14 18" fill="none" xmlns="http://www.w3.org/2000/svg">
<path d="M10.3158 17.75C10.3487 17.7501 10.3812 17.7437 10.4116 17.7312C10.442 17.7186 10.4696 17.7002 10.4928 17.677C10.5161 17.6538 10.5345 17.6262 10.547 17.5958C10.5595 17.5654 10.5659 17.5329 10.5658 17.5V11.0793C12.0433 9.9845 13.0031 8.229 13.0031 6.25325C13.0031 2.94325 10.3098 0.25 6.99983 0.25C3.68983 0.25 0.996582 2.943 0.996582 6.25325C0.996582 8.22875 1.95608 9.984 3.43308 11.0785V17.5C3.43308 17.5486 3.44724 17.5961 3.47383 17.6368C3.50042 17.6775 3.53827 17.7095 3.58278 17.729C3.62728 17.7485 3.6765 17.7546 3.72442 17.7465C3.77233 17.7385 3.81687 17.7167 3.85258 17.6838L6.99983 14.7795L10.1466 17.6838C10.1927 17.7264 10.2533 17.7501 10.3161 17.75H10.3158ZM1.49658 6.25325C1.49658 3.21875 3.96533 0.75 6.99983 0.75C10.0343 0.75 12.5031 3.21875 12.5031 6.25325C12.5031 9.28775 10.0343 11.7565 6.99983 11.7565C3.96533 11.7565 1.49658 9.28775 1.49658 6.25325ZM7.16908 14.2558C7.12291 14.2132 7.0624 14.1895 6.99958 14.1895C6.93677 14.1895 6.87625 14.2132 6.83008 14.2558L3.93308 16.929V11.4115C4.86 11.9656 5.91994 12.2576 6.99983 12.2565C8.07945 12.2576 9.13911 11.9656 10.0658 11.4118V16.929L7.16908 14.2555V14.2558Z" fill="#435BAA"/>
<path d="M9.40075 9.29926C9.53189 9.29896 9.66078 9.26517 9.77521 9.2011C9.88963 9.13702 9.98579 9.04479 10.0546 8.93313C10.1234 8.82148 10.1625 8.69411 10.1683 8.5631C10.174 8.43208 10.1462 8.30177 10.0875 8.18451C10.1792 8.13963 10.261 8.0768 10.328 7.99973C10.395 7.92267 10.4459 7.83294 10.4775 7.73586C10.5092 7.63879 10.5211 7.53634 10.5125 7.43459C10.5038 7.33284 10.4748 7.23385 10.4273 7.14351C10.55 7.07689 10.6525 6.97841 10.724 6.85843C10.7955 6.73845 10.8333 6.60142 10.8335 6.46176C10.8335 6.26001 10.756 6.07601 10.6295 5.93776C10.7608 5.79596 10.8337 5.60977 10.8335 5.41651C10.8332 5.21264 10.7521 5.01719 10.608 4.87304C10.4638 4.72888 10.2684 4.64777 10.0645 4.64751H7.6695L7.783 4.40201L7.79675 4.36526C7.86971 4.10481 7.88876 3.83222 7.85274 3.56416C7.81671 3.2961 7.72638 3.0382 7.58725 2.80626L7.4995 2.66076C7.41031 2.51344 7.28472 2.39155 7.13482 2.30678C6.98491 2.22202 6.81572 2.17725 6.6435 2.17676C6.39675 2.17676 6.196 2.37776 6.196 2.62451V3.19151C6.196 3.56851 6.10775 3.94651 5.941 4.28526L5.41925 4.97676C5.39015 4.88935 5.33435 4.81329 5.25971 4.75928C5.18508 4.70528 5.09538 4.67606 5.00325 4.67576H3.6075C3.36425 4.67576 3.1665 4.87351 3.1665 5.11676V8.88926C3.1665 9.13201 3.36425 9.32976 3.6075 9.32976H5.00325C5.08525 9.32949 5.16554 9.30632 5.23507 9.26285C5.3046 9.21939 5.3606 9.15735 5.39675 9.08376C5.57675 9.18976 5.80875 9.28626 6.08575 9.29926H9.40075ZM4.944 8.83001H3.6665V5.17576H4.944V8.83001ZM5.787 5.32001L6.35425 4.56801L6.378 4.52976C6.5864 4.11449 6.69519 3.65638 6.69575 3.19176V2.67976C6.84975 2.69626 6.9905 2.78476 7.07125 2.91876L7.15875 3.06426C7.26109 3.23494 7.32811 3.42444 7.35585 3.6215C7.38359 3.81857 7.37149 4.0192 7.32025 4.21151L6.88775 5.14776H10.0645C10.1338 5.15075 10.1993 5.1804 10.2474 5.23052C10.2954 5.28064 10.3222 5.34736 10.3222 5.41676C10.3222 5.48616 10.2954 5.55288 10.2474 5.603C10.1993 5.65312 10.1338 5.68277 10.0645 5.68576H8.796V6.18576H10.0573C10.1284 6.18879 10.1957 6.21919 10.245 6.27062C10.2942 6.32205 10.3218 6.39053 10.3218 6.46176C10.3218 6.53299 10.2942 6.60147 10.245 6.6529C10.1957 6.70433 10.1284 6.73473 10.0573 6.73776H8.669V7.23776H9.75375C9.82126 7.24071 9.88502 7.2696 9.93175 7.31841C9.97847 7.36722 10.0046 7.43219 10.0046 7.49976C10.0046 7.56733 9.97847 7.63229 9.93175 7.6811C9.88502 7.72992 9.82126 7.75881 9.75375 7.76176H8.33V8.26176H9.40075C9.46961 8.2654 9.53444 8.29531 9.5819 8.34534C9.62935 8.39536 9.6558 8.46168 9.6558 8.53063C9.6558 8.59958 9.62935 8.66591 9.5819 8.71593C9.53444 8.76596 9.46961 8.79587 9.40075 8.79951L6.09775 8.79976C5.793 8.78501 5.55175 8.60226 5.444 8.50551V5.61651C5.58945 5.5605 5.71077 5.45545 5.787 5.31951V5.32001Z" fill="#435BAA"/>
</svg>
