<svg width="18" height="18" viewBox="0 0 18 18" fill="none" xmlns="http://www.w3.org/2000/svg">
<g clip-path="url(#clip0_3446_352)">
<path d="M8.50919 17.3995H1.58192C1.03646 17.3995 0.600098 16.9631 0.600098 16.4176V4.82674C0.600098 4.55401 0.709189 4.30856 0.900098 4.11765L4.17283 0.844922C4.36373 0.654013 4.60919 0.544922 4.88192 0.544922H12.4365C12.9819 0.544922 13.4183 0.981285 13.4183 1.52674V7.90856M7.99101 15.1631H5.83646M7.82737 13.9631H5.83646M7.55464 11.6449H5.83646M7.93646 10.4176H5.83646M5.83646 8.09947H11.1819M11.1819 6.87219H5.83646M11.1819 4.55401H6.87283M6.87283 2.80856H11.1819" stroke="#02101B" stroke-width="0.7" stroke-miterlimit="10" stroke-linecap="round" stroke-linejoin="round"/>
<path d="M4.88199 0.572266V3.70863C4.88199 4.25408 4.44562 4.69045 3.90017 4.69045H0.627441M10.3911 13.1995H11.6183V14.2086H10.3911V13.1995ZM14.4547 13.1995H15.682V14.2086H14.4547V13.1995Z" stroke="#02101B" stroke-width="0.7" stroke-miterlimit="10" stroke-linecap="round" stroke-linejoin="round"/>
<path d="M2.83643 7.41772L3.30006 7.88136L4.60915 6.57227M9.08188 16.5268V13.1995H16.991V16.5268C16.991 17.045 16.5819 17.4541 16.0637 17.4541H9.98188C9.49097 17.4268 9.08188 17.0177 9.08188 16.5268V16.5268ZM17.4001 13.1995V11.6723C17.4001 10.9086 16.7728 10.2541 15.9819 10.2541H10.0364C9.27279 10.2541 8.61824 10.8814 8.61824 11.6723V13.1995H17.4001ZM14.4546 10.2541V9.57227C14.4546 9.27227 14.2092 8.99954 13.8819 8.99954H12.1364C11.8364 8.99954 11.5637 9.24499 11.5637 9.57227V10.2541H14.4546ZM2.83643 9.87227H4.60915V11.645H2.83643V9.87227ZM2.83643 13.3904H4.60915V15.1632H2.83643V13.3904Z" stroke="#02101B" stroke-width="0.7" stroke-miterlimit="10" stroke-linecap="round" stroke-linejoin="round"/>
</g>
<defs>
<clipPath id="clip0_3446_352">
<rect width="18" height="18" fill="white"/>
</clipPath>
</defs>
</svg>
