<svg width="30" height="30" viewBox="0 0 30 30" fill="none" xmlns="http://www.w3.org/2000/svg">
<path d="M4.83689 10.1074C4.95344 10.1074 5.06521 10.0611 5.14763 9.97871C5.23004 9.8963 5.27634 9.78452 5.27634 9.66797V6.24961H8.63962C8.72562 6.24949 8.81153 6.24401 8.89685 6.2332C8.95286 6.24391 9.00974 6.24941 9.06677 6.24961H20.9332C21.1801 6.2493 21.4168 6.15103 21.5914 5.97636C21.766 5.80169 21.8641 5.56491 21.8642 5.31797V3.86133C21.8641 3.61439 21.766 3.3776 21.5914 3.20294C21.4168 3.02827 21.1801 2.93 20.9332 2.92969H10.7314V0.878906H22.6845C23.809 0.878906 24.7265 1.77656 24.7265 2.87988V13.5938C24.7265 13.7103 24.7728 13.8221 24.8552 13.9045C24.9377 13.9869 25.0494 14.0332 25.166 14.0332C25.2825 14.0332 25.3943 13.9869 25.4767 13.9045C25.5591 13.8221 25.6054 13.7103 25.6054 13.5938V2.87988C25.6054 1.29199 24.2935 0 22.6845 0H10.2627C10.2442 0.000956454 10.2258 0.0031094 10.2076 0.00644531C10.1889 0.0101564 10.1705 0.015049 10.1525 0.0210938L10.1402 0.0257812C10.1229 0.0316547 10.106 0.0389043 10.0898 0.0474609C10.0728 0.0562941 10.0563 0.0662781 10.0406 0.0773438L10.03 0.0855469C10.0141 0.0971072 9.99901 0.109838 9.98493 0.123633L4.52868 5.49668C4.51487 5.5107 4.50195 5.52557 4.49001 5.54121L4.48122 5.55293C4.46999 5.56836 4.45962 5.5844 4.45017 5.60098C4.44138 5.61797 4.43435 5.63496 4.42732 5.65254C4.4254 5.6569 4.42384 5.66141 4.42263 5.66602C4.41659 5.6833 4.4115 5.70091 4.40739 5.71875C4.40376 5.73811 4.40141 5.75768 4.40036 5.77734C4.40007 5.78222 4.40007 5.78711 4.40036 5.79199C4.40007 5.79765 4.40007 5.80332 4.40036 5.80898V9.66797C4.40036 9.78401 4.44626 9.89535 4.52804 9.97768C4.60982 10.06 4.72085 10.1066 4.83689 10.1074ZM10.7314 4.18301V3.80859H20.9332C20.94 3.80859 20.9468 3.80994 20.9531 3.81256C20.9595 3.81518 20.9652 3.81903 20.9701 3.82387C20.9749 3.82871 20.9787 3.83446 20.9814 3.84079C20.984 3.84711 20.9853 3.85389 20.9853 3.86074V5.31797C20.9854 5.32487 20.9841 5.33171 20.9815 5.33811C20.9789 5.3445 20.9751 5.35032 20.9703 5.35522C20.9654 5.36013 20.9596 5.36402 20.9533 5.36668C20.9469 5.36934 20.9401 5.3707 20.9332 5.3707H10.3494C10.5978 5.02452 10.7315 4.60912 10.7314 4.18301ZM9.85251 1.4877V4.18301C9.8488 4.50123 9.71902 4.80498 9.49164 5.02764C9.26426 5.2503 8.95785 5.37367 8.63962 5.3707H5.90974L9.85251 1.4877ZM7.59724 24.7266H22.4027C22.5193 24.7266 22.631 24.6803 22.7134 24.5979C22.7959 24.5154 22.8422 24.4037 22.8422 24.2871C22.8422 24.1706 22.7959 24.0588 22.7134 23.9764C22.631 23.894 22.5193 23.8477 22.4027 23.8477H7.59724C7.48069 23.8477 7.36891 23.894 7.2865 23.9764C7.20408 24.0588 7.15779 24.1706 7.15779 24.2871C7.15779 24.4037 7.20408 24.5154 7.2865 24.5979C7.36891 24.6803 7.48069 24.7266 7.59724 24.7266ZM25.1631 17.7832C25.047 17.784 24.936 17.8306 24.8542 17.9129C24.7724 17.9953 24.7265 18.1066 24.7265 18.2227V27.1201C24.7265 28.2234 23.8119 29.1211 22.6875 29.1211H7.3154C6.19099 29.1211 5.27634 28.2234 5.27634 27.1201V14.7656C5.27634 14.6491 5.23004 14.5373 5.14763 14.4549C5.06521 14.3725 4.95344 14.3262 4.83689 14.3262C4.72034 14.3262 4.60856 14.3725 4.52615 14.4549C4.44373 14.5373 4.39743 14.6491 4.39743 14.7656V27.1201C4.39743 28.708 5.70642 30 7.3154 30H22.6845C24.2935 30 25.6054 28.7109 25.6054 27.1201V18.2227C25.6054 18.1647 25.594 18.1073 25.5717 18.0538C25.5494 18.0003 25.5168 17.9517 25.4757 17.9109C25.4346 17.87 25.3858 17.8377 25.3321 17.8158C25.2785 17.7939 25.221 17.7828 25.1631 17.7832ZM29.5605 17.3391C29.444 17.3391 29.3322 17.3854 29.2498 17.4678C29.1674 17.5502 29.1211 17.662 29.1211 17.7785V19.1016L25.2486 15.2285C25.1253 15.106 24.9586 15.0373 24.7848 15.0373C24.6111 15.0373 24.4443 15.106 24.3211 15.2285L22.5099 17.0396L19.5176 14.0449C19.2621 11.4604 17.1093 9.43359 14.4943 9.43359C12.4734 9.43359 10.7261 10.6453 9.92048 12.3902L7.95466 10.4238C7.894 10.3626 7.82181 10.314 7.74226 10.2808C7.66271 10.2476 7.57738 10.2305 7.49118 10.2305C7.40493 10.2303 7.3195 10.2473 7.23984 10.2804C7.16018 10.3135 7.08788 10.362 7.02712 10.4232L5.21482 12.2361L1.49997 8.5207H2.82243C2.93898 8.5207 3.05076 8.4744 3.13317 8.39199C3.21559 8.30958 3.26189 8.1978 3.26189 8.08125C3.26189 7.9647 3.21559 7.85292 3.13317 7.77051C3.05076 7.6881 2.93898 7.6418 2.82243 7.6418H0.396652C0.387277 7.6418 0.378488 7.6418 0.369113 7.64531H0.354465L0.327511 7.65176L0.312277 7.65586L0.287668 7.66465L0.271847 7.67051C0.264015 7.67354 0.256382 7.67706 0.248996 7.68105L0.234347 7.69336L0.212668 7.70625L0.197433 7.71562C0.18923 7.7209 0.181027 7.72734 0.172824 7.73379L0.162863 7.74082C0.1403 7.75958 0.11951 7.78037 0.100754 7.80293L0.0931364 7.81348C0.087277 7.82109 0.0808317 7.8293 0.0755583 7.8375L0.0655974 7.85332L0.0532927 7.87441L0.0450895 7.89199C0.0415739 7.89902 0.0380583 7.90605 0.0351286 7.91309C0.0321989 7.92012 0.0304411 7.92539 0.0286833 7.93125C0.0269255 7.93711 0.0228239 7.9459 0.0204802 7.95352C0.0181364 7.96113 0.0204802 7.96641 0.0157927 7.97285C0.0111052 7.9793 0.0116911 7.9875 0.0105192 7.99512C0.00877679 8.00264 0.0076016 8.01027 0.00700361 8.01797V8.03789C0.00612901 8.05233 0.00612901 8.06681 0.00700361 8.08125V10.4637C0.00700361 10.5802 0.053303 10.692 0.135716 10.7744C0.21813 10.8568 0.329907 10.9031 0.446457 10.9031C0.563007 10.9031 0.674784 10.8568 0.757197 10.7744C0.83961 10.692 0.88591 10.5802 0.88591 10.4637V9.14062L4.75017 13.0137C4.81086 13.0752 4.8832 13.1241 4.96298 13.1574C5.04276 13.1907 5.12837 13.2078 5.21482 13.2076C5.30107 13.2078 5.3865 13.1908 5.46616 13.1577C5.54582 13.1246 5.61812 13.0761 5.67888 13.0148L7.49001 11.2037L9.59939 13.3131C9.49833 13.7216 9.44737 14.1409 9.44763 14.5617C9.44763 17.3877 11.7123 19.6869 14.4967 19.6869C17.0449 19.6869 19.1578 17.7604 19.497 15.2666L22.0476 17.8172C22.1082 17.8786 22.1803 17.9274 22.2599 17.9607C22.3395 17.994 22.4249 18.0111 22.5111 18.0111C22.5974 18.0113 22.6828 17.9943 22.7625 17.9612C22.8421 17.9281 22.9144 17.8796 22.9752 17.8184L24.7851 16.0061L28.5 19.7215H27.1775C27.061 19.7215 26.9492 19.7678 26.8668 19.8502C26.7844 19.9326 26.7381 20.0444 26.7381 20.1609C26.7381 20.2775 26.7844 20.3893 26.8668 20.4717C26.9492 20.5541 27.061 20.6004 27.1775 20.6004H29.5816C29.5888 20.601 29.5961 20.601 29.6033 20.6004C29.6127 20.6004 29.6215 20.6004 29.6308 20.5969H29.6455C29.6549 20.5969 29.6642 20.5922 29.673 20.5898L29.6871 20.5863C29.6959 20.5863 29.7047 20.5805 29.7134 20.5775L29.7281 20.5717C29.7363 20.5685 29.7443 20.5647 29.7521 20.5605C29.7568 20.5605 29.7621 20.5564 29.7668 20.5535C29.7715 20.5506 29.7826 20.5447 29.7902 20.54C29.7949 20.5375 29.7994 20.5345 29.8037 20.5312C29.8131 20.5254 29.8213 20.5189 29.8301 20.5125L29.8383 20.5061C29.8611 20.4875 29.8821 20.4667 29.9009 20.4439L29.9086 20.4334C29.9144 20.4258 29.9209 20.4176 29.9261 20.4094L29.9361 20.3936L29.9484 20.3725L29.9566 20.3549C29.9601 20.3479 29.9636 20.3408 29.9666 20.3338C29.9695 20.3268 29.9713 20.3215 29.973 20.3156C29.9748 20.3098 29.9789 20.301 29.9812 20.2928C29.9836 20.2846 29.9842 20.2805 29.9859 20.274C29.9877 20.2676 29.99 20.2594 29.9912 20.2512C29.993 20.2439 29.9941 20.2364 29.9947 20.2289V20.209C29.9956 20.1945 29.9956 20.1801 29.9947 20.1656V17.7785C29.9947 17.6629 29.9491 17.5519 29.8679 17.4696C29.7866 17.3874 29.6762 17.3405 29.5605 17.3391ZM14.4943 18.8086C12.1945 18.8086 10.3242 16.9037 10.3242 14.5623C10.3242 12.2209 12.1945 10.3125 14.4943 10.3125C16.7941 10.3125 18.6638 12.2174 18.6638 14.5588C18.6638 16.9002 16.7935 18.8086 14.4943 18.8086ZM7.59724 22.0898H22.4027C22.5193 22.0898 22.631 22.0435 22.7134 21.9611C22.7959 21.8787 22.8422 21.7669 22.8422 21.6504C22.8422 21.5338 22.7959 21.4221 22.7134 21.3396C22.631 21.2572 22.5193 21.2109 22.4027 21.2109H7.59724C7.48069 21.2109 7.36891 21.2572 7.2865 21.3396C7.20408 21.4221 7.15779 21.5338 7.15779 21.6504C7.15779 21.7669 7.20408 21.8787 7.2865 21.9611C7.36891 22.0435 7.48069 22.0898 7.59724 22.0898ZM7.59724 27.3633H22.4027C22.5193 27.3633 22.631 27.317 22.7134 27.2346C22.7959 27.1522 22.8422 27.0404 22.8422 26.9238C22.8422 26.8073 22.7959 26.6955 22.7134 26.6131C22.631 26.5307 22.5193 26.4844 22.4027 26.4844H7.59724C7.48069 26.4844 7.36891 26.5307 7.2865 26.6131C7.20408 26.6955 7.15779 26.8073 7.15779 26.9238C7.15779 27.0404 7.20408 27.1522 7.2865 27.2346C7.36891 27.317 7.48069 27.3633 7.59724 27.3633Z" fill="#435BAA"/>
<path d="M14.2401 10.0001C14.1744 10.0011 14.1096 10.0151 14.0493 10.0412C13.9891 10.0673 13.9345 10.105 13.8888 10.1521C13.8432 10.1993 13.8072 10.255 13.7831 10.3161C13.7589 10.3772 13.747 10.4424 13.7481 10.5081V11.0481C12.7841 11.2591 12.0001 11.9581 12.0001 12.9411C12.0001 14.1041 13.0401 14.9961 14.2481 14.9961C14.9781 14.9961 15.4961 15.4921 15.4961 16.0511C15.4961 16.6101 14.9781 17.1041 14.2481 17.1041C13.5181 17.1041 13.0001 16.6101 13.0001 16.0511C13.0101 15.3751 11.9901 15.3751 12.0001 16.0511C12.0001 17.0351 12.7831 17.7351 13.7481 17.9451V18.4951C13.7381 19.1701 14.7581 19.1701 14.7481 18.4951V18.0491C15.7281 17.8431 16.5171 17.0501 16.4961 16.0531C16.4961 14.7211 15.6381 13.9981 14.2481 13.9981C13.5181 13.9981 13.0001 13.5021 13.0001 12.9431C13.0001 12.3921 13.5061 11.9081 14.2201 11.8951C14.239 11.8965 14.2581 11.8968 14.2771 11.8961C14.9911 11.9111 15.4961 12.3921 15.4961 12.9431C15.4861 13.6201 16.5061 13.6201 16.4961 12.9431C16.4961 11.9451 15.7281 11.1511 14.7481 10.9451V10.5081C14.7492 10.4411 14.7368 10.3745 14.7116 10.3124C14.6865 10.2503 14.6491 10.1938 14.6017 10.1464C14.5543 10.0991 14.4979 10.0617 14.4357 10.0365C14.3736 10.0114 14.3071 9.99898 14.2401 10.0001Z" fill="#435BAA"/>
</svg>
