<svg width="14" height="14" viewBox="0 0 14 14" fill="none" xmlns="http://www.w3.org/2000/svg">
<path d="M4.56392 0.03125L0.435916 0.61525L1.95292 2.13325C0.9203 3.20628 0.257421 4.58109 0.0609156 6.05725C-0.141257 7.58439 0.167072 9.13553 0.937916 10.4693C1.70874 11.8029 2.89778 12.8452 4.32089 13.4347C5.74401 14.0243 7.3218 14.1281 8.80992 13.7303C10.298 13.3311 11.613 12.4524 12.5512 11.2303C13.4895 10.0083 13.9986 8.51095 13.9999 6.97025C13.9989 5.42925 13.4899 3.93157 12.5516 2.70913C11.6134 1.48668 10.2982 0.607687 8.80992 0.20825L8.55292 1.17525C9.82886 1.51663 10.9564 2.26971 11.7605 3.31756C12.5646 4.36542 13.0003 5.64942 12.9999 6.97025C13.0005 8.29091 12.5649 9.57479 11.7607 10.6224C10.9566 11.67 9.82887 12.4226 8.55292 12.7633C7.27705 13.1059 5.92375 13.0177 4.70318 12.5123C3.4826 12.0069 2.46307 11.1126 1.80292 9.96825C1.1567 8.84695 0.891218 7.54643 1.04626 6.26156C1.2013 4.97669 1.76852 3.77665 2.66292 2.84125L3.97492 4.15325L4.11692 3.16325L4.56392 0.03125Z" fill="black"/>
</svg>
