<svg width="16" height="20" viewBox="0 0 16 20" fill="none" xmlns="http://www.w3.org/2000/svg">
<path d="M2.42383 3.20083C2.42383 1.87532 3.49837 0.800781 4.82388 0.800781H9.12692C9.60429 0.800781 10.0621 0.990433 10.3997 1.328L15.0969 6.02515C15.4345 6.36272 15.6241 6.82057 15.6241 7.29796V15.2011C15.6241 16.5266 14.5496 17.6011 13.224 17.6011H4.82388C3.49837 17.6011 2.42383 16.5266 2.42383 15.2011V3.20083ZM4.82388 2.00081C4.16113 2.00081 3.62385 2.53808 3.62385 3.20083V15.2011C3.62385 15.8638 4.16113 16.4011 4.82388 16.4011H13.224C13.8868 16.4011 14.4241 15.8638 14.4241 15.2011V8.00093H10.224C9.22988 8.00093 8.42395 7.19503 8.42395 6.20089V2.00081H4.82388ZM9.62397 2.24934V6.20089C9.62397 6.53226 9.89266 6.8009 10.224 6.8009H14.1755L9.62397 2.24934Z" fill="#142C7A"/>
<path d="M0.0244141 4.39924C0.0244141 3.73649 0.561689 3.19922 1.22444 3.19922V15.1995C1.22444 17.1878 2.83625 18.7995 4.82451 18.7995H13.2247C13.2247 19.4623 12.6874 19.9996 12.0247 19.9996H4.75178C2.14093 19.9996 0.0244141 17.8831 0.0244141 15.2722V4.39924Z" fill="#142C7A"/>
</svg>
