<svg width="24" height="28" viewBox="0 0 24 28" fill="none" xmlns="http://www.w3.org/2000/svg">
<path d="M11.0859 27.125H2.625C2.0034 27.125 1.40726 26.8781 0.967718 26.4385C0.52818 25.999 0.28125 25.4029 0.28125 24.7812V5.09375C0.28125 4.47215 0.52818 3.87601 0.967718 3.43647C1.40726 2.99693 2.0034 2.75 2.625 2.75H4.96875V3.6875H2.625C2.25204 3.6875 1.89435 3.83566 1.63063 4.09938C1.36691 4.3631 1.21875 4.72079 1.21875 5.09375V24.7812C1.21875 25.1542 1.36691 25.5119 1.63063 25.7756C1.89435 26.0393 2.25204 26.1875 2.625 26.1875H11.0859V27.125ZM19.9688 5.09375C19.9688 4.47215 19.7218 3.87601 19.2823 3.43647C18.8427 2.99693 18.2466 2.75 17.625 2.75H15.2812V3.6875H17.625C17.998 3.6875 18.3556 3.83566 18.6194 4.09938C18.8831 4.3631 19.0312 4.72079 19.0312 5.09375V12.125H19.9688V5.09375ZM9.62813 24.3125H3.09375V5.5625H4.96875V4.625H2.625C2.50068 4.625 2.38145 4.67439 2.29354 4.76229C2.20564 4.8502 2.15625 4.96943 2.15625 5.09375V24.7812C2.15625 24.9056 2.20564 25.0248 2.29354 25.1127C2.38145 25.2006 2.50068 25.25 2.625 25.25H9.62813V24.3125ZM18.0938 5.09375C18.0938 4.96943 18.0444 4.8502 17.9565 4.76229C17.8685 4.67439 17.7493 4.625 17.625 4.625H15.2812V5.5625H17.1562V12.125H18.0938V5.09375ZM14.3438 6.96875V3.21875C14.3438 3.09443 14.2944 2.9752 14.2065 2.88729C14.1185 2.79939 13.9993 2.75 13.875 2.75H12C12 2.25272 11.8025 1.77581 11.4508 1.42417C11.0992 1.07254 10.6223 0.875 10.125 0.875C9.62772 0.875 9.15081 1.07254 8.79918 1.42417C8.44754 1.77581 8.25 2.25272 8.25 2.75H6.375C6.25068 2.75 6.13145 2.79939 6.04354 2.88729C5.95564 2.9752 5.90625 3.09443 5.90625 3.21875V6.96875C5.90625 7.09307 5.95564 7.2123 6.04354 7.30021C6.13145 7.38811 6.25068 7.4375 6.375 7.4375H13.875C13.9993 7.4375 14.1185 7.38811 14.2065 7.30021C14.2944 7.2123 14.3438 7.09307 14.3438 6.96875ZM6.84375 3.6875H8.71875C8.84307 3.6875 8.9623 3.63811 9.05021 3.55021C9.13811 3.4623 9.1875 3.34307 9.1875 3.21875V2.75C9.1875 2.50136 9.28627 2.2629 9.46209 2.08709C9.6379 1.91127 9.87636 1.8125 10.125 1.8125C10.3736 1.8125 10.6121 1.91127 10.7879 2.08709C10.9637 2.2629 11.0625 2.50136 11.0625 2.75V3.21875C11.0625 3.34307 11.1119 3.4623 11.1998 3.55021C11.2877 3.63811 11.4069 3.6875 11.5312 3.6875H13.4062V6.5H6.84375V3.6875ZM11.5312 4.625H8.71875V5.5625H11.5312V4.625ZM15.2812 9.78125H10.5938V10.7188H15.2812V9.78125ZM15.2812 12.5938H10.5938V13.5312H15.2812V12.5938ZM6.70781 12.4578L8.58281 10.5828L7.91719 9.91719L6.31406 11.5203L5.22656 10.7984L4.71094 11.5766L6.11719 12.5141C6.19239 12.5675 6.28275 12.5955 6.375 12.5938C6.43669 12.5941 6.49785 12.5823 6.55496 12.559C6.61207 12.5356 6.66401 12.5013 6.70781 12.4578ZM6.70781 16.2078L8.58281 14.3328L7.91719 13.6672L6.31406 15.2703L5.22656 14.5484L4.71094 15.3266L6.11719 16.2641C6.19239 16.3175 6.28275 16.3455 6.375 16.3438C6.43669 16.3441 6.49785 16.3323 6.55496 16.309C6.61207 16.2856 6.66401 16.2513 6.70781 16.2078ZM6.70781 19.9578L8.58281 18.0828L7.91719 17.4172L6.31406 19.0203L5.22656 18.2984L4.71094 19.0766L6.11719 20.0141C6.19239 20.0675 6.28275 20.0955 6.375 20.0938C6.43669 20.0941 6.49785 20.0823 6.55496 20.059C6.61207 20.0356 6.66401 20.0013 6.70781 19.9578ZM21.8438 21.0312C21.8438 20.9069 21.7944 20.7877 21.7065 20.6998C21.6185 20.6119 21.4993 20.5625 21.375 20.5625H16.2188V15.4062C16.2188 15.2819 16.1694 15.1627 16.0815 15.0748C15.9935 14.9869 15.8743 14.9375 15.75 14.9375C14.5448 14.9375 13.3666 15.2949 12.3645 15.9645C11.3624 16.6341 10.5813 17.5858 10.1201 18.6993C9.65889 19.8128 9.53821 21.038 9.77334 22.2201C10.0085 23.4022 10.5888 24.488 11.4411 25.3402C12.2933 26.1924 13.3791 26.7728 14.5612 27.0079C15.7432 27.243 16.9685 27.1224 18.082 26.6611C19.1955 26.1999 20.1472 25.4189 20.8168 24.4168C21.4864 23.4146 21.8438 22.2365 21.8438 21.0312ZM15.2812 21.0312C15.2812 21.1556 15.3306 21.2748 15.4185 21.3627C15.5065 21.4506 15.6257 21.5 15.75 21.5H20.9062C20.8129 22.4734 20.4447 23.4002 19.8445 24.1722C19.2444 24.9442 18.4371 25.5297 17.5168 25.8603C16.5966 26.1909 15.6013 26.253 14.647 26.0394C13.6928 25.8257 12.819 25.3452 12.1275 24.6537C11.4361 23.9623 10.9555 23.0885 10.7419 22.1342C10.5282 21.18 10.5903 20.1847 10.9209 19.2644C11.2515 18.3441 11.837 17.5368 12.6091 16.9367C13.3811 16.3366 14.3079 15.9684 15.2812 15.875V21.0312ZM23.7188 19.1562C23.7188 17.5401 23.0767 15.9901 21.9339 14.8473C20.7911 13.7045 19.2412 13.0625 17.625 13.0625C17.5007 13.0625 17.3815 13.1119 17.2935 13.1998C17.2056 13.2877 17.1562 13.4069 17.1562 13.5312V19.1562C17.1562 19.2806 17.2056 19.3998 17.2935 19.4877C17.3815 19.5756 17.5007 19.625 17.625 19.625H23.25C23.3743 19.625 23.4935 19.5756 23.5815 19.4877C23.6694 19.3998 23.7188 19.2806 23.7188 19.1562ZM18.0938 14C19.3015 14.1056 20.4334 14.6334 21.2906 15.4906C22.1479 16.3479 22.6756 17.4798 22.7812 18.6875H18.0938V14Z" fill="#435BAA"/>
</svg>
