<svg width="18" height="18" viewBox="0 0 18 18" fill="none" xmlns="http://www.w3.org/2000/svg">
<path d="M2.8125 17.4375H15.1875C15.6656 17.4375 16.0312 17.0719 16.0312 16.5938V2.25C16.0312 1.77188 15.6656 1.40625 15.1875 1.40625H11.8125C11.8125 0.928125 11.4469 0.5625 10.9688 0.5625H7.03125C6.55312 0.5625 6.1875 0.928125 6.1875 1.40625H2.8125C2.33437 1.40625 1.96875 1.77188 1.96875 2.25V16.5938C1.96875 17.0719 2.33437 17.4375 2.8125 17.4375ZM6.75 1.40625C6.75 1.2375 6.8625 1.125 7.03125 1.125H10.9688C11.1375 1.125 11.25 1.2375 11.25 1.40625V2.8125C11.25 2.98125 11.1375 3.09375 10.9688 3.09375H7.03125C6.8625 3.09375 6.75 2.98125 6.75 2.8125V1.40625ZM2.53125 2.25C2.53125 2.08125 2.64375 1.96875 2.8125 1.96875H6.1875V2.8125C6.1875 3.29063 6.55312 3.65625 7.03125 3.65625H10.9688C11.3344 3.65625 11.6438 3.43125 11.7562 3.09375H14.3438V13.7812H12.375V15.75H3.65625V3.09375H5.625V2.53125H3.09375V16.3125H12.7688L14.9062 14.175V2.53125H11.8125V1.96875H15.1875C15.3562 1.96875 15.4688 2.08125 15.4688 2.25V16.5938C15.4688 16.7625 15.3562 16.875 15.1875 16.875H2.8125C2.64375 16.875 2.53125 16.7625 2.53125 16.5938V2.25ZM13.95 14.3438L12.9375 15.3562V14.3438H13.95Z" fill="#02101B"/>
<path d="M10.125 1.96875H7.875V2.53125H10.125V1.96875Z" fill="#02101B"/>
<path d="M4.5 9.84375H13.5V5.34375H4.5V9.84375ZM5.0625 5.90625H12.9375V9.28125H5.0625V5.90625Z" fill="#02101B"/>
<path d="M10.9688 4.21875H7.03125V4.78125H10.9688V4.21875Z" fill="#02101B"/>
<path d="M6.46875 10.4062H4.5V10.9688H6.46875V10.4062Z" fill="#02101B"/>
<path d="M13.5 10.4062H7.03125V10.9688H13.5V10.4062Z" fill="#02101B"/>
<path d="M8.15625 11.5312H4.5V12.0938H8.15625V11.5312Z" fill="#02101B"/>
<path d="M13.5 11.5312H8.71875V12.0938H13.5V11.5312Z" fill="#02101B"/>
<path d="M9.84375 12.6562H4.5V13.2188H9.84375V12.6562Z" fill="#02101B"/>
<path d="M13.5 12.6562H10.4062V13.2188H13.5V12.6562Z" fill="#02101B"/>
<path d="M11.5312 13.7812H4.5V14.3438H11.5312V13.7812Z" fill="#02101B"/>
</svg>
