<svg width="15" height="17" viewBox="0 0 15 17" fill="none" xmlns="http://www.w3.org/2000/svg">
<path d="M0 15.3778V1.25503C0.000348749 1.00628 0.0932378 0.76767 0.258208 0.591703C0.423178 0.415736 0.646749 0.316778 0.880082 0.316406H10.7866C11.0199 0.316778 11.2435 0.415736 11.4085 0.591703C11.5735 0.76767 11.6662 1.00627 11.6666 1.25503V7.10579L11 7.81684V1.25497C10.9992 1.12972 10.9042 1.02828 10.7866 1.02741H0.880109C0.762573 1.02828 0.667591 1.12972 0.666775 1.25497V15.3777C0.667589 15.503 0.762573 15.6044 0.880109 15.6053H10.7866C10.9042 15.6044 10.9992 15.503 11 15.3777V13.095L11.6666 12.384V15.3778C11.6662 15.6265 11.5735 15.8651 11.4085 16.0411C11.2435 16.2171 11.0199 16.316 10.7866 16.3164H0.880082C0.646755 16.316 0.423178 16.2171 0.258208 16.0411C0.0932378 15.8651 0.000348214 15.6265 0 15.3778V15.3778ZM9.8357 13.0809L14.1056 8.52636L12.809 7.14503L8.53879 11.6977L9.8357 13.0809ZM14.7315 7.85842C14.9631 7.61128 15.0535 7.25116 14.9687 6.9136C14.8838 6.57618 14.6365 6.31266 14.3201 6.22228C14.0037 6.132 13.6661 6.22848 13.4346 6.47562L13.2323 6.69152L14.5289 8.07456L14.7315 7.85842ZM7.8354 13.9892L9.13376 13.7154C9.21968 13.698 9.29862 13.6534 9.36047 13.5874L9.41046 13.5341L8.11385 12.151L8.06386 12.2044C8.00201 12.2702 7.96016 12.3545 7.94377 12.4462L7.68707 13.8311L7.68719 13.831C7.67917 13.875 7.69219 13.9204 7.72195 13.9521C7.75171 13.9839 7.79415 13.9978 7.83542 13.9892L7.8354 13.9892ZM4.07172 3.56988C4.07172 3.54942 4.06416 3.5297 4.05056 3.51531C4.03696 3.5008 4.01859 3.49262 3.99941 3.49262H2.09989C2.05989 3.49262 2.02746 3.52722 2.02746 3.56988V5.59602C2.02746 5.63868 2.05989 5.67328 2.09989 5.67328H3.99941C4.01859 5.67328 4.03696 5.6651 4.05056 5.65059C4.06416 5.63608 4.07184 5.61649 4.07172 5.59602V3.56988ZM9.63927 4.96209H4.91576V5.67314H9.63927V4.96209ZM4.07172 7.30322C4.07172 7.28276 4.06416 7.26304 4.05056 7.24853C4.03696 7.23402 4.01859 7.22596 3.99941 7.22596H2.09989C2.05989 7.22596 2.02746 7.26056 2.02746 7.30322V9.32924C2.02746 9.3719 2.05989 9.4065 2.09989 9.4065H3.99941C4.01859 9.4065 4.03696 9.39844 4.05056 9.38393C4.06416 9.36942 4.07184 9.3497 4.07172 9.32924V7.30322ZM9.63927 8.69544H4.91576V9.40648H9.63927V8.69544ZM3.9994 10.9592H2.09988C2.05988 10.9592 2.02745 10.9938 2.02745 11.0365V13.0626C2.02745 13.1053 2.05988 13.1399 2.09988 13.1399H3.9994C4.01858 13.1399 4.03695 13.1317 4.05055 13.1172C4.06415 13.1028 4.07183 13.0831 4.07171 13.0626V11.0365C4.07183 11.016 4.06415 10.9964 4.05055 10.9819C4.03695 10.9674 4.01858 10.9592 3.9994 10.9592V10.9592ZM4.91574 13.1398L6.97255 13.1399V12.4288L4.91574 12.4287V13.1398Z" fill="#5370D1"/>
</svg>
