<svg width="18" height="18" viewBox="0 0 18 18" fill="none" xmlns="http://www.w3.org/2000/svg">
<g clip-path="url(#clip0_3942_2012)">
<path d="M9.46792 17.7956H8.01131C7.40901 17.7956 6.91886 17.3055 6.91886 16.7032V15.3471C6.4527 15.2123 6.00308 15.0258 5.57842 14.791L4.61925 15.7506C4.2063 16.1635 3.48711 16.1628 3.07416 15.7506L2.04398 14.7207C1.8375 14.5146 1.72389 14.2401 1.72389 13.9484C1.72389 13.6567 1.8375 13.3821 2.04398 13.176L3.00351 12.2161C2.7687 11.7918 2.58242 11.3424 2.44818 10.8764H1.09245C0.490147 10.8764 0 10.3863 0 9.78396V8.32736C0 8.03531 0.113615 7.7611 0.319724 7.55499C0.420995 7.45324 0.541426 7.37256 0.674057 7.31762C0.806689 7.26268 0.948892 7.23457 1.09245 7.2349H2.44855C2.58328 6.76952 2.769 6.32052 3.00424 5.89519L2.04507 4.93566C1.84045 4.7307 1.72552 4.45291 1.72552 4.16329C1.72552 3.87367 1.84045 3.59589 2.04507 3.39093L3.07489 2.36075C3.48747 1.94853 4.20703 1.9478 4.61998 2.36075L5.57952 3.32028C6.00385 3.08579 6.45309 2.89952 6.91886 2.76496V1.40886C6.91886 0.806553 7.40901 0.316406 8.01131 0.316406H9.46792C10.0702 0.316406 10.5604 0.806553 10.5604 1.40886V2.76496C11.0265 2.89969 11.4751 3.08577 11.8997 3.32028L12.8593 2.36075C13.2722 1.94853 13.9914 1.9478 14.4043 2.36075L15.4345 3.39057C15.641 3.59668 15.7546 3.87124 15.7546 4.16293C15.7546 4.45461 15.641 4.72918 15.4345 4.93529L14.4754 5.89483C14.7102 6.31927 14.8966 6.76879 15.031 7.2349H16.3868C16.9891 7.2349 17.4792 7.72505 17.4792 8.32736V9.78396C17.4792 10.076 17.3656 10.3502 17.1595 10.5563C16.9534 10.7624 16.6788 10.8764 16.3868 10.8764H15.0307C14.896 11.3424 14.7096 11.7919 14.475 12.2165L15.4342 13.176C15.6388 13.381 15.7537 13.6588 15.7537 13.9484C15.7537 14.238 15.6388 14.5158 15.4342 14.7207L14.4043 15.7509C13.9914 16.1635 13.2722 16.1635 12.8593 15.7509L11.9004 14.7914C11.476 15.026 11.0266 15.2124 10.5607 15.3471V16.7032C10.5603 16.9928 10.4449 17.2705 10.2401 17.4753C10.0353 17.68 9.75757 17.7952 9.46792 17.7956ZM5.51943 13.9713C5.58461 13.9713 5.65053 13.9888 5.70915 14.0245C6.22304 14.3391 6.78294 14.5714 7.36859 14.7131C7.448 14.7323 7.51864 14.7776 7.56917 14.8418C7.61969 14.906 7.64716 14.9854 7.64716 15.0671V16.7032C7.64716 16.9042 7.81067 17.0673 8.01131 17.0673H9.46792C9.66856 17.0673 9.83207 16.9042 9.83207 16.7032V15.0671C9.83207 14.9854 9.85954 14.906 9.91006 14.8418C9.96059 14.7776 10.0312 14.7323 10.1106 14.7131C10.6961 14.5715 11.2559 14.3393 11.7697 14.0249C11.9139 13.9371 12.0982 13.9593 12.2173 14.078L13.3745 15.2357C13.5111 15.3719 13.7529 15.3726 13.8898 15.2357L14.9196 14.2055C14.9879 14.1372 15.0262 14.0446 15.0262 13.948C15.0262 13.8515 14.9879 13.7589 14.9196 13.6906L13.762 12.5329C13.7042 12.4751 13.6675 12.3996 13.6578 12.3184C13.6482 12.2372 13.6662 12.1551 13.7088 12.0854C14.0232 11.5716 14.2553 11.0118 14.3967 10.4263C14.4158 10.3468 14.4611 10.2761 14.5253 10.2255C14.5895 10.1749 14.6689 10.1474 14.7506 10.1474H16.3868C16.4346 10.1476 16.482 10.1383 16.5262 10.1201C16.5704 10.1019 16.6106 10.0752 16.6444 10.0414C16.6783 10.0076 16.7051 9.9675 16.7234 9.92332C16.7417 9.87913 16.751 9.83177 16.7509 9.78396V8.32736C16.7509 8.12634 16.5874 7.96321 16.3868 7.96321H14.7506C14.6689 7.96325 14.5895 7.93575 14.5253 7.88514C14.4611 7.83454 14.4158 7.76377 14.3967 7.68427C14.2554 7.09874 14.0233 6.53894 13.7088 6.0252C13.6662 5.95546 13.6482 5.87339 13.6578 5.79221C13.6675 5.71103 13.7042 5.63546 13.762 5.57765L14.9196 4.42002C14.9873 4.35192 15.0263 4.25834 15.0263 4.16257C15.0263 4.06679 14.9873 3.97284 14.9196 3.90511L13.8894 2.87529C13.8199 2.80923 13.7277 2.77239 13.6318 2.77239C13.5359 2.77239 13.4437 2.80923 13.3742 2.87529L12.2165 4.03293C12.1589 4.09103 12.0833 4.12791 12.002 4.13756C11.9208 4.14721 11.8386 4.12907 11.769 4.08609C11.2554 3.77178 10.6959 3.53968 10.1106 3.39821C10.0313 3.37922 9.9606 3.33403 9.91005 3.26995C9.85951 3.20586 9.83204 3.12661 9.83207 3.04499V1.40886C9.83207 1.20785 9.66856 1.04471 9.46792 1.04471H8.01131C7.81067 1.04471 7.64716 1.20785 7.64716 1.40886V3.04499C7.64716 3.12668 7.61969 3.206 7.56917 3.2702C7.51864 3.3344 7.448 3.37974 7.36859 3.39894C6.7831 3.54039 6.22332 3.77249 5.70952 4.08682C5.63985 4.12952 5.55784 4.14749 5.4767 4.13785C5.39557 4.1282 5.32005 4.0915 5.26234 4.03366L4.10471 2.87602C4.0352 2.80996 3.94296 2.77312 3.84707 2.77312C3.75117 2.77312 3.65894 2.80996 3.58943 2.87602L2.55998 3.90584C2.49171 3.97413 2.45336 4.06673 2.45336 4.16329C2.45336 4.25985 2.49171 4.35246 2.55998 4.42075L3.71761 5.57838C3.77543 5.63618 3.81211 5.71176 3.82175 5.79294C3.83139 5.87412 3.81344 5.95619 3.77078 6.02592C3.45639 6.53957 3.22429 7.09924 3.0829 7.68463C3.06377 7.7641 3.01846 7.83483 2.95425 7.88543C2.89005 7.93603 2.81069 7.96355 2.72894 7.96357H1.09245C1.04461 7.96338 0.997198 7.97265 0.952954 7.99086C0.908711 8.00907 0.868507 8.03585 0.834659 8.06967C0.80081 8.10348 0.773987 8.14366 0.755733 8.18789C0.73748 8.23211 0.728157 8.27951 0.728301 8.32736V9.78396C0.728301 9.98497 0.891805 10.1481 1.09245 10.1481H2.72858C2.89682 10.1481 3.04321 10.2632 3.08254 10.427C3.22398 11.0124 3.45608 11.5721 3.77042 12.0858C3.81308 12.1555 3.83103 12.2376 3.82139 12.3187C3.81174 12.3999 3.77506 12.4755 3.71725 12.5333L2.55961 13.6913C2.49188 13.7594 2.45292 13.853 2.45292 13.9487C2.45292 14.0445 2.49188 14.1385 2.55961 14.2062L3.5898 15.236C3.65931 15.3021 3.75154 15.3389 3.84743 15.3389C3.94333 15.3389 4.03556 15.3021 4.10507 15.236L5.26234 14.0784C5.29595 14.0444 5.33599 14.0174 5.38013 13.999C5.42427 13.9806 5.47162 13.9712 5.51943 13.9713Z" fill="#5370D1"/>
<path d="M8.73916 12.6971C6.73124 12.6971 5.09766 11.0635 5.09766 9.05557C5.09766 7.04764 6.73124 5.41406 8.73916 5.41406C10.7471 5.41406 12.3807 7.04764 12.3807 9.05557C12.3807 11.0635 10.7475 12.6971 8.73916 12.6971ZM8.73916 6.14236C7.13289 6.14236 5.82596 7.4493 5.82596 9.05557C5.82596 10.6618 7.13289 11.9688 8.73916 11.9688C10.3454 11.9688 11.6524 10.6618 11.6524 9.05557C11.6524 7.4493 10.3458 6.14236 8.73916 6.14236Z" fill="#5370D1"/>
</g>
<defs>
<clipPath id="clip0_3942_2012">
<rect width="17.4792" height="17.4792" fill="white" transform="translate(0 0.316406)"/>
</clipPath>
</defs>
</svg>
