<svg width="22" height="30" viewBox="0 0 22 30" fill="none" xmlns="http://www.w3.org/2000/svg">
<path d="M13.4082 2.41992V0.351562H8.58594V2.41992H5.98438V7.13672H16.0098V2.41992H13.4082ZM15.0137 6.14063H6.98633V3.41602H9.58789V1.34766H12.418V3.41602H15.0195V6.14063H15.0137Z" fill="#435BAA"/>
<path d="M18.0369 3.58008V4.6875H20.3162V28.541H1.68335V4.6875H3.96265V3.58008H0.575928V29.6484H21.4236V3.58008H18.0369Z" fill="#435BAA"/>
<path d="M6.35962 20.9961H3.3186V17.9551H6.35962V20.9961ZM4.05102 20.2578H5.6272V18.6816H4.05102V20.2578ZM6.35962 26.1992H3.3186V23.1582H6.35962V26.1992ZM4.05102 25.4668H5.6272V23.8906H4.05102V25.4668ZM8.36938 13.8242H18.6819V14.75H8.36938V13.8242ZM8.36938 19.0098H18.6819V19.9355H8.36938V19.0098ZM8.36938 24.2129H18.6819V25.1387H8.36938V24.2129ZM5.6272 14.2988V15.0781H4.05102V14.1875L3.3186 13.4434V15.8105H6.35962V13.5781L5.6272 14.2988Z" fill="#435BAA"/>
<path d="M8.32812 11.0664L7.67188 10.4043L5.73242 12.3027L5.73828 12.3145L4.89453 13.1465L4.10937 12.3438L3.44141 12.9941L4.44336 14.0195L4.88281 14.4648L7.48438 11.9102L7.49023 11.8867L8.32812 11.0664Z" fill="#435BAA"/>
</svg>
