<svg width="18" height="18" viewBox="0 0 18 18" fill="none" xmlns="http://www.w3.org/2000/svg">
<path d="M6.07218 11.495H3.25293V8.67578H6.07218V11.495ZM3.90354 10.8444H5.42157V9.3263H3.90354V10.8444ZM10.4096 11.495H7.59021V8.67578H10.4096V11.495ZM8.24082 10.8444H9.75885V9.3263H8.24082V10.8444ZM14.7468 11.495H11.9276V8.67578H14.7468V11.495ZM12.5782 10.8444H14.0963V9.3263H12.5782V10.8444ZM6.07218 15.8323H3.25293V13.0131H6.07218V15.8323ZM3.90354 15.1818H5.42157V13.6638H3.90354V15.1818ZM10.4096 15.8323H7.59021V13.0131H10.4096V15.8323ZM8.24082 15.1818H9.75885V13.6638H8.24082V15.1818ZM14.7468 15.8323H11.9276V13.0131H14.7468V15.8323ZM12.5782 15.1818H14.0963V13.6638H12.5782V15.1818Z" fill="#02101B"/>
<path d="M16.9158 18H1.08447V0H16.9158V18ZM1.73508 17.3494H16.2651V0.65061H1.73508V17.3494Z" fill="#02101B"/>
<path d="M3.2168 2.13281V7.19306H14.7831V2.13281H3.2168ZM14.1324 6.54245H3.86741V2.78342H14.1325V6.54245H14.1324Z" fill="#02101B"/>
<path d="M12.8313 3.94141H13.4819V5.38717H12.8313V3.94141ZM11.5301 3.94141H12.1807V5.38717H11.5301V3.94141ZM10.2289 3.94141H10.8795V5.38717H10.2289V3.94141ZM8.92773 3.94141H9.57834V5.38717H8.92773V3.94141Z" fill="#02101B"/>
</svg>
