<svg width="16" height="16" viewBox="0 0 16 16" fill="none" xmlns="http://www.w3.org/2000/svg">
<path d="M8 11.6667C7.21229 11.6667 6.57143 10.919 6.57143 10H6C6 11.1733 6.74657 12.144 7.71429 12.3067V13H8.28571V12.3067C9.25343 12.144 10 11.1733 10 10C10 8.89333 9.37286 8.13433 8.08257 7.68067C7.06571 7.32333 6.57143 6.77367 6.57143 6C6.57143 5.081 7.21229 4.33333 8 4.33333C8.78771 4.33333 9.42857 5.081 9.42857 6H10C10 4.82667 9.25343 3.856 8.28571 3.69333V3H7.71429V3.69333C6.74657 3.856 6 4.82667 6 6C6 7.09167 6.64514 7.872 7.91743 8.31933C8.94857 8.68167 9.42857 9.21567 9.42857 10C9.42857 10.919 8.78771 11.6667 8 11.6667Z" fill="#02101B"/>
<path d="M8 0C3.58887 0 0 3.58887 0 8H0.695652C0.695652 3.97217 3.97217 0.695652 8 0.695652C12.0278 0.695652 15.3043 3.97217 15.3043 8C15.3043 12.0278 12.0278 15.3043 8 15.3043C5.60904 15.3043 3.3673 14.1176 2.0087 12.1739H3.47826V11.4783H1.04348V13.913H1.73913V12.975C3.24487 14.8626 5.5513 16 8 16C12.4111 16 16 12.4111 16 8C16 3.58887 12.4111 0 8 0Z" fill="#02101B"/>
</svg>
