<svg width="14" height="18" viewBox="0 0 14 18" fill="none" xmlns="http://www.w3.org/2000/svg">
<path d="M12.6949 0C13.4157 0 14 0.561061 14 1.25316V16.7468C14 17.4221 13.4438 17.9726 12.7474 17.999L12.6949 18H1.30508C0.584306 18 0 17.4389 0 16.7468V1.25316C0 0.561061 0.584306 0 1.30508 0H12.6949ZM13.2881 16.1772H1.30508C0.977458 16.1772 0.711864 16.4322 0.711864 16.7468C0.711864 17.0614 0.977458 17.3165 1.30508 17.3165H12.6949C13.0225 17.3165 13.2881 17.0614 13.2881 16.7468V16.1772ZM2.72881 0.683544H1.30508C0.977458 0.683544 0.711864 0.938572 0.711864 1.25316L0.712012 15.6302C0.889958 15.5429 1.09153 15.4937 1.30508 15.4937H2.72881V0.683544ZM12.6949 0.683544H3.44068V15.4937H13.2881V1.25316C13.2881 0.938572 13.0225 0.683544 12.6949 0.683544ZM10.7373 11.1076C10.9339 11.1076 11.0932 11.2606 11.0932 11.4494C11.0932 11.6381 10.9339 11.7911 10.7373 11.7911H5.99153C5.79495 11.7911 5.63559 11.6381 5.63559 11.4494C5.63559 11.2606 5.79495 11.1076 5.99153 11.1076H10.7373ZM10.7373 4.38608C10.9339 4.38608 11.0932 4.53909 11.0932 4.72785V7.68987C11.0932 9.137 9.87149 10.3101 8.36441 10.3101C6.85732 10.3101 5.63559 9.137 5.63559 7.68987V4.72785C5.63559 4.53909 5.79495 4.38608 5.99153 4.38608C6.1881 4.38608 6.34746 4.53909 6.34746 4.72785V7.68987C6.34746 8.75949 7.25048 9.62658 8.36441 9.62658C9.47834 9.62658 10.3814 8.75949 10.3814 7.68987V4.72785C10.3814 4.53909 10.5407 4.38608 10.7373 4.38608Z" fill="#02101B"/>
</svg>
