<svg width="18" height="18" viewBox="0 0 18 18" fill="none" xmlns="http://www.w3.org/2000/svg">
<path fill-rule="evenodd" clip-rule="evenodd" d="M6.46978 1.125C4.76991 1.125 3.38728 2.51437 3.38728 4.21875C3.38728 5.92312 4.76991 7.3125 6.46922 7.3125C8.16909 7.3125 9.55172 5.92312 9.55172 4.21875C9.55172 2.51437 8.16966 1.125 6.46978 1.125ZM6.46978 1.6875C7.86478 1.6875 8.98978 2.817 8.98978 4.21875C8.98978 5.6205 7.86478 6.75 6.46978 6.75C6.13796 6.74978 5.80945 6.68408 5.50308 6.55665C5.1967 6.42923 4.91849 6.24259 4.68438 6.00744C4.45027 5.77229 4.26488 5.49324 4.13882 5.18631C4.01276 4.87937 3.94852 4.55056 3.94978 4.21875C3.94978 2.817 5.07478 1.6875 6.46978 1.6875ZM13.8515 4.34812C13.7769 4.34812 13.7053 4.37776 13.6526 4.4305C13.5999 4.48325 13.5702 4.55478 13.5702 4.62937V4.91737C13.4893 4.94504 13.41 4.97734 13.3328 5.01412L13.1298 4.81163C13.077 4.7589 13.0055 4.72928 12.9309 4.72928C12.8564 4.72928 12.7848 4.7589 12.7321 4.81163L12.1358 5.40844C12.0831 5.46118 12.0535 5.5327 12.0535 5.60728C12.0535 5.68186 12.0831 5.75338 12.1358 5.80612L12.3383 6.00975C12.3009 6.08667 12.268 6.16575 12.2399 6.24656H11.953C11.8784 6.24656 11.8069 6.27619 11.7542 6.32894C11.7014 6.38168 11.6718 6.45322 11.6718 6.52781V7.37156C11.6718 7.44615 11.7014 7.51769 11.7542 7.57044C11.8069 7.62318 11.8784 7.65281 11.953 7.65281H12.241C12.2692 7.73437 12.3001 7.81313 12.3378 7.89019L12.1353 8.09381C12.0826 8.14655 12.0529 8.21808 12.0529 8.29266C12.0529 8.36723 12.0826 8.43876 12.1353 8.4915L12.7315 9.08775C12.7577 9.11394 12.7887 9.13472 12.8229 9.1489C12.857 9.16308 12.8937 9.17038 12.9307 9.17038C12.9677 9.17038 13.0043 9.16308 13.0385 9.1489C13.0726 9.13472 13.1037 9.11394 13.1298 9.08775L13.3328 8.88469C13.4105 8.92238 13.4892 8.95444 13.5702 8.98256V9.27C13.5702 9.34459 13.5999 9.41613 13.6526 9.46887C13.7053 9.52162 13.7769 9.55125 13.8515 9.55125H14.6952C14.7698 9.55125 14.8413 9.52162 14.8941 9.46887C14.9468 9.41613 14.9765 9.34459 14.9765 9.27V8.98256C15.0575 8.95444 15.1362 8.92181 15.2138 8.88469L15.4169 9.08775C15.4696 9.14048 15.5412 9.1701 15.6157 9.1701C15.6903 9.1701 15.7619 9.14048 15.8146 9.08775L16.4108 8.4915C16.4636 8.43876 16.4932 8.36723 16.4932 8.29266C16.4932 8.21808 16.4636 8.14655 16.4108 8.09381L16.2083 7.89019C16.2458 7.81308 16.2787 7.73381 16.3068 7.65281H16.5937C16.6682 7.65281 16.7398 7.62318 16.7925 7.57044C16.8453 7.51769 16.8749 7.44615 16.8749 7.37156V6.52781C16.8749 6.45322 16.8453 6.38168 16.7925 6.32894C16.7398 6.27619 16.6682 6.24656 16.5937 6.24656H16.3057C16.2777 6.16576 16.245 6.08669 16.2078 6.00975L16.4114 5.80612C16.4641 5.75338 16.4938 5.68186 16.4938 5.60728C16.4938 5.5327 16.4641 5.46118 16.4114 5.40844L15.8152 4.81219C15.789 4.786 15.758 4.76522 15.7238 4.75104C15.6897 4.73686 15.653 4.72956 15.616 4.72956C15.579 4.72956 15.5424 4.73686 15.5082 4.75104C15.4741 4.76522 15.443 4.786 15.4169 4.81219L15.2138 5.01525C15.1368 4.97751 15.0575 4.94445 14.9765 4.91625V4.62937C14.9765 4.55478 14.9468 4.48325 14.8941 4.4305C14.8413 4.37776 14.7698 4.34812 14.6952 4.34812H13.8515ZM14.1327 4.91062H14.414V5.10075C14.4138 5.16463 14.4353 5.22668 14.4751 5.27667C14.5149 5.32667 14.5705 5.36163 14.6328 5.37581C14.81 5.41631 14.9798 5.4855 15.1334 5.58225C15.1874 5.6162 15.2513 5.63079 15.3147 5.62364C15.378 5.61648 15.4371 5.588 15.4822 5.54288L15.616 5.40844L15.8146 5.60756L15.6807 5.74031C15.6356 5.78537 15.6071 5.84442 15.6 5.90779C15.5928 5.97116 15.6074 6.03508 15.6413 6.08906C15.737 6.24319 15.8078 6.41194 15.8478 6.58969C15.8618 6.6518 15.8965 6.70732 15.9461 6.74717C15.9958 6.78702 16.0575 6.80884 16.1212 6.80906H16.3124V7.09031H16.1223C16.0584 7.09028 15.9964 7.11199 15.9466 7.15186C15.8967 7.19173 15.8618 7.24739 15.8478 7.30969C15.8076 7.48697 15.7378 7.65621 15.6413 7.81031C15.6075 7.86424 15.593 7.92804 15.6002 7.99129C15.6073 8.05453 15.6357 8.11348 15.6807 8.1585L15.8146 8.29237L15.616 8.4915L15.4827 8.35706C15.4377 8.31207 15.3788 8.28368 15.3155 8.27653C15.2523 8.26937 15.1885 8.28388 15.1345 8.31769C14.9804 8.41378 14.8111 8.48319 14.6339 8.523C14.5714 8.53696 14.5155 8.57183 14.4756 8.62185C14.4356 8.67186 14.4138 8.73403 14.414 8.79806V8.98931H14.1327V8.79919C14.1329 8.7353 14.1113 8.67326 14.0716 8.62327C14.0318 8.57327 13.9762 8.53831 13.9139 8.52413C13.7366 8.48388 13.5674 8.41409 13.4133 8.31769C13.3594 8.2836 13.2956 8.26882 13.2322 8.27577C13.1688 8.28272 13.1097 8.31098 13.0645 8.35594L12.9307 8.49038L12.7321 8.29125L12.866 8.15737C12.9107 8.11243 12.9389 8.0537 12.9461 7.9907C12.9532 7.9277 12.9389 7.86413 12.9053 7.81031C12.8089 7.65622 12.7391 7.48698 12.6989 7.30969C12.685 7.24747 12.6504 7.19182 12.6007 7.15186C12.5511 7.1119 12.4893 7.09 12.4255 7.08975H12.2343V6.8085H12.4244C12.4883 6.80853 12.5502 6.78683 12.6001 6.74696C12.65 6.70709 12.6849 6.65142 12.6989 6.58912C12.7394 6.4125 12.8092 6.24263 12.9053 6.0885C12.9391 6.03457 12.9537 5.97077 12.9465 5.90753C12.9394 5.84428 12.911 5.78533 12.866 5.74031L12.7321 5.60644L12.9307 5.40731L13.064 5.54063C13.1089 5.58579 13.1677 5.6144 13.231 5.62175C13.2942 5.62911 13.3581 5.61479 13.4122 5.58112C13.5663 5.48494 13.7356 5.41463 13.9128 5.37469C13.9751 5.36077 14.0308 5.32607 14.0708 5.27628C14.1108 5.2265 14.1326 5.16459 14.1327 5.10075V4.91062ZM14.2733 6.02381C13.7654 6.02381 13.3475 6.44175 13.3475 6.94969C13.3475 7.45762 13.7654 7.87612 14.2733 7.87612C14.7813 7.87612 15.1992 7.45762 15.1992 6.94969C15.1992 6.44175 14.7813 6.02381 14.2733 6.02381ZM14.2733 6.58631C14.3699 6.58631 14.4624 6.62466 14.5307 6.69291C14.5989 6.76116 14.6373 6.85373 14.6373 6.95025C14.6373 7.04677 14.5989 7.13934 14.5307 7.20759C14.4624 7.27584 14.3699 7.31419 14.2733 7.31419C14.1768 7.31419 14.0843 7.27584 14.016 7.20759C13.9477 7.13934 13.9094 7.04677 13.9094 6.95025C13.9094 6.85373 13.9477 6.76116 14.016 6.69291C14.0843 6.62466 14.1768 6.58631 14.2733 6.58631ZM4.79297 7.875C2.46028 7.875 0.574219 9.7695 0.574219 12.1106V14.6503C0.574219 14.7249 0.60385 14.7964 0.656595 14.8492C0.70934 14.9019 0.780877 14.9316 0.855469 14.9316H3.02334C3.07705 14.948 3.13445 14.948 3.18816 14.9316H7.94297C7.97672 14.8298 8.02622 14.733 8.09709 14.6469C7.8833 14.6254 7.68471 14.5266 7.53853 14.3691H3.38728V12.1067C3.38781 12.069 3.38078 12.0317 3.3666 11.9968C3.35242 11.9619 3.33139 11.9302 3.30474 11.9036C3.27809 11.877 3.24637 11.8561 3.21147 11.842C3.17656 11.8279 3.13918 11.8209 3.10153 11.8215C3.0646 11.822 3.02812 11.8298 2.9942 11.8444C2.96027 11.859 2.92955 11.8802 2.9038 11.9067C2.87805 11.9331 2.85777 11.9644 2.84411 11.9988C2.83046 12.0331 2.8237 12.0698 2.82422 12.1067V14.3691H1.13672V12.1101C1.13672 10.0704 2.76347 8.4375 4.79297 8.4375H8.16797C9.01453 8.4375 9.78853 8.72438 10.4062 9.20306C10.5468 9.07819 10.7268 9 10.9293 9H11.0272C10.251 8.27639 9.22912 7.87431 8.16797 7.875H4.79297ZM10.9293 9.56363C10.8547 9.56363 10.7832 9.59326 10.7304 9.646C10.6777 9.69875 10.648 9.77028 10.648 9.84488V10.3472C10.4737 10.4012 10.3055 10.4704 10.1435 10.5548L9.78966 10.2004C9.73691 10.1476 9.66539 10.118 9.59081 10.118C9.51624 10.118 9.44471 10.1476 9.39197 10.2004L8.52403 11.0689C8.47131 11.1216 8.44168 11.1931 8.44168 11.2677C8.44168 11.3423 8.47131 11.4138 8.52403 11.4666L8.87841 11.8204C8.79347 11.9818 8.72372 12.15 8.66916 12.3244H8.16853C8.09394 12.3244 8.0224 12.354 7.96966 12.4068C7.91691 12.4595 7.88728 12.531 7.88728 12.6056V13.833C7.88728 13.9076 7.91691 13.9791 7.96966 14.0319C8.0224 14.0846 8.09394 14.1142 8.16853 14.1142H8.67028C8.72428 14.2886 8.79234 14.4574 8.87672 14.6194L8.52403 14.9738C8.47148 15.0265 8.44197 15.0979 8.44197 15.1723C8.44197 15.2468 8.47148 15.3182 8.52403 15.3709L9.39197 16.2388C9.44471 16.2915 9.51624 16.3212 9.59081 16.3212C9.66539 16.3212 9.73691 16.2915 9.78966 16.2388L10.144 15.8844C10.3055 15.9688 10.4731 16.0386 10.648 16.0926V16.5949C10.648 16.6695 10.6777 16.741 10.7304 16.7937C10.7832 16.8465 10.8547 16.8761 10.9293 16.8761H12.1561C12.2307 16.8761 12.3022 16.8465 12.355 16.7937C12.4077 16.741 12.4373 16.6695 12.4373 16.5949V16.0914C12.6117 16.0374 12.7805 15.9694 12.943 15.885L13.2968 16.2394C13.3496 16.2921 13.4211 16.3217 13.4957 16.3217C13.5703 16.3217 13.6418 16.2921 13.6945 16.2394L14.5625 15.3709C14.6152 15.3181 14.6448 15.2466 14.6448 15.172C14.6448 15.0975 14.6152 15.0259 14.5625 14.9732L14.2075 14.6188C14.2919 14.4563 14.3617 14.2886 14.4157 14.1142H14.918C14.9926 14.1142 15.0641 14.0846 15.1168 14.0319C15.1696 13.9791 15.1992 13.9076 15.1992 13.833V12.6056C15.1992 12.531 15.1696 12.4595 15.1168 12.4068C15.0641 12.354 14.9926 12.3244 14.918 12.3244H14.4151C14.3616 12.1505 14.2925 11.9818 14.2087 11.8204L14.5625 11.466C14.615 11.4133 14.6445 11.3419 14.6445 11.2674C14.6445 11.193 14.615 11.1216 14.5625 11.0689L13.6945 10.2009C13.6418 10.1482 13.5703 10.1186 13.4957 10.1186C13.4211 10.1186 13.3496 10.1482 13.2968 10.2009L12.9419 10.5553C12.7804 10.4705 12.6115 10.4005 12.4373 10.3461V9.84488C12.4373 9.77028 12.4077 9.69875 12.355 9.646C12.3022 9.59326 12.2307 9.56363 12.1561 9.56363H10.9293ZM11.2105 10.1261H11.8748V10.5306C11.875 10.5942 11.8968 10.6558 11.9365 10.7055C11.9763 10.7551 12.0316 10.7898 12.0937 10.8039C12.3653 10.8658 12.6252 10.9733 12.8615 11.1212C12.9153 11.1553 12.9792 11.1701 13.0425 11.1631C13.1059 11.1562 13.165 11.1279 13.2102 11.0829L13.4954 10.7972L13.9657 11.2674L13.681 11.5509C13.6359 11.596 13.6074 11.655 13.6003 11.7184C13.5931 11.7818 13.6077 11.8457 13.6417 11.8997C13.789 12.1359 13.8959 12.3947 13.9567 12.6675C13.9707 12.7299 14.0056 12.7856 14.0556 12.8255C14.1057 12.8654 14.1678 12.887 14.2317 12.8869H14.6367V13.5517H14.2328C14.169 13.5515 14.1071 13.573 14.0571 13.6127C14.0071 13.6523 13.9721 13.7078 13.9578 13.77C13.8959 14.0422 13.789 14.3021 13.6405 14.5384C13.6067 14.5923 13.5922 14.6561 13.5994 14.7194C13.6065 14.7826 13.6349 14.8415 13.6799 14.8866L13.9657 15.1723L13.4954 15.6426L13.2108 15.3579C13.1658 15.3132 13.1071 15.285 13.0441 15.2778C12.9811 15.2707 12.9175 15.285 12.8637 15.3186C12.6275 15.4659 12.367 15.5722 12.0948 15.6336C12.0325 15.6476 11.9768 15.6824 11.9369 15.7323C11.8971 15.7822 11.8754 15.8442 11.8754 15.9081V16.3136H11.2105V15.9092C11.2106 15.8454 11.189 15.7835 11.1492 15.7336C11.1094 15.6837 11.0539 15.6488 10.9917 15.6347C10.7197 15.5726 10.4602 15.4652 10.2239 15.3169C10.1699 15.2829 10.106 15.2683 10.0426 15.2755C9.97927 15.2826 9.92021 15.3111 9.87516 15.3562L9.59109 15.6426L9.12084 15.1723L9.40434 14.8877C9.44924 14.8429 9.47768 14.7842 9.48503 14.7212C9.49238 14.6582 9.47822 14.5946 9.44484 14.5406C9.29733 14.3037 9.19083 14.0435 9.12984 13.7711C9.11577 13.7087 9.08086 13.653 9.03085 13.6131C8.98085 13.5732 8.91874 13.5516 8.85478 13.5517H8.44978V12.8869H8.85366C8.91735 12.8868 8.97913 12.8651 9.02889 12.8254C9.07866 12.7856 9.11345 12.7302 9.12759 12.6681C9.18947 12.3964 9.29634 12.1365 9.44484 11.9003C9.47879 11.8464 9.49349 11.7827 9.48654 11.7195C9.47959 11.6562 9.45141 11.5972 9.40659 11.5521L9.12084 11.2674L9.59109 10.7972L9.87459 11.0807C9.91948 11.1259 9.97836 11.1545 10.0416 11.1618C10.1049 11.1692 10.1687 11.1548 10.2228 11.1212C10.459 10.9738 10.7183 10.8675 10.9906 10.8062C11.0529 10.7921 11.1086 10.7573 11.1484 10.7074C11.1883 10.6575 11.21 10.5956 11.21 10.5317V10.1261H11.2105ZM11.543 11.8136C11.1707 11.8151 10.814 11.9636 10.5506 12.2267C10.2873 12.4899 10.1385 12.8464 10.1367 13.2188C10.1383 13.5913 10.287 13.9482 10.5503 14.2117C10.8137 14.4753 11.1704 14.6242 11.543 14.6261C11.9156 14.6245 12.2724 14.4756 12.5357 14.212C12.799 13.9484 12.9475 13.5914 12.9487 13.2188C12.9472 12.8464 12.7986 12.4898 12.5353 12.2266C12.272 11.9634 11.9153 11.815 11.543 11.8136ZM11.543 12.3761C11.7667 12.3761 11.9814 12.465 12.1396 12.6233C12.2978 12.7815 12.3867 12.9961 12.3867 13.2199C12.3867 13.4437 12.2978 13.6583 12.1396 13.8165C11.9814 13.9747 11.7667 14.0636 11.543 14.0636C11.0789 14.0636 10.6992 13.6834 10.6992 13.2188C10.6992 12.7541 11.0783 12.3761 11.543 12.3761Z" fill="#02101B"/>
</svg>
