<svg width="16" height="16" viewBox="0 0 16 16" fill="none" xmlns="http://www.w3.org/2000/svg">
<g clip-path="url(#clip0_4433_542)">
<path d="M16 8.37543C16 8.41003 15.9985 8.44539 15.9954 8.48094C15.9473 9.03935 15.8934 9.59723 15.8336 10.1545C15.7911 10.5696 15.5265 10.8721 15.2045 10.8721C15.1455 10.8721 15.0871 10.8617 15.0306 10.8412C14.7099 10.7209 14.3486 10.5856 13.9467 10.4357C13.9259 10.4357 13.8652 10.4653 13.82 10.5533C13.622 10.9405 13.4149 11.3231 13.1989 11.7006C13.1731 11.7456 13.1591 11.7948 13.1591 11.8394C13.1591 11.8753 13.1687 11.9068 13.1837 11.9195L14.1677 12.7613C14.3095 12.8837 14.3872 13.0615 14.3872 13.2625C14.3872 13.4954 14.2788 13.733 14.097 13.8981C13.6567 14.2976 13.1879 14.6646 12.6942 14.996C12.542 15.0976 12.3634 15.1526 12.1803 15.1542C11.9213 15.1542 11.6993 15.037 11.5869 14.8407L10.9722 13.7564C10.9561 13.7278 10.8585 13.7053 10.7701 13.7374C10.3672 13.883 9.96186 14.0214 9.55411 14.1525C9.45282 14.185 9.41669 14.2475 9.41554 14.2621L9.60177 15.337C9.60638 15.3629 9.60849 15.3902 9.60849 15.4171C9.60849 15.7494 9.26775 16 8.81631 16H7.18408C6.73225 16 6.3917 15.7494 6.3917 15.4173C6.3917 15.3921 6.39362 15.3666 6.39785 15.3408L6.58465 14.2603C6.58331 14.2475 6.54717 14.1852 6.44589 14.1527C6.03833 14.0216 5.63314 13.8833 5.23051 13.7378C5.19914 13.7261 5.16597 13.72 5.1325 13.7197C5.07138 13.7197 5.03602 13.742 5.02814 13.7559L4.41411 14.8398C4.30053 15.0373 4.07875 15.1544 3.81987 15.1544C3.63729 15.1529 3.4591 15.0982 3.30712 14.997C2.81312 14.6653 2.34391 14.2981 1.90321 13.8983C1.7214 13.733 1.61301 13.4954 1.61301 13.2627C1.61301 13.0615 1.69065 12.8839 1.83153 12.7623L2.81571 11.9203C2.83127 11.907 2.84088 11.8755 2.84088 11.8396C2.84088 11.795 2.82666 11.7458 2.8011 11.7008C2.58509 11.3232 2.37793 10.9406 2.17977 10.5533C2.13479 10.4654 2.07387 10.4359 2.05292 10.4359C1.65126 10.5858 1.28995 10.7209 0.972265 10.8402C0.586742 10.9803 0.216593 10.6459 0.166048 10.1526C0.113005 9.66538 0.0616915 9.13399 0.00461248 8.4821C0.00158215 8.44656 4.3287e-05 8.41091 0 8.37524C0 7.93187 0.224857 7.61765 0.546767 7.61111C0.840426 7.60861 1.19635 7.6065 1.60455 7.60477C1.61493 7.59977 1.66855 7.54788 1.68412 7.44199C1.74812 7.00438 1.81673 6.57504 1.88841 6.16569C1.89182 6.1464 1.89356 6.12685 1.8936 6.10726C1.8936 6.02482 1.86093 5.97485 1.84709 5.96793C1.44523 5.82129 1.08335 5.68945 0.763744 5.57337C0.520246 5.48247 0.370341 5.22744 0.370341 4.90649C0.370341 4.78291 0.393595 4.6555 0.437414 4.53769C0.648548 3.98568 0.892086 3.44663 1.16676 2.92333C1.30917 2.65004 1.57976 2.47304 1.85555 2.47304C2.0018 2.47304 2.13691 2.52166 2.24665 2.61391L3.2289 3.44588C3.24063 3.45607 3.26119 3.45703 3.26946 3.45703C3.31577 3.45703 3.37151 3.43243 3.4184 3.39149C3.48778 3.33076 3.55831 3.27003 3.62903 3.20949C3.65976 3.18325 3.69537 3.16332 3.7338 3.15084C3.77224 3.13837 3.81276 3.13359 3.85305 3.13678C3.89333 3.13998 3.93259 3.15108 3.96858 3.16946C4.00457 3.18784 4.03659 3.21313 4.0628 3.2439L4.06453 3.24639C4.1166 3.30851 4.14202 3.38869 4.13525 3.46946C4.12848 3.55024 4.09008 3.62507 4.0284 3.67766C3.95978 3.73627 3.89137 3.79527 3.82372 3.85466C3.66286 3.99515 3.46606 4.07241 3.26946 4.07241C3.10891 4.07374 2.95314 4.0178 2.83012 3.91462L1.85017 3.08419C1.8296 3.08823 1.75965 3.11782 1.71218 3.20892C1.44892 3.71014 1.21552 4.22648 1.0132 4.75524C0.99531 4.8036 0.986072 4.85473 0.98591 4.9063C0.98591 4.9555 0.995135 4.98836 1.00205 5.00489C1.31339 5.11809 1.66682 5.24666 2.05811 5.38964C2.33178 5.48862 2.50917 5.77036 2.50917 6.10707C2.50917 6.16165 2.50437 6.217 2.49476 6.27158C2.42422 6.67517 2.35638 7.09894 2.29315 7.53078C2.23492 7.92956 1.94607 8.21938 1.60648 8.21996C1.2371 8.22169 0.909997 8.22361 0.636518 8.22553C0.625755 8.2582 0.615569 8.30932 0.615569 8.37505C0.615569 8.39273 0.616338 8.41099 0.617876 8.42925C0.67457 9.07576 0.725499 9.60292 0.778158 10.0878C0.785269 10.1572 0.805064 10.2083 0.822553 10.2389C1.12236 10.1264 1.46253 9.99901 1.83787 9.85891C1.90668 9.83307 1.97961 9.81991 2.05312 9.82009C2.32583 9.82009 2.58432 9.99325 2.72749 10.2721C2.92138 10.6509 3.12393 11.0252 3.33499 11.3947C3.41436 11.533 3.45626 11.687 3.45626 11.8392C3.45626 12.0575 3.36843 12.2576 3.21507 12.3881L2.23262 13.2287C2.233 13.2289 2.2282 13.2406 2.2282 13.2623C2.2282 13.3081 2.25145 13.3828 2.31679 13.4422C2.73476 13.8216 3.17982 14.17 3.64845 14.4846C3.69957 14.5186 3.76222 14.5384 3.81949 14.5384C3.85946 14.5384 3.88157 14.5286 3.88637 14.5252L4.49195 13.4526C4.61494 13.2345 4.85422 13.1038 5.13211 13.1038C5.23609 13.1038 5.33987 13.1224 5.44019 13.1589C5.82456 13.2981 6.22642 13.4353 6.63424 13.5665C6.97229 13.6755 7.19945 13.9548 7.19945 14.2617C7.19945 14.2959 7.19657 14.3301 7.1908 14.3639L7.01899 15.3575C7.05493 15.371 7.11143 15.3844 7.18369 15.3844H8.81592C8.88818 15.3844 8.94469 15.371 8.98063 15.3573L8.809 14.3651C8.80297 14.3309 8.79995 14.2963 8.79997 14.2617C8.79997 13.9548 9.02713 13.6755 9.36557 13.5665C9.76612 13.4378 10.1643 13.3019 10.56 13.1589C10.6599 13.1224 10.7637 13.104 10.8677 13.104C11.1452 13.104 11.3845 13.2346 11.5082 13.4534L12.1217 14.5361C12.1184 14.5288 12.1405 14.5388 12.1805 14.5388C12.2378 14.5388 12.3006 14.519 12.3527 14.4842C12.821 14.1699 13.2656 13.8217 13.6832 13.4426C13.7485 13.3832 13.772 13.3084 13.772 13.2625C13.7728 13.2502 13.7706 13.238 13.7655 13.2268L12.7845 12.3877C12.6318 12.2578 12.5439 12.0577 12.5439 11.8394C12.5439 11.687 12.5858 11.5332 12.6652 11.3949C12.8763 11.0256 13.0789 10.6515 13.2727 10.2729C13.4157 9.99363 13.6742 9.82028 13.9471 9.82028C14.0215 9.82028 14.0939 9.83335 14.1629 9.8591C14.5371 9.99882 14.8761 10.1259 15.178 10.2391C15.2026 10.1928 15.2176 10.142 15.222 10.0897C15.2749 9.60311 15.3258 9.07576 15.3827 8.42809C15.384 8.41099 15.385 8.39292 15.385 8.37524C15.385 8.30932 15.3746 8.2582 15.3639 8.22553C15.0927 8.22361 14.7646 8.22169 14.3929 8.21996C14.0543 8.21938 13.7655 7.92956 13.7072 7.53078C13.6458 7.11008 13.5786 6.69025 13.5056 6.27139C13.496 6.21714 13.4911 6.16216 13.491 6.10707C13.491 5.77017 13.6684 5.48843 13.9432 5.38926C14.3328 5.24704 14.6855 5.11847 14.9981 5.00489C15.0051 4.98836 15.0143 4.9555 15.0143 4.9063C15.0143 4.85556 15.0045 4.80252 14.986 4.75274C14.7841 4.22515 14.5513 3.7099 14.2888 3.20969C14.2452 3.12647 14.1771 3.08784 14.1446 3.08784L13.1691 3.91501C13.0462 4.01753 12.8908 4.0731 12.7307 4.07183C12.5341 4.07183 12.3373 3.99457 12.1771 3.85447C11.8594 3.57698 11.5343 3.30827 11.2019 3.04864C10.9955 2.8872 10.8727 2.65062 10.8727 2.41558C10.8727 2.30103 10.9019 2.18957 10.9573 2.09347L11.548 1.06009C11.5089 1.02559 11.4619 1.00112 11.4112 0.988793C10.8781 0.848689 10.3403 0.727028 9.79876 0.624026C9.71593 0.608843 9.61964 0.61826 9.57947 0.630752L9.40881 1.60782C9.35231 1.93569 9.02771 2.17419 8.63719 2.17419L8.62047 2.174C8.21496 2.16958 7.79177 2.16939 7.37607 2.17419C6.97344 2.17419 6.64865 1.93569 6.59234 1.60725L6.42187 0.631136C6.3819 0.618644 6.29003 0.608651 6.1999 0.624794C5.66 0.727537 5.1238 0.848878 4.59227 0.988601C4.51847 1.00763 4.47446 1.04203 4.45524 1.06394L5.04448 2.09463C5.09944 2.19053 5.12866 2.3018 5.12866 2.41596C5.12866 2.54396 5.09233 2.67464 5.02353 2.7938C4.98266 2.8644 4.91544 2.91589 4.83664 2.93697C4.75783 2.95805 4.67388 2.94699 4.60322 2.90623C4.58159 2.89328 4.56159 2.8778 4.54364 2.8601C4.49444 2.81251 4.46253 2.74986 4.45296 2.68209C4.44338 2.61431 4.4567 2.54527 4.49079 2.48592C4.50396 2.46487 4.51174 2.44091 4.51347 2.41615C4.51371 2.41081 4.51273 2.40549 4.51059 2.40059L3.90271 1.33895C3.85534 1.25592 3.83031 1.16203 3.83006 1.06644C3.83006 0.76163 4.07932 0.484883 4.43621 0.393211C4.98165 0.249858 5.53188 0.12544 6.08593 0.0201794C6.15935 0.0067264 6.23141 0.00019208 6.30233 0.00019208C6.68363 0.00019208 6.96345 0.180462 7.01553 0.459323L7.19811 1.5027C7.2056 1.51653 7.26614 1.5592 7.36358 1.5592C7.79311 1.55439 8.21111 1.55439 8.63181 1.5592C8.73405 1.5592 8.79421 1.51653 8.80324 1.49847L8.9837 0.462398C9.03617 0.18027 9.31618 0 9.69748 0C9.76878 0 9.84085 0.00653434 9.91157 0.0196029C10.4672 0.125225 11.0189 0.250028 11.5659 0.393788C11.9205 0.484883 12.1696 0.76163 12.1696 1.06644C12.1696 1.16118 12.1448 1.25497 12.0979 1.33799L11.4875 2.41615C11.4875 2.45363 11.5161 2.51417 11.5803 2.56433C11.9215 2.83084 12.2553 3.10667 12.5814 3.39149C12.6281 3.43243 12.6838 3.45684 12.7302 3.45684C12.7405 3.45684 12.7594 3.45549 12.7703 3.44646L13.7522 2.61449C13.8617 2.52199 14.0007 2.47175 14.1441 2.47285C14.4195 2.47285 14.6901 2.64985 14.8331 2.9241C15.1073 3.44631 15.3503 3.98428 15.561 4.53519C15.606 4.6555 15.6293 4.78291 15.6293 4.90649C15.6293 5.22744 15.4794 5.48266 15.2382 5.57241C14.9165 5.68926 14.5546 5.8211 14.1529 5.96793C14.1389 5.97504 14.1062 6.02482 14.1062 6.10726C14.1062 6.12629 14.1079 6.14589 14.1116 6.16569C14.1833 6.57523 14.2519 7.00458 14.3159 7.44218C14.3314 7.54808 14.3851 7.59997 14.4018 7.60573C14.8038 7.60669 15.1598 7.60881 15.4494 7.61111C15.7751 7.61803 16 7.93225 16 8.37543ZM2.8503 7.92111C2.8503 5.04275 5.16037 2.70116 7.9999 2.70116C10.8394 2.70116 13.1495 5.04275 13.1495 7.92111C13.1495 10.7995 10.8394 13.1412 7.9999 13.1412C5.16037 13.1412 2.8503 10.7995 2.8503 7.92111ZM3.46568 7.92111C3.46568 10.4601 5.49977 12.5259 7.9999 12.5259C10.5 12.5259 12.5341 10.4601 12.5341 7.92111C12.5341 5.38196 10.5 3.31654 7.9999 3.31654C5.49977 3.31635 3.46568 5.38196 3.46568 7.92111ZM5.04409 6.30214C5.07787 6.3243 5.11568 6.33958 5.15537 6.34712C5.19506 6.35466 5.23584 6.35431 5.27539 6.34608C5.31494 6.33785 5.35248 6.32191 5.38587 6.29917C5.41926 6.27643 5.44784 6.24733 5.46998 6.21354C5.77108 5.75271 6.19079 5.38154 6.68497 5.13903C6.72128 5.12128 6.75373 5.09655 6.78048 5.06625C6.80722 5.03595 6.82774 5.00069 6.84086 4.96246C6.85398 4.92423 6.85943 4.8838 6.85692 4.84346C6.85441 4.80312 6.84398 4.76368 6.82623 4.72737C6.80847 4.69107 6.78374 4.65862 6.75344 4.63187C6.72315 4.60512 6.68788 4.5846 6.64965 4.57149C6.61143 4.55837 6.57099 4.55291 6.53066 4.55542C6.49032 4.55793 6.45087 4.56836 6.41457 4.58612C5.82111 4.87731 5.31703 5.32296 4.95531 5.87626C4.93316 5.91005 4.91788 5.94787 4.91036 5.98756C4.90283 6.02726 4.9032 6.06805 4.91145 6.1076C4.91969 6.14715 4.93565 6.18469 4.95841 6.21807C4.98117 6.25145 5.01029 6.28002 5.04409 6.30214ZM8.0001 4.83557C9.45897 4.83557 10.6805 5.88625 10.9711 7.28209L10.8329 7.14526C10.7749 7.08784 10.6965 7.05581 10.6148 7.05623C10.5332 7.05664 10.4551 7.08946 10.3977 7.14747C10.3403 7.20547 10.3083 7.28391 10.3087 7.36553C10.3091 7.44714 10.3419 7.52525 10.3999 7.58267L11.1373 8.31259C11.1731 8.34786 11.2169 8.37387 11.265 8.38837C11.3131 8.40287 11.364 8.40542 11.4133 8.39581C11.4626 8.38614 11.5087 8.36458 11.5477 8.33299C11.5867 8.3014 11.6173 8.26074 11.637 8.21457L12.0458 7.25519C12.0752 7.18674 12.0787 7.10993 12.0556 7.0391C12.0326 6.96826 11.9845 6.90823 11.9205 6.87019C11.8564 6.83216 11.7807 6.81872 11.7075 6.83237C11.6343 6.84603 11.5685 6.88586 11.5225 6.94442C11.0981 5.376 9.68018 4.22 8.0001 4.22C7.91847 4.22 7.84018 4.25243 7.78246 4.31015C7.72474 4.36787 7.69231 4.44616 7.69231 4.52779C7.69231 4.60942 7.72474 4.6877 7.78246 4.74542C7.84018 4.80315 7.91847 4.83557 8.0001 4.83557ZM10.3257 9.90542C9.90215 10.4172 9.31791 10.7808 8.68062 10.929C8.64126 10.9382 8.6041 10.955 8.57124 10.9785C8.53838 11.002 8.51048 11.0318 8.48913 11.0661C8.46778 11.1004 8.45339 11.1386 8.44679 11.1785C8.44019 11.2183 8.44151 11.2591 8.45068 11.2985C8.45984 11.3378 8.47666 11.375 8.50019 11.4079C8.52371 11.4407 8.55348 11.4686 8.58779 11.49C8.6221 11.5113 8.66028 11.5257 8.70014 11.5323C8.74001 11.5389 8.78079 11.5376 8.82015 11.5284C9.58793 11.3499 10.2909 10.9129 10.8 10.2979C10.8521 10.235 10.877 10.154 10.8693 10.0727C10.8617 9.99142 10.822 9.91653 10.7591 9.86448C10.6962 9.81244 10.6152 9.78752 10.5339 9.7952C10.4527 9.80287 10.3778 9.84252 10.3257 9.90542ZM4.08298 9.01368C4.15304 9.04339 4.23164 9.04606 4.30356 9.02118C4.37548 8.99629 4.43562 8.94562 4.47234 8.87896C4.85018 10.3084 6.0523 11.4122 7.56057 11.5955C7.60068 11.6004 7.64137 11.5973 7.68029 11.5864C7.71922 11.5756 7.75563 11.5572 7.78744 11.5323C7.81925 11.5073 7.84584 11.4764 7.86569 11.4412C7.88554 11.406 7.89827 11.3672 7.90314 11.3271C7.90801 11.287 7.90493 11.2463 7.89408 11.2074C7.88323 11.1685 7.86482 11.1321 7.83989 11.1002C7.81497 11.0684 7.78403 11.0418 7.74883 11.022C7.71363 11.0021 7.67487 10.9894 7.63475 10.9845C6.34961 10.8283 5.33083 9.86621 5.04409 8.63142L5.13346 8.71983C5.16218 8.74825 5.19622 8.77073 5.23363 8.78599C5.27104 8.80126 5.31109 8.809 5.35149 8.80879C5.3919 8.80858 5.43186 8.80041 5.46911 8.78475C5.50635 8.76909 5.54015 8.74624 5.56857 8.71752C5.59699 8.6888 5.61947 8.65477 5.63473 8.61736C5.65 8.57995 5.65774 8.5399 5.65753 8.49949C5.65731 8.45909 5.64914 8.41912 5.63348 8.38188C5.61783 8.34463 5.59498 8.31083 5.56626 8.28242L4.82885 7.5525C4.79321 7.51709 4.74944 7.49097 4.70137 7.4764C4.65329 7.46184 4.60238 7.45928 4.55309 7.46895C4.5038 7.47863 4.45763 7.50023 4.41863 7.53188C4.37962 7.56354 4.34897 7.60427 4.32936 7.65051L3.92039 8.6099C3.88843 8.68501 3.8876 8.76973 3.91809 8.84545C3.94858 8.92117 4.00789 8.98168 4.08298 9.01368Z" fill="black"/>
</g>
<defs>
<clipPath id="clip0_4433_542">
<rect width="16" height="16" fill="white"/>
</clipPath>
</defs>
</svg>
