<svg width="30" height="22" viewBox="0 0 30 22" fill="none" xmlns="http://www.w3.org/2000/svg">
<path d="M2.14082 0.798828C0.964655 0.798828 0 1.71955 0 2.83883V19.1507C0 20.2699 0.964655 21.1988 2.14082 21.1988H27.8592C29.0353 21.1988 30 20.2699 30 19.1507V2.83883C30 1.71955 29.0353 0.798828 27.8592 0.798828H2.14082ZM2.14082 2.15609H27.8592C28.2622 2.15609 28.5766 2.45531 28.5766 2.83883V13.5991L20.655 7.13639C20.2754 6.82889 19.7952 6.65654 19.2967 6.64885C18.7982 6.64115 18.3125 6.79864 17.9225 7.09426C17.9187 7.09424 17.9149 7.09424 17.9111 7.09426L12.6048 11.1402C12.4756 11.2387 12.3145 11.2915 12.149 11.2895C11.9835 11.2875 11.8238 11.2309 11.6973 11.1294L9.14349 9.11248C8.78324 8.82989 8.3358 8.66713 7.86934 8.64896C7.40287 8.63079 6.94295 8.7582 6.55965 9.01183L1.4234 12.4173V2.83883C1.4234 2.45531 1.73781 2.15609 2.14082 2.15609ZM19.2645 8.00274C19.4304 8.00706 19.5896 8.06618 19.7147 8.17C19.7185 8.17003 19.7223 8.17003 19.7261 8.17L28.5766 15.3916V19.1507C28.5766 19.5342 28.2622 19.8333 27.8592 19.8333H2.14082C2.04629 19.8344 1.95248 19.8176 1.86492 19.7836C1.77736 19.7497 1.69782 19.6994 1.63097 19.6358C1.56412 19.5722 1.51132 19.4965 1.47567 19.4132C1.44003 19.3299 1.42225 19.2406 1.4234 19.1507V14.067L7.37138 10.1243C7.50052 10.0396 7.65552 9.99781 7.81219 10.0057C7.96887 10.0136 8.11839 10.0706 8.23742 10.1678L10.7913 12.1752C11.1708 12.4727 11.6461 12.6371 12.1377 12.6411C12.6294 12.645 13.1075 12.4883 13.4923 12.197L18.8086 8.14826C18.9381 8.04976 19.1002 7.9982 19.2659 8.00274H19.2645Z" fill="#435BAA"/>
</svg>
