<svg width="18" height="18" viewBox="0 0 18 18" fill="none" xmlns="http://www.w3.org/2000/svg">
<g clip-path="url(#clip0_3692_482)">
<path d="M13.9505 5.625H5.52403C5.4541 5.625 5.38703 5.65278 5.33759 5.70223C5.28814 5.75168 5.26036 5.81874 5.26036 5.88867C5.26036 5.9586 5.28814 6.02567 5.33759 6.07512C5.38703 6.12456 5.4541 6.15234 5.52403 6.15234H13.9505C14.0204 6.15234 14.0875 6.12456 14.1369 6.07512C14.1864 6.02567 14.2142 5.9586 14.2142 5.88867C14.2142 5.81874 14.1864 5.75168 14.1369 5.70223C14.0875 5.65278 14.0204 5.625 13.9505 5.625ZM14.6522 8.95598C14.6278 8.93132 14.5987 8.91173 14.5667 8.89834C14.5346 8.88494 14.5003 8.87801 14.4655 8.87793C14.4308 8.87785 14.3964 8.88463 14.3643 8.89789C14.3322 8.91114 14.3031 8.9306 14.2785 8.95515C14.254 8.9797 14.2345 9.00886 14.2212 9.04095C14.208 9.07305 14.2012 9.10744 14.2013 9.14217C14.2013 9.17689 14.2083 9.21126 14.2217 9.24329C14.2351 9.27533 14.2546 9.30441 14.2793 9.32885L14.7944 9.844C14.8189 9.86849 14.848 9.88792 14.88 9.90117C14.912 9.91443 14.9463 9.92125 14.9809 9.92125C15.0155 9.92125 15.0498 9.91443 15.0818 9.90117C15.1138 9.88792 15.1429 9.86849 15.1674 9.844L16.4824 8.52891C16.5069 8.50442 16.5263 8.47535 16.5396 8.44336C16.5528 8.41137 16.5596 8.37708 16.5596 8.34245C16.5596 8.30783 16.5528 8.27354 16.5396 8.24155C16.5263 8.20956 16.5069 8.18049 16.4824 8.156C16.4579 8.13152 16.4289 8.1121 16.3969 8.09884C16.3649 8.08559 16.3306 8.07877 16.296 8.07877C16.2613 8.07877 16.227 8.08559 16.1951 8.09884C16.1631 8.1121 16.134 8.13152 16.1095 8.156L14.9809 9.28466L14.6522 8.95598ZM5.74805 4.74609H10.8832C11.0463 4.74591 11.2027 4.68103 11.318 4.56569C11.4333 4.45035 11.4982 4.29397 11.4984 4.13086V2.19727C11.4982 2.03415 11.4333 1.87777 11.318 1.76243C11.2027 1.6471 11.0463 1.58222 10.8832 1.58203H5.74805C5.58493 1.58222 5.42855 1.6471 5.31322 1.76243C5.19788 1.87777 5.133 2.03415 5.13281 2.19727V4.13086C5.133 4.29397 5.19788 4.45035 5.31322 4.56569C5.42855 4.68103 5.58493 4.74591 5.74805 4.74609ZM5.66016 2.19727C5.66018 2.17396 5.66945 2.15162 5.68593 2.13515C5.70241 2.11867 5.72475 2.1094 5.74805 2.10938H10.8832C10.9065 2.1094 10.9288 2.11867 10.9453 2.13515C10.9618 2.15162 10.971 2.17396 10.9711 2.19727V4.13086C10.971 4.15416 10.9618 4.1765 10.9453 4.19298C10.9288 4.20945 10.9065 4.21872 10.8832 4.21875H5.74805C5.72475 4.21872 5.70241 4.20945 5.68593 4.19298C5.66945 4.1765 5.66018 4.15416 5.66016 4.13086V2.19727ZM6.30401 12.2168C6.30401 12.2867 6.33179 12.3538 6.38124 12.4032C6.43068 12.4527 6.49775 12.4805 6.56768 12.4805H13.9505C14.0204 12.4805 14.0875 12.4527 14.1369 12.4032C14.1864 12.3538 14.2142 12.2867 14.2142 12.2168C14.2142 12.1469 14.1864 12.0798 14.1369 12.0304C14.0875 11.9809 14.0204 11.9531 13.9505 11.9531H6.56768C6.49775 11.9531 6.43068 11.9809 6.38124 12.0304C6.33179 12.0798 6.30401 12.1469 6.30401 12.2168ZM17.7363 2.98828C17.8063 2.98828 17.8733 2.9605 17.9228 2.91105C17.9722 2.86161 18 2.79454 18 2.72461V1.37763C17.9996 1.01239 17.8543 0.662219 17.596 0.403951C17.3378 0.145684 16.9876 0.000409426 16.6224 0C16.6091 0 16.5961 0.000632812 16.5829 0.00101953C16.5763 0.000492187 16.5698 0 16.5631 0H4.99669C4.64716 0.000390818 4.31205 0.139414 4.0649 0.38657C3.81774 0.633726 3.67872 0.968829 3.67833 1.31836V8.08594H3.375C3.06275 8.08629 2.7634 8.21049 2.54261 8.43128C2.32182 8.65207 2.19762 8.95143 2.19727 9.26367V10.916C2.19742 11.2284 2.27539 11.5358 2.42413 11.8105C2.57288 12.0851 2.7877 12.3184 3.04921 12.4893C3.0252 12.6666 2.95244 12.8337 2.83903 12.9721C2.72562 13.1104 2.57602 13.2146 2.4069 13.2729L1.00723 13.7559C0.71312 13.8572 0.45799 14.0479 0.27743 14.3012C0.096869 14.5545 -0.000117448 14.8579 1.06737e-07 15.169L0.00527354 16.861C0.00671235 17.1633 0.127666 17.4527 0.341733 17.6661C0.555799 17.8795 0.845592 17.9995 1.14785 18H14.4889C14.4984 18 14.508 17.9994 14.5175 17.9984C14.8556 17.9816 15.1743 17.8356 15.4078 17.5906C15.6413 17.3455 15.7717 17.0201 15.7721 16.6816V11.5898C16.392 11.4962 16.9577 11.1833 17.3665 10.7081C17.7753 10.2329 18.0001 9.62685 18.0001 9C18.0001 8.37315 17.7753 7.76708 17.3665 7.29187C16.9577 6.81666 16.392 6.50382 15.7721 6.41018V2.98828H17.7363ZM2.72461 9.26367C2.7248 9.09123 2.79338 8.92591 2.91531 8.80398C3.03724 8.68205 3.20256 8.61347 3.375 8.61328H4.78125C4.95369 8.61347 5.11901 8.68205 5.24094 8.80398C5.36287 8.92591 5.43145 9.09123 5.43164 9.26367V9.47781L3.87802 9.0958C3.75381 9.06485 3.62375 9.06612 3.50017 9.09951C3.37659 9.1329 3.26359 9.1973 3.17187 9.28659L2.72461 9.71944V9.26367ZM2.72461 10.916V10.4533L3.53858 9.66558C3.56631 9.63857 3.60048 9.6191 3.63784 9.609C3.67521 9.59891 3.71453 9.59852 3.75209 9.60789L5.43164 10.0209V10.916C5.43164 11.275 5.28904 11.6193 5.03521 11.8731C4.78137 12.1269 4.4371 12.2695 4.07812 12.2695C3.71915 12.2695 3.37488 12.1269 3.12104 11.8731C2.86721 11.6193 2.72461 11.275 2.72461 10.916ZM4.14935 13.3117C3.87966 13.3229 3.613 13.2513 3.38527 13.1064C3.45544 12.9851 3.50819 12.8546 3.54196 12.7186C3.89178 12.823 4.26447 12.823 4.61429 12.7186C4.64878 12.8575 4.70308 12.9908 4.77552 13.1143C4.58698 13.2323 4.37147 13.3002 4.14935 13.3117ZM4.64534 15.9407L4.14563 16.5403C4.13738 16.5502 4.12706 16.5582 4.1154 16.5636C4.10373 16.5691 4.09101 16.5719 4.07812 16.5719C4.06524 16.5719 4.05252 16.5691 4.04086 16.5636C4.02919 16.5582 4.01887 16.5502 4.01062 16.5403L3.51088 15.9406C3.50235 15.9304 3.49625 15.9184 3.49305 15.9056C3.48984 15.8927 3.48962 15.8792 3.49239 15.8662L3.92164 13.832C3.97564 13.8371 4.03088 13.8405 4.08821 13.8405C4.11666 13.8405 4.14552 13.8398 4.17473 13.8384C4.19498 13.8375 4.21464 13.8356 4.23443 13.8339L4.66383 15.8663C4.66661 15.8793 4.66639 15.8927 4.66318 15.9056C4.65998 15.9185 4.65387 15.9305 4.64534 15.9407ZM7.45453 17.2919C7.39752 17.3494 7.32966 17.395 7.25488 17.426C7.18011 17.457 7.09991 17.4729 7.01895 17.4727H6.66211V16.4534C6.66211 16.3834 6.63433 16.3164 6.58488 16.2669C6.53543 16.2175 6.46837 16.1897 6.39844 16.1897C6.32851 16.1897 6.26144 16.2175 6.21199 16.2669C6.16255 16.3164 6.13477 16.3834 6.13477 16.4534V17.4727H1.98633V16.4534C1.98633 16.3834 1.95855 16.3164 1.9091 16.2669C1.85965 16.2175 1.79259 16.1897 1.72266 16.1897C1.65273 16.1897 1.58566 16.2175 1.53621 16.2669C1.48676 16.3164 1.45898 16.3834 1.45898 16.4534V17.4727H1.14785C0.985105 17.4724 0.829065 17.4078 0.713798 17.2929C0.59853 17.178 0.533397 17.0222 0.532617 16.8594L0.527344 15.1682C0.52735 14.967 0.59014 14.7708 0.706955 14.607C0.823771 14.4432 0.98879 14.32 1.179 14.2545L2.57875 13.7715C2.74757 13.7134 2.90458 13.6254 3.04228 13.5118C3.15723 13.5897 3.28017 13.6552 3.40903 13.707L2.9764 15.7573C2.95695 15.8483 2.95849 15.9425 2.98091 16.0327C3.00333 16.123 3.04603 16.2069 3.10577 16.2782L3.60548 16.8779C3.66322 16.9472 3.73549 17.003 3.81716 17.0412C3.89884 17.0795 3.98793 17.0993 4.07812 17.0993C4.16832 17.0993 4.25741 17.0795 4.33909 17.0412C4.42076 17.003 4.49303 16.9472 4.55077 16.8779L5.05048 16.2783C5.11022 16.207 5.15292 16.123 5.17532 16.0327C5.19772 15.9424 5.19923 15.8482 5.17975 15.7572L4.74824 13.7149C4.8796 13.6634 5.00482 13.5974 5.1216 13.5182C5.25744 13.6288 5.41171 13.7145 5.57733 13.7714L6.97743 14.2545C7.16771 14.3201 7.33277 14.4435 7.44956 14.6075C7.56635 14.7714 7.62905 14.9677 7.62891 15.169L7.63418 16.8553C7.63465 16.9364 7.61902 17.0167 7.58818 17.0917C7.55734 17.1666 7.51191 17.2347 7.45453 17.2919ZM7.9818 17.4727C8.10024 17.2881 8.16266 17.0731 8.16152 16.8538L8.15741 15.5391H13.0299V16.6289C13.0297 16.9349 13.1324 17.2321 13.3214 17.4727H7.9818ZM15.2448 15.274L15.2447 15.2754V16.6289C15.2447 16.8527 15.1558 17.0673 14.9976 17.2255C14.8394 17.3838 14.6248 17.4727 14.401 17.4727C14.1772 17.4727 13.9626 17.3838 13.8044 17.2255C13.6461 17.0673 13.5572 16.8527 13.5572 16.6289V15.2754C13.5572 15.2055 13.5295 15.1384 13.48 15.0889C13.4306 15.0395 13.3635 15.0117 13.2936 15.0117C13.2876 15.0117 13.2818 15.0122 13.276 15.0126C13.2701 15.0122 13.2643 15.0117 13.2584 15.0117H8.14781C8.11807 14.7291 8.00832 14.4608 7.83144 14.2384C7.65456 14.0159 7.4179 13.8486 7.14923 13.7559L5.74914 13.2728C5.58006 13.2145 5.4305 13.1103 5.31713 12.972C5.20376 12.8336 5.13103 12.6665 5.10704 12.4893C5.36855 12.3184 5.58337 12.0851 5.73212 11.8105C5.88086 11.5358 5.95883 11.2284 5.95898 10.916V9.26367C5.95863 8.95143 5.83443 8.65207 5.61364 8.43128C5.39285 8.21049 5.0935 8.08629 4.78125 8.08594H4.20567V1.31836C4.2059 1.10864 4.28932 0.907578 4.43761 0.759284C4.58591 0.61099 4.78697 0.527576 4.99669 0.527344H15.5397C15.3484 0.769486 15.2445 1.06908 15.2447 1.37763V2.72461L15.2448 2.72598V6.38438C14.5746 6.41914 13.9432 6.70988 13.4811 7.19659C13.019 7.6833 12.7613 8.32885 12.7613 9C12.7613 9.67115 13.019 10.3167 13.4811 10.8034C13.9432 11.2901 14.5746 11.5809 15.2448 11.6156V15.274ZM17.4727 9C17.4727 9.41372 17.35 9.81815 17.1201 10.1621C16.8903 10.5061 16.5636 10.7742 16.1814 10.9326C15.7991 11.0909 15.3785 11.1323 14.9728 11.0516C14.567 10.9709 14.1943 10.7717 13.9017 10.4791C13.6092 10.1866 13.41 9.81386 13.3293 9.40809C13.2485 9.00232 13.29 8.58173 13.4483 8.1995C13.6066 7.81728 13.8747 7.49058 14.2187 7.26073C14.5627 7.03088 14.9671 6.9082 15.3809 6.9082C15.9354 6.90883 16.4671 7.12941 16.8593 7.52156C17.2514 7.91372 17.472 8.44541 17.4727 9ZM15.7721 2.46094V1.37763C15.7721 1.15212 15.8617 0.935848 16.0211 0.776388C16.1806 0.616928 16.3969 0.527344 16.6224 0.527344C16.8479 0.527344 17.0642 0.616928 17.2236 0.776388C17.3831 0.935848 17.4727 1.15212 17.4727 1.37763V2.46094H15.7721ZM13.9505 13.5352H8.67705C8.60712 13.5352 8.54006 13.5629 8.49061 13.6124C8.44116 13.6618 8.41338 13.7289 8.41338 13.7988C8.41338 13.8688 8.44116 13.9358 8.49061 13.9853C8.54006 14.0347 8.60712 14.0625 8.67705 14.0625H13.9505C14.0204 14.0625 14.0875 14.0347 14.1369 13.9853C14.1864 13.9358 14.2142 13.8688 14.2142 13.7988C14.2142 13.7289 14.1864 13.6618 14.1369 13.6124C14.0875 13.5629 14.0204 13.5352 13.9505 13.5352ZM11.6464 9.31641C11.7163 9.31641 11.7833 9.28863 11.8328 9.23918C11.8822 9.18973 11.91 9.12266 11.91 9.05273C11.91 8.9828 11.8822 8.91574 11.8328 8.86629C11.7833 8.81684 11.7163 8.78906 11.6464 8.78906H6.99609C6.92616 8.78906 6.8591 8.81684 6.80965 8.86629C6.7602 8.91574 6.73242 8.9828 6.73242 9.05273C6.73242 9.12266 6.7602 9.18973 6.80965 9.23918C6.8591 9.28863 6.92616 9.31641 6.99609 9.31641H11.6464ZM12.3926 7.4707C12.3926 7.40077 12.3648 7.33371 12.3154 7.28426C12.2659 7.23481 12.1988 7.20703 12.1289 7.20703H5.52403C5.4541 7.20703 5.38703 7.23481 5.33759 7.28426C5.28814 7.33371 5.26036 7.40077 5.26036 7.4707C5.26036 7.54063 5.28814 7.6077 5.33759 7.65715C5.38703 7.7066 5.4541 7.73438 5.52403 7.73438H12.1289C12.1988 7.73438 12.2659 7.7066 12.3154 7.65715C12.3648 7.6077 12.3926 7.54063 12.3926 7.4707ZM7.10156 10.8984H12.1289C12.1988 10.8984 12.2659 10.8707 12.3154 10.8212C12.3648 10.7718 12.3926 10.7047 12.3926 10.6348C12.3926 10.5648 12.3648 10.4978 12.3154 10.4483C12.2659 10.3989 12.1988 10.3711 12.1289 10.3711H7.10156C7.03163 10.3711 6.96457 10.3989 6.91512 10.4483C6.86567 10.4978 6.83789 10.5648 6.83789 10.6348C6.83789 10.7047 6.86567 10.7718 6.91512 10.8212C6.96457 10.8707 7.03163 10.8984 7.10156 10.8984Z" fill="#02101B"/>
</g>
<defs>
<clipPath id="clip0_3692_482">
<rect width="18" height="18" fill="white"/>
</clipPath>
</defs>
</svg>
