<svg width="28" height="14" viewBox="0 0 28 14" fill="none" xmlns="http://www.w3.org/2000/svg">
<path d="M0.894336 6.88125C0.888086 6.925 0.881836 6.9625 0.881836 7C0.881836 7.0375 0.888086 7.075 0.900586 7.11875C0.906836 7.15625 0.913086 7.2 0.931836 7.2375C0.944336 7.275 0.969336 7.30625 0.994336 7.34375C1.01309 7.36875 1.01934 7.4 1.03809 7.425C1.26934 7.68125 6.90059 13.875 14.0006 13.875C21.1006 13.875 26.7318 7.68125 26.9693 7.41875C26.9881 7.39375 27.0006 7.3625 27.0193 7.3375C27.0443 7.30625 27.0631 7.26875 27.0818 7.23125C27.0943 7.19375 27.1068 7.15625 27.1131 7.1125C27.1193 7.075 27.1318 7.0375 27.1318 6.99375C27.1318 6.95625 27.1256 6.91875 27.1131 6.875C27.1068 6.8375 27.1006 6.79375 27.0818 6.75625C27.0693 6.71875 27.0443 6.6875 27.0193 6.65C27.0006 6.625 26.9943 6.59375 26.9756 6.56875C26.7318 6.31875 21.1006 0.125 14.0006 0.125C6.90059 0.125 1.26934 6.31875 1.03184 6.58125C1.01309 6.60625 1.00059 6.6375 0.981836 6.6625C0.956836 6.69375 0.938086 6.73125 0.919336 6.76875C0.913086 6.80625 0.906836 6.84375 0.894336 6.88125ZM14.0006 1.375C19.5318 1.375 24.2631 5.64375 25.6318 7C24.2693 8.35625 19.5443 12.625 14.0006 12.625C8.46934 12.625 3.73809 8.35625 2.36934 7C3.73184 5.64375 8.46309 1.375 14.0006 1.375Z" fill="#435BAA"/>
<path d="M15.875 7C15.875 5.96875 15.0312 5.125 14 5.125C12.9688 5.125 12.125 5.96875 12.125 7C12.125 8.03125 12.9688 8.875 14 8.875C15.0312 8.875 15.875 8.03125 15.875 7ZM13.375 7C13.375 6.65625 13.6562 6.375 14 6.375C14.3438 6.375 14.625 6.65625 14.625 7C14.625 7.34375 14.3438 7.625 14 7.625C13.6562 7.625 13.375 7.34375 13.375 7Z" fill="#435BAA"/>
<path d="M18.375 7C18.375 4.5875 16.4125 2.625 14 2.625C11.5875 2.625 9.625 4.5875 9.625 7C9.625 9.4125 11.5875 11.375 14 11.375C16.4125 11.375 18.375 9.4125 18.375 7ZM10.875 7C10.875 5.275 12.275 3.875 14 3.875C15.725 3.875 17.125 5.275 17.125 7C17.125 8.725 15.725 10.125 14 10.125C12.275 10.125 10.875 8.725 10.875 7Z" fill="#435BAA"/>
</svg>
