<svg width="17" height="19" viewBox="0 0 17 19" fill="none" xmlns="http://www.w3.org/2000/svg">
<path d="M9.89086 14.3178C9.89086 13.6955 10.8523 12.0154 11.4902 10.8953H11.49C11.764 10.4579 12.0064 10.0014 12.215 9.52932C12.3568 9.08846 12.4343 8.62951 12.4453 8.16657C12.4453 6.61031 11.6151 5.17242 10.2673 4.39415C8.91957 3.61601 7.25912 3.61601 5.91137 4.39415C4.56362 5.17228 3.7334 6.61016 3.7334 8.16657C3.74354 8.63271 3.82104 9.09483 3.9637 9.53878C4.17274 10.0076 4.41497 10.461 4.68863 10.8953C5.32649 12.0061 6.28796 13.6955 6.28796 14.3178H6.28782C6.28782 14.4003 6.3206 14.4795 6.37894 14.5378C6.43741 14.5962 6.51645 14.6289 6.59896 14.6289H9.57977C9.66228 14.6289 9.74132 14.5962 9.79979 14.5378C9.85813 14.4795 9.89091 14.4003 9.89091 14.3178H9.89086ZM9.30596 14.0067H6.87282C6.71419 13.2288 6.03274 11.9968 5.23004 10.5841H5.2299C4.98113 10.1821 4.75473 9.76657 4.55165 9.33958C4.43137 8.95981 4.36539 8.56493 4.35567 8.16657C4.35567 6.83269 5.06727 5.60008 6.2225 4.93307C7.37773 4.26621 8.80093 4.26621 9.95616 4.93307C11.1114 5.60008 11.823 6.83269 11.823 8.16657C11.8133 8.56493 11.7473 8.95985 11.627 9.33958C11.4239 9.76657 11.1975 10.1821 10.9488 10.5841C10.1459 11.9968 9.46461 13.2288 9.30584 14.0067H9.30596Z" fill="#5370D1"/>
<path d="M9.17894 18.1157L8.75266 18.3616H7.42728L7.001 18.1157C6.85155 18.0299 6.6607 18.0814 6.57473 18.2309C6.48888 18.3803 6.54042 18.5712 6.68988 18.6572L7.1877 18.9434C7.23548 18.9696 7.28882 18.9834 7.34327 18.9839H8.83673C8.89118 18.9834 8.94452 18.9696 8.9923 18.9434L9.49012 18.6727C9.63958 18.5867 9.69111 18.3959 9.60527 18.2464C9.51929 18.097 9.32844 18.0455 9.179 18.1313L9.17894 18.1157Z" fill="#5370D1"/>
<path d="M9.30267 15.0037L6.81356 15.2495C6.64174 15.2581 6.50936 15.4044 6.51798 15.5762C6.52659 15.748 6.67285 15.8804 6.84467 15.8718H6.87579L9.3649 15.6229C9.44754 15.615 9.52366 15.5744 9.5763 15.5101C9.62895 15.4459 9.65353 15.3633 9.64492 15.2806C9.63631 15.1985 9.59533 15.1231 9.53116 15.0713C9.46699 15.0194 9.38476 14.995 9.30267 15.0037V15.0037Z" fill="#5370D1"/>
<path d="M9.30267 15.9392L6.81356 16.1851C6.64174 16.1937 6.50936 16.3399 6.51798 16.5118C6.52659 16.6836 6.67285 16.8159 6.84467 16.8073H6.87579L9.3649 16.5584C9.44754 16.5505 9.52366 16.5099 9.5763 16.4456C9.62895 16.3815 9.65353 16.2988 9.64492 16.2162C9.63631 16.1341 9.59533 16.0587 9.53116 16.0068C9.46699 15.9549 9.38476 15.9306 9.30267 15.9392V15.9392Z" fill="#5370D1"/>
<path d="M9.30267 16.8728L6.81356 17.1186C6.64174 17.1273 6.50936 17.2735 6.51798 17.4453C6.52659 17.6172 6.67285 17.7495 6.84467 17.7409H6.87579L9.3649 17.492C9.44754 17.4841 9.52366 17.4435 9.5763 17.3792C9.62895 17.3151 9.65353 17.2324 9.64492 17.1498C9.63631 17.0677 9.59533 16.9922 9.53116 16.9404C9.46699 16.8885 9.38476 16.8642 9.30267 16.8728V16.8728Z" fill="#5370D1"/>
<path d="M7.77832 0.627545V2.80552C7.77832 2.97734 7.91764 3.11665 8.08946 3.11665C8.26128 3.11665 8.4006 2.97734 8.4006 2.80552V0.627545C8.4006 0.455725 8.26128 0.316406 8.08946 0.316406C7.91764 0.316406 7.77832 0.455725 7.77832 0.627545Z" fill="#5370D1"/>
<path d="M12.2716 4.67018L13.8087 3.11448H13.8086C13.8866 2.99156 13.8688 2.83084 13.7658 2.72792C13.6629 2.62486 13.5021 2.60708 13.3792 2.68514L11.8391 4.24084C11.7201 4.35682 11.7133 4.54586 11.8235 4.67017C11.8823 4.72837 11.9617 4.76088 12.0444 4.76046C12.1293 4.76254 12.2114 4.73004 12.2716 4.67017L12.2716 4.67018Z" fill="#5370D1"/>
<path d="M16.1792 8.40489C16.1792 8.32238 16.1464 8.24321 16.088 8.18487C16.0297 8.12653 15.9505 8.09375 15.868 8.09375H13.69C13.5182 8.09375 13.3789 8.23307 13.3789 8.40489C13.3789 8.57671 13.5182 8.71603 13.69 8.71603H15.868C15.9505 8.71603 16.0297 8.68325 16.088 8.62491C16.1464 8.56657 16.1792 8.4874 16.1792 8.40489Z" fill="#5370D1"/>
<path d="M13.3796 14.1231C13.4378 14.1826 13.5174 14.2162 13.6005 14.2165C13.7263 14.2159 13.8395 14.1397 13.8872 14.0233C13.9348 13.9067 13.9077 13.7731 13.8183 13.6845L12.272 12.1381C12.2133 12.0773 12.1324 12.043 12.048 12.043C11.9634 12.043 11.8825 12.0773 11.8239 12.1381C11.7032 12.2595 11.7032 12.4555 11.8239 12.5768L13.3796 14.1231Z" fill="#5370D1"/>
<path d="M2.58914 14.2173C2.6722 14.2171 2.75179 14.1834 2.80999 14.124L4.36568 12.5683C4.47778 12.4457 4.47361 12.2566 4.35638 12.139C4.2979 12.0801 4.21845 12.0469 4.13553 12.0469C4.05246 12.0469 3.97301 12.0801 3.91454 12.139L2.37136 13.6947C2.28205 13.7833 2.25482 13.917 2.30246 14.0334C2.35011 14.1498 2.46331 14.2262 2.58916 14.2266L2.58914 14.2173Z" fill="#5370D1"/>
<path d="M0.311139 8.71603H2.48911C2.66093 8.71603 2.80025 8.57671 2.80025 8.40489C2.80025 8.23307 2.66093 8.09375 2.48911 8.09375H0.311139C0.139319 8.09375 0 8.23307 0 8.40489C0 8.57671 0.139319 8.71603 0.311139 8.71603Z" fill="#5370D1"/>
<path d="M2.37178 2.68447C2.25107 2.80574 2.25107 3.00186 2.37178 3.12313L3.90887 4.67882H3.90874C3.96749 4.73702 4.04694 4.76952 4.12973 4.76911C4.21598 4.76883 4.29821 4.73272 4.35683 4.66951C4.47753 4.54811 4.47753 4.35212 4.35683 4.23086L2.80114 2.67517C2.67849 2.56308 2.48944 2.56724 2.3718 2.68447L2.37178 2.68447Z" fill="#5370D1"/>
<path d="M9.8568 8.73554L8.08956 9.34224L6.32233 8.75108C6.21343 8.70996 6.09065 8.73316 6.00411 8.81108C5.91771 8.88901 5.88201 9.00874 5.9116 9.12139L7.15615 13.1662C7.20602 13.338 7.38562 13.4369 7.55758 13.387C7.7294 13.3372 7.8283 13.1576 7.77843 12.9856L6.69876 9.51644L7.98997 9.96455C8.05456 9.98636 8.12456 9.98636 8.18915 9.96455L9.48036 9.53202L8.40069 12.9857C8.37291 13.0683 8.38111 13.1586 8.42305 13.2348C8.465 13.3112 8.53709 13.3664 8.62154 13.3871C8.65155 13.3918 8.68196 13.3918 8.71183 13.3871C8.85379 13.3932 8.98186 13.3022 9.02297 13.1662L10.2675 9.12143C10.302 9.00947 10.2707 8.88779 10.1867 8.8064C10.1026 8.725 9.98 8.69764 9.8693 8.73556L9.8568 8.73554Z" fill="#5370D1"/>
</svg>
