<svg width="15" height="17" viewBox="0 0 15 17" fill="none" xmlns="http://www.w3.org/2000/svg">
<path fill-rule="evenodd" clip-rule="evenodd" d="M12.4169 15.6891C11.5656 15.6891 10.8377 15.1164 10.5512 14.3129C10.5446 14.2942 10.5383 14.2754 10.5321 14.2566C10.528 14.2439 10.5239 14.2311 10.5199 14.2182C10.5141 14.1991 10.5085 14.1798 10.5031 14.1605C10.4993 14.147 10.4958 14.1334 10.4923 14.1199C10.4875 14.1013 10.4829 14.0827 10.4787 14.064C10.4751 14.0488 10.472 14.0337 10.4687 14.0185C10.4652 14.001 10.4616 13.9835 10.4584 13.966C10.4552 13.9489 10.4525 13.9318 10.4498 13.9147C10.4471 13.8984 10.4445 13.8823 10.4423 13.866C10.4397 13.8468 10.4376 13.8274 10.4354 13.808C10.4337 13.7935 10.4319 13.7789 10.4306 13.7641C10.4286 13.7418 10.4271 13.7192 10.4258 13.6967C10.4251 13.6847 10.4241 13.6727 10.4235 13.6607C10.4219 13.626 10.4209 13.5912 10.4209 13.556C10.4209 13.5233 10.422 13.4908 10.4234 13.4584C10.4236 13.4516 10.4239 13.4448 10.4242 13.4379C10.4258 13.4077 10.428 13.3775 10.4307 13.3475C10.4314 13.3392 10.4323 13.3309 10.4332 13.3228C10.4358 13.2971 10.4388 13.2718 10.4422 13.2465C10.4435 13.2377 10.4446 13.2289 10.4459 13.2202C10.4498 13.1948 10.454 13.1698 10.4586 13.1448C10.4606 13.1339 10.4626 13.123 10.4648 13.1123C10.47 13.086 10.4755 13.0599 10.4816 13.034C10.4841 13.0237 10.4868 13.0135 10.4894 13.0033C10.4945 12.9825 10.5001 12.9619 10.5058 12.9414C10.5083 12.9327 10.5106 12.924 10.5131 12.9154C10.521 12.8886 10.5295 12.862 10.5383 12.8357C10.5411 12.8275 10.5439 12.8194 10.5467 12.8112C10.5566 12.7833 10.5666 12.7555 10.5774 12.7281C10.5783 12.7261 10.5791 12.7242 10.5799 12.7223C10.5917 12.6927 10.604 12.6634 10.617 12.6345C10.6176 12.6333 10.6182 12.632 10.6188 12.6306C10.9417 11.9166 11.6264 11.4229 12.4169 11.4229C13.5174 11.4229 14.4128 12.3797 14.4128 13.556C14.4128 14.7323 13.5174 15.6891 12.4169 15.6891M9.89031 14.1297H8.80408L8.03103 12.4332L8.36915 11.7397C8.46317 11.547 8.45635 11.3209 8.35092 11.1351C8.24548 10.9492 8.06112 10.8383 7.85768 10.8383H6.31101C6.10758 10.8383 5.92322 10.9492 5.81778 11.135C5.71234 11.3209 5.70542 11.547 5.79944 11.7397L6.13764 12.4332L5.36459 14.1297H0.719344C0.908942 13.6807 1.30198 12.9577 1.991 12.5288C1.99529 12.5261 1.99959 12.5233 2.00378 12.5204C2.70222 12.0328 3.55955 11.5735 4.31608 11.1684C4.94733 10.8302 5.4459 10.5632 5.71821 10.352C5.98505 10.145 6.13063 9.90475 6.15096 9.63794C6.18786 9.15358 5.81821 8.75492 5.42696 8.33273C5.22489 8.11475 5.01602 7.88937 4.88143 7.6669C4.48117 7.00477 4.1442 6.1761 4.4143 3.34687C4.50853 2.36024 4.97303 1.65811 5.79494 1.26023C6.43564 0.950075 7.06429 0.943681 7.06995 0.943681C7.07614 0.943681 7.68779 0.947265 8.32827 1.25218C9.16065 1.64848 9.63083 2.35328 9.72568 3.34687C9.99576 6.17615 9.65881 7.00477 9.25845 7.6669C9.12398 7.88936 8.91509 8.11473 8.71303 8.33273C8.32167 8.75492 7.95213 9.15358 7.98891 9.63794C8.00925 9.90477 8.15482 10.145 8.42167 10.352C8.69395 10.5632 9.19252 10.8303 9.82391 11.1684C10.068 11.2992 10.3341 11.4417 10.6037 11.5905C10.4672 11.7343 10.3475 11.8935 10.2449 12.064C10.2427 12.0676 10.2405 12.0713 10.2384 12.075C10.2206 12.1049 10.2033 12.1351 10.1865 12.1657C10.1794 12.1787 10.1724 12.1919 10.1654 12.2051C10.1538 12.2271 10.1425 12.249 10.1316 12.2713C10.1201 12.2947 10.1088 12.3183 10.0978 12.3421C10.0919 12.355 10.086 12.3679 10.0803 12.3809C10.0655 12.4145 10.051 12.4484 10.0374 12.4828C10.0358 12.4867 10.0344 12.4908 10.0328 12.4948C10.0176 12.5337 10.0031 12.573 9.9896 12.6128C9.98949 12.613 9.98949 12.6132 9.98939 12.6134C9.88898 12.9077 9.83417 13.2251 9.83417 13.556C9.83417 13.5801 9.83448 13.6041 9.83511 13.6278C9.83521 13.6357 9.83563 13.6434 9.83595 13.6511C9.83637 13.6673 9.83689 13.6835 9.83763 13.6996C9.83804 13.708 9.83878 13.7164 9.8392 13.725C9.84004 13.7403 9.84087 13.7556 9.84203 13.771C9.84255 13.7793 9.84339 13.7876 9.84402 13.7959C9.84538 13.8113 9.84653 13.8269 9.84811 13.8423C9.84873 13.8497 9.84968 13.8571 9.85041 13.8645C9.85219 13.881 9.85387 13.8975 9.85586 13.9137C9.8566 13.92 9.85754 13.9261 9.85838 13.9324C9.86058 13.95 9.86288 13.9676 9.8655 13.9851C9.86624 13.99 9.86697 13.995 9.86781 14C9.87064 14.0189 9.87357 14.0377 9.87682 14.0564C9.87745 14.06 9.87819 14.0636 9.87881 14.0672C9.88238 14.0874 9.88615 14.1077 9.89013 14.128C9.89024 14.1285 9.89034 14.1291 9.89045 14.1298M6.72654 12.2834L6.32765 11.4656H7.84107L7.44218 12.2834C7.39931 12.3717 7.39795 12.4763 7.43861 12.5658L8.1513 14.1298H6.01751L6.73012 12.5658C6.77089 12.4763 6.76953 12.3717 6.72655 12.2834M12.4171 10.7956C11.9443 10.7956 11.5008 10.9322 11.1192 11.1703C10.7636 10.9701 10.4065 10.7788 10.0869 10.6077C9.50366 10.2952 8.99994 10.0254 8.76654 9.84439C8.68269 9.77931 8.58124 9.68185 8.574 9.58708C8.55902 9.39027 8.87564 9.04864 9.13002 8.77418C9.35316 8.53346 9.58395 8.28457 9.75153 8.00733C10.3034 7.0944 10.5718 6.0288 10.3096 3.28325C10.1629 1.74685 9.28116 1.0192 8.56721 0.679214C7.81396 0.320536 7.1001 0.316406 7.07002 0.316406C7.04005 0.316406 6.32608 0.320551 5.57293 0.679214C4.85899 1.01917 3.97711 1.74682 3.8305 3.28325C3.56838 6.02886 3.83658 7.09457 4.38851 8.00733C4.5562 8.28457 4.78689 8.53347 5.01002 8.77418C5.2645 9.04862 5.58112 9.39025 5.56615 9.58708C5.55891 9.68185 5.45746 9.7793 5.37361 9.84439C5.1402 10.0254 4.63648 10.2953 4.05323 10.6075C3.32292 10.9987 2.41456 11.4853 1.68918 11.9909C0.435991 12.7755 0.0275431 14.2948 0.0107737 14.3592C-0.0138563 14.4536 0.00427561 14.555 0.0597188 14.633C0.115267 14.7111 0.20163 14.757 0.293441 14.757H5.46108C5.51537 14.7738 5.57155 14.7731 5.62364 14.757H8.54473C8.57124 14.7652 8.59891 14.7697 8.6269 14.7697C8.65373 14.7697 8.68077 14.7652 8.7075 14.757H10.0919C10.5105 15.6791 11.3955 16.3164 12.4172 16.3164C13.8413 16.3164 15 15.0782 15 13.556C15 12.0339 13.8413 10.7956 12.4172 10.7956M12.0224 14.0621L11.8074 14.1149L11.8568 13.8851L12.9923 12.6718L13.1578 12.8487L12.0224 14.0621ZM13.7803 12.6268L13.1998 12.0064C13.0851 11.8839 12.8994 11.8839 12.7848 12.0064L11.3822 13.5052C11.3432 13.5469 11.3161 13.5995 11.3038 13.6568L11.1304 14.4627C11.1077 14.568 11.1374 14.6783 11.2088 14.7547C11.2645 14.8143 11.3394 14.8467 11.4164 14.8467C11.4383 14.8467 11.4603 14.844 11.4821 14.8386L12.2361 14.6532C12.2898 14.6401 12.3389 14.611 12.3779 14.5694L13.7804 13.0704C13.8949 12.948 13.8949 12.7494 13.7804 12.6269L13.7803 12.6268Z" fill="#5370D1"/>
</svg>
