<svg width="20" height="28" viewBox="0 0 20 28" fill="none" xmlns="http://www.w3.org/2000/svg">
<path d="M9.5 9H2.5C2.36739 9 2.24021 9.05268 2.14645 9.14645C2.05268 9.24021 2 9.36739 2 9.5C2 9.63261 2.05268 9.75979 2.14645 9.85355C2.24021 9.94732 2.36739 10 2.5 10H9.5C9.63261 10 9.75979 9.94732 9.85355 9.85355C9.94732 9.75979 10 9.63261 10 9.5C10 9.36739 9.94732 9.24021 9.85355 9.14645C9.75979 9.05268 9.63261 9 9.5 9ZM9.5 5H2.5C2.36739 5 2.24021 5.05268 2.14645 5.14645C2.05268 5.24021 2 5.36739 2 5.5C2 5.63261 2.05268 5.75979 2.14645 5.85355C2.24021 5.94732 2.36739 6 2.5 6H9.5C9.63261 6 9.75979 5.94732 9.85355 5.85355C9.94732 5.75979 10 5.63261 10 5.5C10 5.36739 9.94732 5.24021 9.85355 5.14645C9.75979 5.05268 9.63261 5 9.5 5ZM9.5 13H2.5C2.36739 13 2.24021 13.0527 2.14645 13.1464C2.05268 13.2402 2 13.3674 2 13.5C2 13.6326 2.05268 13.7598 2.14645 13.8536C2.24021 13.9473 2.36739 14 2.5 14H9.5C9.63261 14 9.75979 13.9473 9.85355 13.8536C9.94732 13.7598 10 13.6326 10 13.5C10 13.3674 9.94732 13.2402 9.85355 13.1464C9.75979 13.0527 9.63261 13 9.5 13ZM17.5 9H13.5C13.3674 9 13.2402 9.05268 13.1464 9.14645C13.0527 9.24021 13 9.36739 13 9.5C13 9.63261 13.0527 9.75979 13.1464 9.85355C13.2402 9.94732 13.3674 10 13.5 10H17.5C17.6326 10 17.7598 9.94732 17.8536 9.85355C17.9473 9.75979 18 9.63261 18 9.5C18 9.36739 17.9473 9.24021 17.8536 9.14645C17.7598 9.05268 17.6326 9 17.5 9ZM17.5 5H13.5C13.3674 5 13.2402 5.05268 13.1464 5.14645C13.0527 5.24021 13 5.36739 13 5.5C13 5.63261 13.0527 5.75979 13.1464 5.85355C13.2402 5.94732 13.3674 6 13.5 6H17.5C17.6326 6 17.7598 5.94732 17.8536 5.85355C17.9473 5.75979 18 5.63261 18 5.5C18 5.36739 17.9473 5.24021 17.8536 5.14645C17.7598 5.05268 17.6326 5 17.5 5ZM17.5 13H13.5C13.3674 13 13.2402 13.0527 13.1464 13.1464C13.0527 13.2402 13 13.3674 13 13.5C13 13.6326 13.0527 13.7598 13.1464 13.8536C13.2402 13.9473 13.3674 14 13.5 14H17.5C17.6326 14 17.7598 13.9473 17.8536 13.8536C17.9473 13.7598 18 13.6326 18 13.5C18 13.3674 17.9473 13.2402 17.8536 13.1464C17.7598 13.0527 17.6326 13 17.5 13ZM16 18H17.5C17.6326 18 17.7598 17.9473 17.8536 17.8536C17.9473 17.7598 18 17.6326 18 17.5C18 17.3674 17.9473 17.2402 17.8536 17.1464C17.7598 17.0527 17.6326 17 17.5 17H16.5V16.5C16.5 16.3674 16.4473 16.2402 16.3536 16.1464C16.2598 16.0527 16.1326 16 16 16C15.8674 16 15.7402 16.0527 15.6464 16.1464C15.5527 16.2402 15.5 16.3674 15.5 16.5V17.062C14.64 17.258 14 17.937 14 18.75C14 19.715 14.897 20.5 16 20.5C16.542 20.5 17 20.843 17 21.25C17 21.657 16.542 22 16 22H14.5C14.3674 22 14.2402 22.0527 14.1464 22.1464C14.0527 22.2402 14 22.3674 14 22.5C14 22.6326 14.0527 22.7598 14.1464 22.8536C14.2402 22.9473 14.3674 23 14.5 23H15.5V23.5C15.5 23.6326 15.5527 23.7598 15.6464 23.8536C15.7402 23.9473 15.8674 24 16 24C16.1326 24 16.2598 23.9473 16.3536 23.8536C16.4473 23.7598 16.5 23.6326 16.5 23.5V22.938C17.36 22.742 18 22.063 18 21.25C18 20.285 17.103 19.5 16 19.5C15.458 19.5 15 19.157 15 18.75C15 18.343 15.458 18 16 18Z" fill="#435BAA"/>
<path d="M18.1821 0.666016H16.8184C16.6979 0.666016 16.5823 0.712841 16.497 0.79619C16.4118 0.87954 16.3639 0.992586 16.3639 1.11046C16.3639 1.84557 15.7521 2.44379 15.0002 2.44379C14.2484 2.44379 13.6366 1.84557 13.6366 1.11046C13.6366 0.992586 13.5887 0.87954 13.5035 0.79619C13.4182 0.712841 13.3026 0.666016 13.1821 0.666016H11.8184C11.6979 0.666016 11.5823 0.712841 11.497 0.79619C11.4118 0.87954 11.3639 0.992586 11.3639 1.11046C11.3639 1.84557 10.7521 2.44379 10.0002 2.44379C9.24843 2.44379 8.63661 1.84557 8.63661 1.11046C8.63661 0.992586 8.58872 0.87954 8.50348 0.79619C8.41823 0.712841 8.30262 0.666016 8.18206 0.666016H6.81843C6.69787 0.666016 6.58226 0.712841 6.49701 0.79619C6.41177 0.87954 6.36388 0.992586 6.36388 1.11046C6.36388 1.84557 5.75206 2.44379 5.00024 2.44379C4.24843 2.44379 3.63661 1.84557 3.63661 1.11046C3.63661 0.992586 3.58872 0.87954 3.50347 0.79619C3.41823 0.712841 3.30262 0.666016 3.18206 0.666016H1.81843C0.815699 0.666016 0.000244141 1.46335 0.000244141 2.44379V25.5549C0.000244141 26.5353 0.815699 27.3327 1.81843 27.3327H3.18206C3.30262 27.3327 3.41823 27.2859 3.50347 27.2025C3.58872 27.1192 3.63661 27.0061 3.63661 26.8882C3.63661 26.1531 4.24843 25.5549 5.00024 25.5549C5.75206 25.5549 6.36388 26.1531 6.36388 26.8882C6.36388 27.0061 6.41177 27.1192 6.49701 27.2025C6.58226 27.2859 6.69787 27.3327 6.81843 27.3327H8.18206C8.30262 27.3327 8.41823 27.2859 8.50348 27.2025C8.58872 27.1192 8.63661 27.0061 8.63661 26.8882C8.63661 26.1531 9.24843 25.5549 10.0002 25.5549C10.7521 25.5549 11.3639 26.1531 11.3639 26.8882C11.3639 27.0061 11.4118 27.1192 11.497 27.2025C11.5823 27.2859 11.6979 27.3327 11.8184 27.3327H13.1821C13.3026 27.3327 13.4182 27.2859 13.5035 27.2025C13.5887 27.1192 13.6366 27.0061 13.6366 26.8882C13.6366 26.1531 14.2484 25.5549 15.0002 25.5549C15.7521 25.5549 16.3639 26.1531 16.3639 26.8882C16.3639 27.0061 16.4118 27.1192 16.497 27.2025C16.5823 27.2859 16.6979 27.3327 16.8184 27.3327H18.1821C19.1848 27.3327 20.0002 26.5353 20.0002 25.5549V2.44379C20.0002 1.46335 19.1848 0.666016 18.1821 0.666016ZM19.0912 25.5549C19.0912 26.0447 18.683 26.4438 18.1821 26.4438H17.2275C17.0157 25.4305 16.0984 24.666 15.0002 24.666C13.9021 24.666 12.9848 25.4305 12.773 26.4438H12.2275C12.0157 25.4305 11.0984 24.666 10.0002 24.666C8.90206 24.666 7.98479 25.4305 7.77297 26.4438H7.22752C7.0157 25.4305 6.09843 24.666 5.00024 24.666C3.90206 24.666 2.98479 25.4305 2.77297 26.4438H1.81843C1.31752 26.4438 0.909335 26.0447 0.909335 25.5549V2.44379C0.909335 1.95402 1.31752 1.5549 1.81843 1.5549H2.77297C2.98479 2.56824 3.90206 3.33268 5.00024 3.33268C6.09843 3.33268 7.0157 2.56824 7.22752 1.5549H7.77297C7.98479 2.56824 8.90206 3.33268 10.0002 3.33268C11.0984 3.33268 12.0157 2.56824 12.2275 1.5549H12.773C12.9848 2.56824 13.9021 3.33268 15.0002 3.33268C16.0984 3.33268 17.0157 2.56824 17.2275 1.5549H18.1821C18.683 1.5549 19.0912 1.95402 19.0912 2.44379V25.5549Z" fill="#435BAA"/>
</svg>
