<svg width="16" height="16" viewBox="0 0 16 16" fill="none" xmlns="http://www.w3.org/2000/svg">
<g clip-path="url(#clip0_4433_532)">
<path d="M13.9969 15.9969H2.00391C0.901156 15.9969 0.00390625 15.0997 0.00390625 13.9969V2.00391C0.00390625 0.901156 0.901156 0.00390625 2.00391 0.00390625H13.9969C15.0997 0.00390625 15.9969 0.901156 15.9969 2.00391V13.9969C15.9969 15.0997 15.0997 15.9969 13.9969 15.9969ZM2.00391 0.503906C1.17666 0.503906 0.503906 1.17666 0.503906 2.00391V13.9969C0.503906 14.8242 1.17666 15.4969 2.00391 15.4969H13.9969C14.8242 15.4969 15.4969 14.8242 15.4969 13.9969V2.00391C15.4969 1.17666 14.8242 0.503906 13.9969 0.503906H2.00391Z" fill="black" stroke="black" stroke-width="0.4"/>
<path d="M0.253418 3.9375H15.7464V4.4375H0.253418V3.9375Z" fill="black" stroke="black" stroke-width="0.4"/>
<path d="M11.4629 4.1875H11.9629V15.7477H11.4629V4.1875Z" fill="black" stroke="black" stroke-width="0.4"/>
</g>
<defs>
<clipPath id="clip0_4433_532">
<rect width="16" height="16" fill="white"/>
</clipPath>
</defs>
</svg>
