<svg width="18" height="18" viewBox="0 0 18 18" fill="none" xmlns="http://www.w3.org/2000/svg">
<g clip-path="url(#clip0_3446_366)">
<path d="M16.125 10.875V3C16.125 2.4 15.6 1.875 15 1.875H1.5C0.9 1.875 0.375 2.4 0.375 3V15C0.375 15.6 0.9 16.125 1.5 16.125H10.875" stroke="#02101B" stroke-linecap="round" stroke-linejoin="round"/>
<path d="M4.5 4.125C4.70711 4.125 4.875 3.95711 4.875 3.75C4.875 3.54289 4.70711 3.375 4.5 3.375C4.29289 3.375 4.125 3.54289 4.125 3.75C4.125 3.95711 4.29289 4.125 4.5 4.125Z" stroke="#02101B" stroke-linecap="round" stroke-linejoin="round"/>
<path d="M12 4.125C12.2071 4.125 12.375 3.95711 12.375 3.75C12.375 3.54289 12.2071 3.375 12 3.375C11.7929 3.375 11.625 3.54289 11.625 3.75C11.625 3.95711 11.7929 4.125 12 4.125Z" stroke="#02101B" stroke-linecap="round" stroke-linejoin="round"/>
<path d="M4.875 3.75V0.375M12.375 3.75V0.375M0.375 5.625H16.125" stroke="#02101B" stroke-linecap="round" stroke-linejoin="round"/>
<path d="M13.875 17.625C15.9461 17.625 17.625 15.9461 17.625 13.875C17.625 11.8039 15.9461 10.125 13.875 10.125C11.8039 10.125 10.125 11.8039 10.125 13.875C10.125 15.9461 11.8039 17.625 13.875 17.625Z" stroke="#02101B" stroke-linecap="round" stroke-linejoin="round"/>
<path d="M13.875 11.625V13.875L15 15" stroke="#02101B" stroke-linecap="round" stroke-linejoin="round"/>
</g>
<defs>
<clipPath id="clip0_3446_366">
<rect width="18" height="18" fill="white"/>
</clipPath>
</defs>
</svg>
