<svg width="16" height="14" viewBox="0 0 16 14" fill="none" xmlns="http://www.w3.org/2000/svg">
<path d="M15.8322 10.4348C15.9192 10.5179 15.968 10.6307 15.968 10.7483C15.968 10.8659 15.9192 10.9786 15.8322 11.0618L13.5122 13.2792C13.4245 13.359 13.3076 13.4029 13.1865 13.4015C13.0654 13.4001 12.9497 13.3535 12.8641 13.2717C12.7784 13.1898 12.7297 13.0792 12.7282 12.9635C12.7267 12.8477 12.7726 12.736 12.8562 12.6522L14.3362 11.2376L10.3361 11.3218H10.2961C10.0277 11.3214 9.76207 11.2698 9.51479 11.17C9.26751 11.0702 9.04357 10.9242 8.85611 10.7406L5.60007 7.52151H0.464006C0.340944 7.52151 0.222922 7.47479 0.135904 7.39162C0.0488861 7.30845 0 7.19565 0 7.07803C0 6.96041 0.0488861 6.8476 0.135904 6.76443C0.222922 6.68126 0.340944 6.63454 0.464006 6.63454H5.60007L8.89611 3.41542C9.08385 3.23216 9.30784 3.0864 9.55506 2.98663C9.80227 2.88687 10.0678 2.83509 10.3361 2.8343H14.4002L12.8882 1.3662C12.8433 1.32541 12.8075 1.27646 12.7828 1.22223C12.7581 1.16801 12.7449 1.1096 12.7442 1.05046C12.7434 0.991313 12.7551 0.932621 12.7784 0.877836C12.8017 0.823052 12.8363 0.773283 12.8801 0.731457C12.9238 0.689632 12.9759 0.656596 13.0332 0.634294C13.0905 0.611992 13.1519 0.600874 13.2138 0.601595C13.2757 0.602317 13.3368 0.614862 13.3935 0.638493C13.4503 0.662125 13.5015 0.696364 13.5442 0.739197L15.8642 2.95664C15.9512 3.0398 16 3.15257 16 3.27014C16 3.38772 15.9512 3.50048 15.8642 3.58364L13.5442 5.80108C13.4565 5.88091 13.3396 5.9248 13.2185 5.92339C13.0974 5.92198 12.9817 5.87538 12.8961 5.79353C12.8104 5.71169 12.7617 5.60108 12.7602 5.48534C12.7587 5.36961 12.8046 5.2579 12.8882 5.17408L14.4002 3.71363H10.3201C10.1714 3.71085 10.0237 3.73724 9.88614 3.79116C9.74854 3.84508 9.62397 3.92539 9.52012 4.02713L6.42408 7.08567L9.50412 10.1442C9.60614 10.2483 9.73038 10.3301 9.86842 10.3842C10.0065 10.4383 10.1551 10.4634 10.3041 10.4577L14.4002 10.343L12.8002 8.81375C12.7553 8.77295 12.7195 8.72401 12.6948 8.66978C12.6701 8.61556 12.6569 8.55715 12.6562 8.49801C12.6554 8.43886 12.6671 8.38017 12.6904 8.32539C12.7137 8.2706 12.7483 8.22083 12.7921 8.17901C12.8358 8.13718 12.8879 8.10415 12.9452 8.08184C13.0025 8.05954 13.0639 8.04843 13.1258 8.04915C13.1877 8.04987 13.2488 8.06241 13.3055 8.08604C13.3623 8.10967 13.4135 8.14391 13.4562 8.18675L15.8322 10.4348Z" fill="black"/>
</svg>
