<svg width="10" height="16" viewBox="0 0 10 16" fill="none" xmlns="http://www.w3.org/2000/svg">
<path d="M2.063 0C1.51602 0.000529506 0.991596 0.218051 0.604824 0.604824C0.218051 0.991596 0.000529506 1.51602 0 2.063V13.936C0 15.074 0.925 16 2.063 16H7.938C8.48481 15.9992 9.00897 15.7816 9.39553 15.3948C9.78209 15.0081 9.99947 14.4838 10 13.937V2.063C9.99947 1.51602 9.78195 0.991596 9.39518 0.604824C9.0084 0.218051 8.48398 0.000529506 7.937 0L2.064 0H2.063ZM2.063 1H7.938C8.523 1 9 1.478 9 2.063V12H1V2.062C1 1.478 1.476 1 2.063 1ZM3.984 2.021V3.021H6V2.021H3.984ZM1 13H9V13.938C9 14.523 8.524 15 7.937 15H2.064C1.78198 15 1.5115 14.888 1.31199 14.6887C1.11248 14.4894 1.00027 14.219 1 13.937V13Z" fill="#142C7A"/>
</svg>
