<svg width="13" height="16" viewBox="0 0 13 16" fill="none" xmlns="http://www.w3.org/2000/svg">
<path d="M6.2797 1.00358C3.31762 1.12255 1 3.62358 1 6.69882C1.00094 11.0386 6.35204 14.749 6.58032 14.9045L6.71748 15L6.85182 14.8988C7.06226 14.7424 12 11.0283 12 6.27636C12 4.87316 11.4269 3.55145 10.3851 2.55479C9.8387 2.0369 9.19415 1.63295 8.4892 1.36659C7.78426 1.10022 7.03309 0.976814 6.2797 1.00358ZM6.50235 1.46632C7.82133 1.46632 9.10838 1.97964 10.061 2.892C11.0089 3.79968 11.5303 5.00149 11.5303 6.27636C11.5303 10.3679 7.49816 13.7879 6.70433 14.4202C5.8607 13.8047 1.46972 10.4176 1.46972 6.69695C1.47066 3.87556 3.59006 1.5806 6.29755 1.47194C6.36519 1.46913 6.43471 1.46632 6.50235 1.46632ZM6.43471 4.62961C5.99505 4.64835 5.59014 4.82164 5.29328 5.14481C5.14648 5.2976 5.03226 5.47847 4.9575 5.67649C4.88274 5.87451 4.849 6.08558 4.85831 6.29697C4.89401 7.17748 5.62209 7.81726 6.49953 7.81726H6.56529C7.00495 7.81726 7.4108 7.66083 7.7086 7.33953C8.00641 7.01824 8.15954 6.64917 8.14356 6.21079C8.13514 5.99511 8.08408 5.78322 7.99331 5.58727C7.90255 5.39132 7.77387 5.21517 7.61466 5.06893C7.45695 4.92145 7.27143 4.80668 7.06888 4.73126C6.86632 4.65584 6.65076 4.62129 6.43471 4.62961ZM6.50235 5.10921C6.79734 5.10921 7.07823 5.21881 7.29712 5.4202C7.52823 5.6319 7.66163 5.92228 7.6729 6.23514C7.67942 6.38853 7.65538 6.54168 7.60216 6.68574C7.54895 6.8298 7.46762 6.96192 7.36288 7.07444C7.25885 7.18781 7.13329 7.27947 6.99348 7.3441C6.85366 7.40874 6.70238 7.44508 6.54838 7.451H6.49953C5.87386 7.451 5.3534 6.95735 5.32804 6.32694C5.32149 6.17336 5.34541 6.02001 5.39842 5.87566C5.45144 5.73132 5.5325 5.59883 5.63697 5.48579C5.74144 5.37275 5.86726 5.28138 6.00722 5.21692C6.14717 5.15246 6.29851 5.11617 6.45256 5.11015H6.50235V5.10921Z" fill="#231F20" stroke="black" stroke-width="0.4"/>
</svg>
