<svg width="17" height="17" viewBox="0 0 17 17" fill="none" xmlns="http://www.w3.org/2000/svg">
<path d="M7.64227 0.945312V3.14956C7.64227 3.59056 7.86277 3.81106 8.23027 3.81106C8.59777 3.81106 8.81827 3.59056 8.81827 3.14956V0.945312M11.7568 6.52981C11.7568 8.07256 11.0953 9.54256 9.84652 10.4973C8.89102 11.2323 7.56877 11.2323 6.61402 10.5708C5.36527 9.61531 4.63027 8.07256 4.70377 6.52981H11.7568Z" stroke="black" stroke-width="0.5" stroke-linecap="round" stroke-linejoin="round"/>
<path d="M13.0792 16.5977V13.9525M3.30745 16.5977V13.9525M10.1917 10.2055C10.6469 10.2272 11.0954 10.279 11.5364 10.3675C12.0652 10.4777 12.5722 10.639 13.0574 10.9037C13.5191 11.1575 13.9484 11.466 14.3362 11.8225C15.2182 12.7045 15.8789 14.0267 16.1729 15.202C16.3199 15.8635 15.9524 16.4507 15.2909 16.5977H1.25695C0.595448 16.4507 0.227948 15.8627 0.374948 15.202C0.668948 14.0267 1.33045 12.7037 2.2117 11.8225C2.5957 11.4647 3.02273 11.1561 3.48295 10.9037C3.9682 10.639 4.4752 10.4777 5.00395 10.3675C5.39683 10.2896 5.79446 10.238 6.1942 10.213M10.7279 2.04997V2.63797C10.7291 2.71549 10.7146 2.79245 10.6855 2.86429C10.6563 2.93614 10.613 3.0014 10.5582 3.05622C10.5034 3.11105 10.4381 3.15432 10.3663 3.18347C10.2944 3.21263 10.2175 3.22708 10.1399 3.22597C9.84595 3.22597 9.55195 3.00547 9.55195 2.71147V1.16797M6.90745 1.16797V2.71072C6.90745 3.00472 6.61345 3.22522 6.31945 3.22522C6.24192 3.22633 6.16496 3.21188 6.09312 3.18272C6.02128 3.15357 5.95602 3.1103 5.90119 3.05547C5.84637 3.00065 5.8031 2.93539 5.77394 2.86354C5.74479 2.7917 5.73034 2.71474 5.73145 2.63722V2.04922" stroke="black" stroke-width="0.5" stroke-linecap="round" stroke-linejoin="round"/>
<path d="M12.1974 4.8405H11.9739C11.7961 2.601 10.1829 0.84375 8.20737 0.84375C6.23937 0.84375 4.62687 2.601 4.44837 4.8405H4.26237C3.74787 4.8405 3.38037 5.2815 3.38037 5.7225C3.38037 6.17325 3.82137 6.531 4.33587 6.531H12.1239C12.6384 6.531 13.0794 6.17325 13.0794 5.7225C13.0794 5.28075 12.7119 4.8405 12.1974 4.8405Z" stroke="black" stroke-width="0.5" stroke-linecap="round" stroke-linejoin="round"/>
</svg>
