<svg width="14" height="16" viewBox="0 0 14 16" fill="none" xmlns="http://www.w3.org/2000/svg">
<path d="M11.9191 0.973758H10.0614V0.446678C10.0614 0.328212 10.0175 0.214597 9.93946 0.130829C9.86141 0.0470604 9.75556 0 9.64518 0C9.53481 0 9.42895 0.0470604 9.35091 0.130829C9.27286 0.214597 9.22901 0.328212 9.22901 0.446678V0.973758H4.77099V0.446678C4.77099 0.328212 4.72714 0.214597 4.64909 0.130829C4.57105 0.0470604 4.46519 0 4.35482 0C4.24444 0 4.13859 0.0470604 4.06054 0.130829C3.98249 0.214597 3.93864 0.328212 3.93864 0.446678V0.973758H2.08086C1.52898 0.973758 0.999705 1.20906 0.609469 1.6279C0.219232 2.04674 0 2.61482 0 3.20715V13.7666C0 14.3589 0.219232 14.927 0.609469 15.3459C0.999705 15.7647 1.52898 16 2.08086 16H11.9191C12.471 16 13.0003 15.7647 13.3905 15.3459C13.7808 14.927 14 14.3589 14 13.7666V3.20715C14 2.61482 13.7808 2.04674 13.3905 1.6279C13.0003 1.20906 12.471 0.973758 11.9191 0.973758V0.973758ZM2.08086 1.86711H3.93864V2.39419C3.93864 2.51266 3.98249 2.62627 4.06054 2.71004C4.13859 2.79381 4.24444 2.84087 4.35482 2.84087C4.46519 2.84087 4.57105 2.79381 4.64909 2.71004C4.72714 2.62627 4.77099 2.51266 4.77099 2.39419V1.86711H9.22901V2.39419C9.22901 2.51266 9.27286 2.62627 9.35091 2.71004C9.42895 2.79381 9.53481 2.84087 9.64518 2.84087C9.75556 2.84087 9.86141 2.79381 9.93946 2.71004C10.0175 2.62627 10.0614 2.51266 10.0614 2.39419V1.86711H11.9191C12.2503 1.86711 12.5678 2.0083 12.802 2.2596C13.0361 2.51091 13.1677 2.85175 13.1677 3.20715V4.11658H0.832342V3.20715C0.832342 2.85175 0.963882 2.51091 1.19802 2.2596C1.43217 2.0083 1.74973 1.86711 2.08086 1.86711V1.86711ZM11.9191 15.1066H2.08086C1.74973 15.1066 1.43217 14.9655 1.19802 14.7142C0.963882 14.4629 0.832342 14.122 0.832342 13.7666V5.01172H13.1677V13.7666C13.1677 14.122 13.0361 14.4629 12.802 14.7142C12.5678 14.9655 12.2503 15.1066 11.9191 15.1066ZM5.66825 10.6711H3.5874C3.47702 10.6711 3.37117 10.7182 3.29312 10.802C3.21507 10.8857 3.17122 10.9993 3.17122 11.1178V13.3512C3.17122 13.4697 3.21507 13.5833 3.29312 13.667C3.37117 13.7508 3.47702 13.7979 3.5874 13.7979H5.66825C5.77863 13.7979 5.88448 13.7508 5.96253 13.667C6.04058 13.5833 6.08442 13.4697 6.08442 13.3512V11.1178C6.08442 10.9993 6.04058 10.8857 5.96253 10.802C5.88448 10.7182 5.77863 10.6711 5.66825 10.6711V10.6711ZM5.25208 12.9045H4.00357V11.5645H5.25208V12.9045ZM10.8288 8.99967C10.8288 9.11813 10.7849 9.23175 10.7069 9.31551C10.6288 9.39928 10.523 9.44634 10.4126 9.44634H7.83234C7.72197 9.44634 7.61611 9.39928 7.53806 9.31551C7.46002 9.23175 7.41617 9.11813 7.41617 8.99967C7.41617 8.8812 7.46002 8.76758 7.53806 8.68382C7.61611 8.60005 7.72197 8.55299 7.83234 8.55299H10.4126C10.5227 8.55299 10.6283 8.5998 10.7063 8.68318C10.7843 8.76657 10.8283 8.87972 10.8288 8.99788V8.99967ZM8.14946 7.5158C8.14946 7.39733 8.19331 7.28372 8.27136 7.19995C8.34941 7.11618 8.45526 7.06912 8.56564 7.06912H9.06504C9.17542 7.06912 9.28127 7.11618 9.35932 7.19995C9.43737 7.28372 9.48121 7.39733 9.48121 7.5158C9.48121 7.63427 9.43737 7.74788 9.35932 7.83165C9.28127 7.91542 9.17542 7.96248 9.06504 7.96248H8.56564C8.51091 7.96236 8.45675 7.95066 8.40624 7.92805C8.35574 7.90544 8.30989 7.87236 8.27131 7.8307C8.23273 7.78905 8.20218 7.73963 8.18142 7.68529C8.16065 7.63095 8.15008 7.57275 8.1503 7.51401L8.14946 7.5158ZM10.8288 13.3494C10.8288 13.4679 10.7849 13.5815 10.7069 13.6653C10.6288 13.749 10.523 13.7961 10.4126 13.7961H7.3679C7.25752 13.7961 7.15166 13.749 7.07362 13.6653C6.99557 13.5815 6.95172 13.4679 6.95172 13.3494C6.95172 13.2309 6.99557 13.1173 7.07362 13.0336C7.15166 12.9498 7.25752 12.9027 7.3679 12.9027H10.4126C10.523 12.9027 10.6288 12.9498 10.7069 13.0336C10.7849 13.1173 10.8288 13.2309 10.8288 13.3494ZM7.36706 11.418H9.06171C9.17209 11.418 9.27794 11.465 9.35599 11.5488C9.43404 11.6326 9.47788 11.7462 9.47788 11.8647C9.47788 11.9831 9.43404 12.0967 9.35599 12.1805C9.27794 12.2643 9.17209 12.3113 9.06171 12.3113H7.3679C7.25752 12.3113 7.15166 12.2643 7.07362 12.1805C6.99557 12.0967 6.95172 11.9831 6.95172 11.8647C6.95172 11.7462 6.99557 11.6326 7.07362 11.5488C7.15166 11.465 7.25752 11.418 7.3679 11.418H7.36706ZM3.17122 8.99967V6.76628C3.17122 6.64781 3.21507 6.5342 3.29312 6.45043C3.37117 6.36666 3.47702 6.3196 3.5874 6.3196H5.66825C5.77863 6.3196 5.88448 6.36666 5.96253 6.45043C6.04058 6.5342 6.08442 6.64781 6.08442 6.76628C6.08442 6.88474 6.04058 6.99836 5.96253 7.08212C5.88448 7.16589 5.77863 7.21295 5.66825 7.21295H4.00357V8.99967C4.00357 9.11813 3.95972 9.23175 3.88167 9.31551C3.80363 9.39928 3.69777 9.44634 3.5874 9.44634C3.47702 9.44634 3.37117 9.39928 3.29312 9.31551C3.21507 9.23175 3.17122 9.11813 3.17122 8.99967ZM5.5717 8.4842L6.61213 7.20045C6.64733 7.15392 6.6909 7.11548 6.74023 7.08741C6.78957 7.05933 6.84366 7.0422 6.89929 7.03703C6.95492 7.03187 7.01095 7.03877 7.06405 7.05733C7.11714 7.07589 7.16621 7.10572 7.20834 7.14506C7.25047 7.1844 7.28479 7.23243 7.30926 7.28631C7.33373 7.34018 7.34785 7.39878 7.35078 7.45863C7.3537 7.51848 7.34538 7.57835 7.3263 7.63468C7.30722 7.691 7.27777 7.74263 7.23971 7.78649L5.83472 9.52496C5.79569 9.57316 5.74748 9.61181 5.69335 9.63832C5.63922 9.66483 5.58043 9.67857 5.52093 9.67861H5.48847C5.42369 9.67331 5.36096 9.6518 5.30532 9.61581C5.24967 9.57982 5.20265 9.53035 5.16801 9.47136L4.51213 8.35734C4.48146 8.30765 4.46037 8.25188 4.45009 8.19331C4.43982 8.13473 4.44057 8.07455 4.4523 8.01629C4.46403 7.95803 4.48651 7.90288 4.5184 7.85409C4.5503 7.80531 4.59097 7.76386 4.63802 7.7322C4.68507 7.70054 4.73755 7.67931 4.79236 7.66976C4.84717 7.6602 4.90322 7.66252 4.95718 7.67657C5.01115 7.69062 5.06195 7.71612 5.10659 7.75157C5.15123 7.78701 5.18882 7.83169 5.21712 7.88297L5.5717 8.4842Z" fill="black"/>
</svg>
