<svg width="20" height="28" viewBox="0 0 20 28" fill="none" xmlns="http://www.w3.org/2000/svg">
<path d="M19.7867 5.88824L14.9333 0.832682C14.8267 0.721571 14.72 0.666016 14.56 0.666016H2.13333C0.96 0.666016 0 1.66602 0 2.88824V25.1105C0 26.3327 0.96 27.3327 2.13333 27.3327H17.8667C19.04 27.3327 20 26.3327 20 25.1105V6.27713C19.9467 6.16602 19.8933 5.99935 19.7867 5.88824ZM14.9867 2.44379L18.5067 6.11046H16.0533C15.4667 6.11046 14.9867 5.61046 14.9867 4.99935V2.44379ZM17.8133 26.2216H2.13333C1.54667 26.2216 1.06667 25.7216 1.06667 25.1105V2.88824C1.06667 2.27713 1.54667 1.77713 2.13333 1.77713H13.92V4.99935C13.92 6.22157 14.88 7.22157 16.0533 7.22157H18.9333V25.1105C18.88 25.7216 18.4 26.2216 17.8133 26.2216Z" fill="#435BAA"/>
<path d="M2.26815 10.087H10.6878C11.0487 10.087 11.2892 9.86957 11.2892 9.54348C11.2892 9.21739 11.0487 9 10.6878 9H2.26815C1.90731 9 1.66675 9.21739 1.66675 9.54348C1.66675 9.86957 1.96745 10.087 2.26815 10.087ZM17.7844 12.4783H2.26815C1.90731 12.4783 1.66675 12.6957 1.66675 13.0217C1.66675 13.3478 1.90731 13.5652 2.26815 13.5652H17.7243C18.0851 13.5652 18.3257 13.3478 18.3257 13.0217C18.3858 12.75 18.0851 12.4783 17.7844 12.4783ZM17.7844 15.9565H2.26815C1.90731 15.9565 1.66675 16.1739 1.66675 16.5C1.66675 16.8261 1.90731 17.0435 2.26815 17.0435H17.7243C18.0851 17.0435 18.3257 16.8261 18.3257 16.5C18.3858 16.1739 18.0851 15.9565 17.7844 15.9565ZM17.7844 19.4348H2.26815C1.90731 19.4348 1.66675 19.6522 1.66675 19.9783C1.66675 20.3043 1.90731 20.5217 2.26815 20.5217H17.7243C18.0851 20.5217 18.3257 20.3043 18.3257 19.9783C18.3858 19.6522 18.0851 19.4348 17.7844 19.4348ZM17.7844 22.913H2.26815C1.90731 22.913 1.66675 23.1304 1.66675 23.4565C1.66675 23.7826 1.90731 24 2.26815 24H17.7243C18.0851 24 18.3257 23.7826 18.3257 23.4565C18.3858 23.1304 18.0851 22.913 17.7844 22.913Z" fill="#435BAA"/>
</svg>
