<svg width="17" height="17" viewBox="0 0 17 17" fill="none" xmlns="http://www.w3.org/2000/svg">
<path d="M8.50023 16C10.5034 16 12.3869 15.2198 13.8034 13.803C15.2202 12.3864 16.0005 10.5032 16.0005 8.5C16.0005 6.4968 15.2202 4.61359 13.8034 3.19703C12.3869 1.78023 10.5034 1 8.50023 1C6.4968 1 4.61359 1.78023 3.19703 3.19703C1.78023 4.61359 1 6.4968 1 8.5C1 10.5032 1.78023 12.3864 3.19703 13.803C4.61359 15.2198 6.4968 16 8.50023 16ZM3.52844 3.52844C4.85641 2.20023 6.62195 1.46875 8.50023 1.46875C10.3783 1.46875 12.1441 2.20023 13.472 3.52844C14.8002 4.85641 15.5317 6.62195 15.5317 8.5C15.5317 10.378 14.8002 12.1436 13.472 13.4716C12.1441 14.7998 10.3783 15.5312 8.50023 15.5312C6.62195 15.5312 4.85641 14.7998 3.52844 13.4716C2.20023 12.1436 1.46875 10.378 1.46875 8.5C1.46875 6.62195 2.20023 4.85641 3.52844 3.52844Z" fill="#02101B" stroke="#02101B" stroke-width="0.3"/>
<path d="M8.26562 6.85938H8.73438V12.0156H8.26562V6.85938ZM8.26562 4.98438H8.73438V5.92188H8.26562V4.98438Z" fill="#02101B"/>
</svg>
