<svg width="14" height="14" viewBox="0 0 14 14" fill="none" xmlns="http://www.w3.org/2000/svg">
<path d="M6.58913 11.2304C6.46739 11.2304 6.34565 11.1848 6.25435 11.1087C6.10217 10.987 6.02609 10.7891 6.07174 10.5913L6.81739 6.78696L6.40652 7.01522C6.14783 7.15217 5.82826 7.07609 5.67609 6.81739C5.53913 6.5587 5.61522 6.23913 5.87391 6.08696L7.28913 5.28043C7.47174 5.17391 7.7 5.18913 7.86739 5.31087C8.03478 5.43261 8.11087 5.64565 8.08043 5.84348L7.30435 9.8L7.94348 9.52609C8.21739 9.40435 8.52174 9.52609 8.64348 9.8C8.76522 10.0739 8.64348 10.3783 8.36957 10.5L6.80217 11.1848C6.7413 11.2152 6.66522 11.2304 6.58913 11.2304ZM8.09565 3.95652C8.23261 3.81957 8.32391 3.62174 8.32391 3.42391C8.32391 3.22609 8.24783 3.02826 8.09565 2.8913C7.9587 2.75435 7.76087 2.66304 7.56304 2.66304C7.36522 2.66304 7.16739 2.73913 7.03043 2.8913C6.89348 3.02826 6.80217 3.22609 6.80217 3.42391C6.80217 3.62174 6.87826 3.81957 7.03043 3.95652C7.16739 4.09348 7.36522 4.18478 7.56304 4.18478C7.76087 4.18478 7.9587 4.1087 8.09565 3.95652ZM14 7C14 3.13478 10.8652 0 7 0C3.13478 0 0 3.13478 0 7C0 10.8652 3.13478 14 7 14C10.8652 14 14 10.8652 14 7ZM12.7826 7C12.7826 10.1957 10.1957 12.7826 7 12.7826C3.80435 12.7826 1.21739 10.1957 1.21739 7C1.21739 3.80435 3.80435 1.21739 7 1.21739C10.1957 1.21739 12.7826 3.80435 12.7826 7Z" fill="black"/>
</svg>
