<svg width="14" height="18" viewBox="0 0 14 18" fill="none" xmlns="http://www.w3.org/2000/svg">
<path d="M9.69363 3.47881C9.69363 2.44136 8.88833 0.899902 7.77427 0.899902H4.41936C3.3053 0.899902 2.5 2.44136 2.5 3.47881V4.91881C2.5 4.92208 2.50318 4.92536 2.50318 4.92863V4.93845C2.59549 6.65336 3.46446 9.8999 6.1 9.8999C8.73554 9.8999 9.60451 6.65336 9.69682 4.93845V4.92863C9.69682 4.92536 9.7 4.92208 9.7 4.91881V3.47881H9.69363ZM9.05703 4.20863C8.28992 3.88463 6.99125 3.81918 6.09682 3.81918C5.20239 3.81918 3.90371 3.88136 3.1366 4.20863V3.73736C3.27984 3.56717 4.26021 3.26608 6.09682 3.26608C7.93342 3.26608 8.91379 3.56717 9.05703 3.73736V4.20863ZM6.09682 4.47699C7.58647 4.47699 8.50955 4.67336 8.88515 4.84027C8.36631 5.13481 7.26499 5.66499 6.09682 5.66499C4.92865 5.66499 3.82732 5.13481 3.30849 4.84027C3.68408 4.67336 4.60716 4.47699 6.09682 4.47699ZM4.41936 1.55445H7.77427C8.28355 1.55445 8.7992 2.27445 8.987 2.97481C8.21353 2.67372 6.96578 2.61154 6.09682 2.61154C5.22785 2.61154 3.98329 2.67372 3.20663 2.97481C3.39443 2.27445 3.91008 1.55445 4.41936 1.55445ZM6.09682 9.24536C4.0374 9.24536 3.39761 6.72863 3.20981 5.52754C3.84005 5.86136 4.92228 6.31954 6.09682 6.31954C7.27454 6.31954 8.35358 5.86136 8.98382 5.52754C8.79602 6.72863 8.15623 9.24536 6.09682 9.24536Z" fill="#02101B"/>
<path d="M13.0948 4.82058L12.2875 4.5185C12.1545 4.4703 12.0091 4.5185 11.9287 4.63741L10.877 6.22496C10.8306 6.29566 10.812 6.38564 10.8275 6.4692L10.911 6.90625L9.584 10.753L9.15403 10.5923C9.11586 10.5779 9.07531 10.5715 9.03473 10.5734C8.99415 10.5752 8.95432 10.5854 8.91754 10.6034C8.88076 10.6213 8.84774 10.6465 8.82038 10.6777C8.79302 10.7089 8.77186 10.7454 8.7581 10.7851L7.82085 13.5007H4.13679L3.6759 11.1933H7.66309C7.83322 11.1933 7.97242 11.0487 7.97242 10.8719C7.97242 10.6952 7.83322 10.5505 7.66309 10.5505H3.54907C1.97771 10.5505 0.700195 11.8778 0.700195 13.5103V16.7786C0.700195 16.9554 0.839391 17.1 1.00952 17.1H9.19734C9.24683 17.1 9.29014 17.0871 9.33035 17.0646C9.62492 17.0082 9.90013 16.8725 10.1286 16.6712C10.3571 16.47 10.5308 16.2101 10.6326 15.9174L11.9874 11.9935C12.0013 11.9538 12.0075 11.9117 12.0057 11.8695C12.0039 11.8274 11.9941 11.786 11.9768 11.7478C11.9596 11.7096 11.9353 11.6753 11.9052 11.6468C11.8752 11.6184 11.8401 11.5964 11.8019 11.5821L11.3719 11.4215L12.6989 7.57791L13.0299 7.29511C13.062 7.26801 13.0885 7.23435 13.1076 7.19621C13.1268 7.15808 13.1382 7.11627 13.1412 7.07336L13.299 5.15159C13.3114 5.00698 13.2278 4.872 13.0948 4.82058ZM1.32194 13.5168C1.32194 12.4177 2.06432 11.4954 3.05725 11.2608L3.51814 13.5778C3.29818 13.6561 3.10723 13.8038 2.97193 14.0002C2.83662 14.1967 2.76372 14.4321 2.76339 14.6737V16.4573H1.32194V13.5168ZM3.38204 14.6737C3.38204 14.3845 3.60785 14.1499 3.88624 14.1499H7.60123L7.40635 14.7155C7.19292 15.3293 7.32902 15.9849 7.7064 16.4573H3.38204V14.6737ZM10.0511 15.7021C9.95288 15.9862 9.75015 16.2182 9.48742 16.3471C9.22469 16.4761 8.92344 16.4914 8.64984 16.3898C8.37636 16.2878 8.15304 16.0771 8.02893 15.8042C7.90481 15.5312 7.89005 15.2182 7.98788 14.934L9.23755 11.3122L9.71701 11.4922L10.8708 11.9228L11.2977 12.0835L10.0511 15.7021ZM12.535 6.88376L12.238 7.13764C12.1947 7.17299 12.1638 7.22119 12.1452 7.27583L10.7904 11.2029L10.1655 10.9715L11.5204 7.04444C11.5389 6.98981 11.542 6.93196 11.5327 6.87412L11.4585 6.48205L12.303 5.20944L12.6618 5.34441L12.535 6.88376Z" fill="#02101B"/>
</svg>
