<svg width="44" height="44" viewBox="0 0 44 44" fill="none" xmlns="http://www.w3.org/2000/svg">
<rect x="0.5" y="0.5" width="43" height="43" rx="4.5" fill="white" stroke="#435BAA"/>
<path d="M29.5 12.5H14.5C13.3954 12.5 12.5 13.3954 12.5 14.5V29.5C12.5 30.6046 13.3954 31.5 14.5 31.5H29.5C30.6046 31.5 31.5 30.6046 31.5 29.5V14.5C31.5 13.3954 30.6046 12.5 29.5 12.5Z" stroke="#435BAA"/>
<path fill-rule="evenodd" clip-rule="evenodd" d="M14.8682 29.0001L18.6342 19.9521L22.8642 27.3881L25.2682 23.3811L29.0622 29.0001H14.8682Z" stroke="#435BAA" stroke-linejoin="round"/>
<path d="M26.0002 19.266C27.1782 19.266 28.1332 18.311 28.1332 17.133C28.1332 15.955 27.1782 15 26.0002 15C24.8222 15 23.8672 15.955 23.8672 17.133C23.8672 18.311 24.8222 19.266 26.0002 19.266Z" stroke="#435BAA"/>
</svg>
