<svg width="30" height="30" viewBox="0 0 30 30" fill="none" xmlns="http://www.w3.org/2000/svg">
<rect x="0.5" y="0.5" width="29" height="29" rx="4.5" stroke="#435BAA"/>
<path d="M10.7588 19.6953H6.56348V23.8907H10.7588V19.6953Z" fill="#33C046"/>
<path d="M10.7588 12.9062H6.56348V17.1016H10.7588V12.9062Z" fill="#FDC75B"/>
<path d="M10.7588 6.11328H6.56348V10.3086H10.7588V6.11328Z" fill="#0074CC"/>
<path d="M12.9025 15.4563H23.4366C23.5567 15.4563 23.6719 15.4086 23.7568 15.3237C23.8417 15.2388 23.8894 15.1236 23.8894 15.0036C23.8894 14.8835 23.8417 14.7683 23.7568 14.6834C23.6719 14.5985 23.5567 14.5508 23.4366 14.5508H12.9025C12.7824 14.5508 12.6672 14.5985 12.5823 14.6834C12.4974 14.7683 12.4497 14.8835 12.4497 15.0036C12.4497 15.1236 12.4974 15.2388 12.5823 15.3237C12.6672 15.4086 12.7824 15.4563 12.9025 15.4563Z" fill="#435BAA"/>
<path d="M12.9025 8.66335H23.4366C23.5567 8.66335 23.6719 8.61565 23.7568 8.53074C23.8417 8.44583 23.8894 8.33066 23.8894 8.21058C23.8894 8.0905 23.8417 7.97534 23.7568 7.89043C23.6719 7.80551 23.5567 7.75781 23.4366 7.75781H12.9025C12.7824 7.75781 12.6672 7.80551 12.5823 7.89043C12.4974 7.97534 12.4497 8.0905 12.4497 8.21058C12.4497 8.33066 12.4974 8.44583 12.5823 8.53074C12.6672 8.61565 12.7824 8.66335 12.9025 8.66335Z" fill="#435BAA"/>
<path d="M12.9025 22.2454H23.4366C23.5567 22.2454 23.6719 22.1977 23.7568 22.1128C23.8417 22.0279 23.8894 21.9127 23.8894 21.7926C23.8894 21.6725 23.8417 21.5574 23.7568 21.4725C23.6719 21.3875 23.5567 21.3398 23.4366 21.3398H12.9025C12.7824 21.3398 12.6672 21.3875 12.5823 21.4725C12.4974 21.5574 12.4497 21.6725 12.4497 21.7926C12.4497 21.9127 12.4974 22.0279 12.5823 22.1128C12.6672 22.1977 12.7824 22.2454 12.9025 22.2454Z" fill="#435BAA"/>
</svg>
