<svg width="11" height="9" viewBox="0 0 11 9" fill="none" xmlns="http://www.w3.org/2000/svg">
<path d="M9.84937 0H1.15066C0.84559 0.000391738 0.553118 0.137305 0.337403 0.380704C0.121688 0.624102 0.000347182 0.954109 0 1.29833V7.70167C0.000347182 8.04589 0.121688 8.3759 0.337403 8.6193C0.553118 8.8627 0.84559 8.99961 1.15066 9H9.84934C10.1544 8.99961 10.4469 8.8627 10.6626 8.6193C10.8783 8.3759 10.9997 8.04589 11 7.70167V1.29833C10.9997 0.95411 10.8783 0.624099 10.6626 0.380698C10.4469 0.137297 10.1544 0.000384892 9.84937 0ZM7.8035 4.49823L10.5398 2.07509V7.49529L7.8035 4.49823ZM1.15066 0.519331H9.84934C10.0324 0.519564 10.2079 0.601712 10.3373 0.747751C10.4667 0.893791 10.5395 1.0918 10.5397 1.29833V1.41492L6.11178 5.33633C5.94989 5.47894 5.75036 5.55631 5.54497 5.55612C5.33959 5.55593 5.14016 5.4782 4.97848 5.33529L0.460263 1.41393V1.29833C0.46047 1.0918 0.533274 0.893791 0.662703 0.747751C0.792132 0.601712 0.967616 0.519564 1.15066 0.519331ZM3.27794 4.51454L0.460263 7.50576V2.06912L3.27794 4.51454ZM9.84937 8.48067H1.15066C1.03279 8.48059 0.916907 8.44648 0.814033 8.38157C0.711159 8.31666 0.624721 8.22313 0.562947 8.10987L3.64749 4.83549L4.69647 5.74587C4.93907 5.95969 5.23808 6.07579 5.54592 6.0757C5.85375 6.07561 6.15271 5.95934 6.39521 5.74538L7.43814 4.82199L10.4382 8.10779C10.3766 8.22162 10.2901 8.31569 10.1869 8.38097C10.0838 8.44626 9.9676 8.48059 9.84937 8.48067Z" fill="#4C69C7"/>
</svg>
