<svg width="16" height="16" viewBox="0 0 16 16" fill="none" xmlns="http://www.w3.org/2000/svg">
<path d="M2.54448 10.3445C3.34747 10.3445 3.99857 10.9956 3.99857 11.7986C3.99857 12.2324 3.81083 12.6198 3.50637 12.8891C4.13638 13.1844 4.55545 13.8187 4.55545 14.5316V15.2263C4.55545 15.3557 4.45069 15.4605 4.32131 15.4605H0.769769C0.640392 15.4605 0.535625 15.3557 0.535625 15.2263V14.5316C0.535625 13.8187 0.954694 13.1837 1.5847 12.8891C0.956804 12.335 0.924459 11.364 1.51791 10.7706C1.78088 10.5076 2.1444 10.3445 2.54589 10.3445H2.54448ZM6.13118 9.56469C6.17196 9.56469 6.21134 9.57032 6.24931 9.58016L7.0319 8.79757C6.73869 8.36936 6.73869 7.80123 7.0319 7.37302L6.24931 6.59043C5.9561 6.66707 5.66641 6.44558 5.66641 6.14112C5.66641 5.88448 5.87454 5.67635 6.13118 5.67635C6.43634 5.67635 6.65783 5.96604 6.58048 6.25925L7.36308 7.04184C7.79129 6.74863 8.35942 6.74863 8.78763 7.04184L9.57022 6.25925C9.49358 5.96604 9.71507 5.67635 10.0195 5.67635C10.2762 5.67635 10.4843 5.88448 10.4843 6.14112C10.4843 6.44628 10.1946 6.66777 9.9014 6.59043L9.11881 7.37302C9.41201 7.80123 9.41201 8.36936 9.11881 8.79757L9.9014 9.58016C10.1946 9.50352 10.4843 9.72501 10.4843 10.0295C10.4843 10.2861 10.2762 10.4942 10.0195 10.4942C9.71436 10.4942 9.49287 10.2045 9.57022 9.91134L8.78763 9.12875C8.35942 9.42195 7.79129 9.42195 7.36308 9.12875L6.58048 9.91134C6.65713 10.2045 6.43564 10.4942 6.13118 10.4942C5.87454 10.4942 5.66641 10.2861 5.66641 10.0295C5.66641 9.77282 5.87454 9.56469 6.13118 9.56469ZM8.07606 7.29005C7.6373 7.29005 7.28151 7.64654 7.28151 8.08459C7.28151 8.52335 7.638 8.87913 8.07606 8.87913C8.51481 8.87913 8.8706 8.52264 8.8706 8.08459C8.8706 7.64583 8.51411 7.29005 8.07606 7.29005ZM14.4493 3.04803C15.0582 3.35108 15.4597 3.97406 15.4597 4.67227V5.36697C15.4597 5.49635 15.3549 5.60111 15.2255 5.60111H11.674C11.5446 5.60111 11.4399 5.49635 11.4399 5.36697V4.67227C11.4399 3.97406 11.8413 3.35108 12.4503 3.04803C11.8568 2.48552 11.8435 1.54332 12.4221 0.964635C12.9896 0.397205 13.9107 0.397205 14.4781 0.964635C15.0568 1.54332 15.0434 2.48622 14.45 3.04803H14.4493ZM12.9565 3.36092C12.3497 3.49803 11.9074 4.04296 11.9074 4.67227V5.13282H14.9907V4.67227C14.9907 4.34461 14.8726 4.04437 14.6764 3.81023C14.4901 3.58804 14.2334 3.42631 13.9423 3.36092C13.7883 3.41647 13.6224 3.44671 13.4494 3.44671C13.2764 3.44671 13.1105 3.41647 12.9565 3.36092ZM14.1455 1.29581C13.7609 0.911197 13.1365 0.911197 12.7526 1.29581C12.368 1.68043 12.368 2.30481 12.7526 2.68872C13.1372 3.07334 13.7616 3.07334 14.1455 2.68872C14.5301 2.30411 14.5301 1.67972 14.1455 1.29581ZM14.4535 12.9046C15.0659 13.2062 15.4709 13.8313 15.4709 14.5323V15.227C15.4709 15.3564 15.3662 15.4612 15.2368 15.4612H11.6853C11.5559 15.4612 11.4511 15.3564 11.4511 15.227V14.5323C11.4511 13.8313 11.8561 13.2062 12.4685 12.9046C11.8695 12.3435 11.8526 11.3957 12.4334 10.8149C13.0008 10.2474 13.9219 10.2474 14.4894 10.8149C15.0701 11.3957 15.054 12.3442 14.4542 12.9046H14.4535ZM12.9846 13.2168C12.3694 13.3476 11.9187 13.896 11.9187 14.5316V14.9922H15.0019V14.5316C15.0019 14.204 14.8838 13.9037 14.6876 13.6696C14.4978 13.4432 14.2348 13.2801 13.936 13.2161C13.7869 13.2674 13.6266 13.2955 13.4607 13.2955C13.294 13.2955 13.1344 13.2674 12.9854 13.2161L12.9846 13.2168ZM14.1568 11.146C13.7722 10.7614 13.1478 10.7614 12.7639 11.146C12.3792 11.5307 12.3792 12.155 12.7639 12.539C13.1485 12.9236 13.7729 12.9236 14.1568 12.539C14.5414 12.1543 14.5414 11.53 14.1568 11.146ZM3.53872 3.09514C4.14763 3.39819 4.54913 4.02117 4.54913 4.71938V5.41408C4.54913 5.54346 4.44436 5.64822 4.31498 5.64822H0.763441C0.634064 5.64822 0.529297 5.54346 0.529297 5.41408V4.71938C0.529297 4.02117 0.930788 3.39819 1.5397 3.09514C0.946257 2.53263 0.932897 1.59043 1.51158 1.01175C2.07901 0.444315 3.00012 0.444315 3.56755 1.01175C4.14623 1.59043 4.13287 2.53333 3.53942 3.09514H3.53872ZM2.04596 3.40803C1.43915 3.54514 0.996882 4.09007 0.996882 4.71938V5.17993H4.08013V4.71938C4.08013 4.39172 3.96201 4.09148 3.76583 3.85734C3.5795 3.63515 3.32286 3.47342 3.03176 3.40803C2.87777 3.46358 2.71183 3.49382 2.53886 3.49382C2.36589 3.49382 2.19995 3.46358 2.04596 3.40803ZM3.23496 1.34292C2.85035 0.958307 2.22596 0.958307 1.84205 1.34292C1.45744 1.72754 1.45744 2.35192 1.84205 2.73583C2.22667 3.12045 2.85105 3.12045 3.23496 2.73583C3.61958 2.35122 3.61958 1.72683 3.23496 1.34292ZM2.93683 13.1985C2.81168 13.2337 2.67949 13.2526 2.54308 13.2526C2.40667 13.2526 2.27448 13.2337 2.14932 13.1985C2.13737 13.2027 2.12542 13.2055 2.11206 13.2083C1.47501 13.3201 1.0011 13.8805 1.0011 14.5323V14.9929H4.08435V14.5323C4.08435 13.8812 3.61044 13.3201 2.9734 13.2083C2.96074 13.2062 2.94808 13.2027 2.93613 13.1985H2.93683ZM3.23918 11.1024C2.85457 10.7178 2.23018 10.7178 1.84627 11.1024C1.46166 11.4871 1.46166 12.1114 1.84627 12.4954C2.23089 12.88 2.85527 12.88 3.23918 12.4954C3.6238 12.1107 3.6238 11.4864 3.23918 11.1024Z" fill="#02101B"/>
</svg>
