<svg width="15" height="15" viewBox="0 0 15 15" fill="none" xmlns="http://www.w3.org/2000/svg">
<g clip-path="url(#clip0_2033_57)">
<path d="M7.78142 14.9998C4.09392 14.9998 0.906418 12.3748 0.187668 8.7498C-0.531081 5.09355 1.43767 1.4373 4.90642 0.0310514C5.00017 -0.0314486 5.12517 -0.000198646 5.21892 0.0935514C5.31267 0.187301 5.34392 0.312301 5.28142 0.437301C4.71892 1.78105 4.56267 3.21855 4.87517 4.59355C5.53142 7.90605 8.46892 10.3436 11.8752 10.3436C12.3439 10.3436 12.8127 10.2811 13.2814 10.1873C13.7814 10.0936 14.1877 9.96855 14.5314 9.8123C14.6564 9.7498 14.7814 9.78105 14.8752 9.8748C14.9689 9.96855 15.0002 10.0936 14.9377 10.2186C13.9689 12.6248 11.8439 14.3436 9.31267 14.8436C8.81267 14.9373 8.28142 14.9998 7.78142 14.9998ZM4.43767 0.906051C1.68767 2.3748 0.156418 5.4998 0.781418 8.6248C1.43767 11.9373 4.37517 14.3748 7.78142 14.3748C8.25017 14.3748 8.71892 14.3123 9.18767 14.2186C11.2814 13.8123 13.0627 12.4998 14.0627 10.6561C13.8752 10.7186 13.6564 10.7498 13.4064 10.8123C12.9064 10.9061 12.3752 10.9686 11.8752 10.9686C8.18767 10.9686 5.00017 8.34355 4.25017 4.71855C4.00017 3.46855 4.06267 2.15605 4.43767 0.906051Z" fill="#435BAA"/>
</g>
<defs>
<clipPath id="clip0_2033_57">
<rect width="15" height="15" fill="white"/>
</clipPath>
</defs>
</svg>
