<svg width="16" height="16" viewBox="0 0 16 16" fill="none" xmlns="http://www.w3.org/2000/svg">
<path d="M8.61969 8.375H9.77593C9.92092 8.37483 10.0599 8.31716 10.1625 8.21464C10.265 8.11212 10.3226 7.97311 10.3228 7.82812V6.67188C10.3226 6.52689 10.265 6.38788 10.1625 6.28536C10.0599 6.18284 9.92092 6.12517 9.77593 6.125H8.61969C8.4747 6.12517 8.33569 6.18284 8.23317 6.28536C8.13065 6.38788 8.07298 6.52689 8.07281 6.67188V7.82812C8.07298 7.97311 8.13065 8.11212 8.23317 8.21464C8.33569 8.31716 8.4747 8.37483 8.61969 8.375ZM8.54156 6.67188C8.54164 6.65118 8.5499 6.63136 8.56453 6.61672C8.57917 6.60209 8.59899 6.59383 8.61969 6.59375H9.77593C9.79665 6.59375 9.81653 6.60198 9.83118 6.61663C9.84583 6.63128 9.85406 6.65115 9.85406 6.67188V7.82812C9.85406 7.84885 9.84583 7.86872 9.83118 7.88337C9.81653 7.89802 9.79665 7.90625 9.77593 7.90625H8.61969C8.59899 7.90617 8.57917 7.89791 8.56453 7.88328C8.5499 7.86864 8.54164 7.84882 8.54156 7.82812V6.67188ZM9.20312 3.01562H5.85937C5.79721 3.01562 5.7376 3.04032 5.69365 3.08427C5.64969 3.12823 5.625 3.18784 5.625 3.25C5.625 3.31216 5.64969 3.37177 5.69365 3.41573C5.7376 3.45968 5.79721 3.48438 5.85937 3.48438H9.20312C9.26528 3.48438 9.3249 3.45968 9.36885 3.41573C9.4128 3.37177 9.4375 3.31216 9.4375 3.25C9.4375 3.18784 9.4128 3.12823 9.36885 3.08427C9.3249 3.04032 9.26528 3.01562 9.20312 3.01562ZM11.9531 8.375H13.1094C13.2544 8.37483 13.3934 8.31716 13.4959 8.21464C13.5984 8.11212 13.6561 7.97311 13.6562 7.82812V6.67188C13.6561 6.52689 13.5984 6.38788 13.4959 6.28536C13.3934 6.18284 13.2544 6.12517 13.1094 6.125H11.9531C11.8081 6.12517 11.6691 6.18284 11.5666 6.28536C11.4641 6.38788 11.4064 6.52689 11.4062 6.67188V7.82812C11.4064 7.97311 11.4641 8.11212 11.5666 8.21464C11.6691 8.31716 11.8081 8.37483 11.9531 8.375ZM11.875 6.67188C11.875 6.65115 11.8832 6.63128 11.8979 6.61663C11.9125 6.60198 11.9324 6.59375 11.9531 6.59375H13.1094C13.1301 6.59375 13.15 6.60198 13.1646 6.61663C13.1793 6.63128 13.1875 6.65115 13.1875 6.67188V7.82812C13.1875 7.84885 13.1793 7.86872 13.1646 7.88337C13.15 7.89802 13.1301 7.90625 13.1094 7.90625H11.9531C11.9324 7.90625 11.9125 7.89802 11.8979 7.88337C11.8832 7.86872 11.875 7.84885 11.875 7.82812V6.67188ZM6.44281 9.3125H5.28656C5.14157 9.31267 5.00257 9.37034 4.90005 9.47286C4.79752 9.57538 4.73985 9.71439 4.73969 9.85938V11.0156C4.73985 11.1606 4.79752 11.2996 4.90005 11.4021C5.00257 11.5047 5.14157 11.5623 5.28656 11.5625H6.44281C6.5878 11.5623 6.7268 11.5047 6.82933 11.4021C6.93185 11.2996 6.98952 11.1606 6.98969 11.0156V9.85938C6.98952 9.71439 6.93185 9.57538 6.82933 9.47286C6.7268 9.37034 6.5878 9.31267 6.44281 9.3125ZM6.52094 11.0156C6.52085 11.0363 6.5126 11.0561 6.49796 11.0708C6.48333 11.0854 6.46351 11.0937 6.44281 11.0938H5.28656C5.26584 11.0938 5.24597 11.0855 5.23132 11.0709C5.21667 11.0562 5.20844 11.0363 5.20844 11.0156V9.85938C5.20844 9.83865 5.21667 9.81878 5.23132 9.80413C5.24597 9.78948 5.26584 9.78125 5.28656 9.78125H6.44281C6.46351 9.78133 6.48333 9.78959 6.49796 9.80422C6.5126 9.81886 6.52085 9.83868 6.52094 9.85938V11.0156ZM9.97562 9.73875L8.87219 10.85L8.41906 10.3966C8.39729 10.3748 8.37144 10.3575 8.343 10.3457C8.31455 10.334 8.28407 10.3279 8.25328 10.3279C8.22249 10.3279 8.192 10.334 8.16356 10.3457C8.13511 10.3575 8.10927 10.3748 8.0875 10.3966C8.06573 10.4183 8.04846 10.4442 8.03668 10.4726C8.02489 10.5011 8.01883 10.5316 8.01883 10.5623C8.01883 10.5931 8.02489 10.6236 8.03668 10.6521C8.04846 10.6805 8.06573 10.7064 8.0875 10.7281L8.59625 11.2369C8.63245 11.2733 8.6755 11.3021 8.72292 11.3217C8.77034 11.3414 8.82118 11.3514 8.8725 11.3512C8.92394 11.3513 8.97489 11.3412 9.02237 11.3214C9.06985 11.3016 9.11291 11.2725 9.14906 11.2359L10.3078 10.0691C10.3516 10.0249 10.3761 9.9652 10.3759 9.90302C10.3756 9.84084 10.3507 9.7813 10.3066 9.7375C10.2624 9.6937 10.2027 9.66922 10.1405 9.66946C10.0783 9.66969 10.0194 9.69462 9.97562 9.73875ZM14.2694 12.0291C14.2694 11.9669 14.2447 11.9073 14.2007 11.8633C14.1568 11.8194 14.0972 11.7947 14.035 11.7947H12.5797C12.5175 11.7947 12.4579 11.8194 12.414 11.8633C12.37 11.9073 12.3453 11.9669 12.3453 12.0291C12.3453 12.0912 12.37 12.1508 12.414 12.1948C12.4579 12.2387 12.5175 12.2634 12.5797 12.2634H12.8437C12.9505 12.2636 13.055 12.2944 13.1449 12.352C13.2347 12.4097 13.3062 12.4918 13.3509 12.5887H12.5791C12.5169 12.5887 12.4573 12.6134 12.4133 12.6574C12.3694 12.7014 12.3447 12.761 12.3447 12.8231C12.3447 12.8853 12.3694 12.9449 12.4133 12.9889C12.4573 13.0328 12.5169 13.0575 12.5791 13.0575H13.3509C13.3062 13.1544 13.2347 13.2365 13.1448 13.2941C13.055 13.3517 12.9505 13.3824 12.8437 13.3825H12.5791C12.5331 13.3825 12.4882 13.3959 12.4499 13.4212C12.4116 13.4464 12.3815 13.4824 12.3634 13.5246C12.3453 13.5668 12.3401 13.6134 12.3482 13.6586C12.3564 13.7038 12.3777 13.7455 12.4094 13.7788L13.4687 14.8869C13.5116 14.9318 13.5706 14.9579 13.6328 14.9594C13.6949 14.9608 13.755 14.9376 13.8 14.8947C13.8449 14.8517 13.8709 14.7926 13.8723 14.7305C13.8737 14.6683 13.8504 14.6081 13.8075 14.5631L13.0975 13.8197C13.2798 13.773 13.4459 13.6773 13.5777 13.5429C13.7096 13.4086 13.8021 13.2407 13.8453 13.0575H14.035C14.0972 13.0575 14.1568 13.0328 14.2007 12.9889C14.2447 12.9449 14.2694 12.8853 14.2694 12.8231C14.2694 12.761 14.2447 12.7014 14.2007 12.6574C14.1568 12.6134 14.0972 12.5887 14.035 12.5887H13.8453C13.8183 12.473 13.7712 12.3629 13.7062 12.2634H14.035C14.0972 12.2634 14.1568 12.2387 14.2007 12.1948C14.2447 12.1508 14.2694 12.0912 14.2694 12.0291ZM3.10937 12.5H1.95312C1.80814 12.5002 1.66913 12.5578 1.56661 12.6604C1.46409 12.7629 1.40642 12.9019 1.40625 13.0469V14.2031C1.40642 14.3481 1.46409 14.4871 1.56661 14.5896C1.66913 14.6922 1.80814 14.7498 1.95312 14.75H3.10937C3.25436 14.7498 3.39337 14.6922 3.49589 14.5896C3.59841 14.4871 3.65608 14.3481 3.65625 14.2031V13.0469C3.65608 12.9019 3.59841 12.7629 3.49589 12.6604C3.39337 12.5578 3.25436 12.5002 3.10937 12.5ZM3.1875 14.2031C3.1875 14.2238 3.17927 14.2437 3.16462 14.2584C3.14997 14.273 3.13009 14.2812 3.10937 14.2812H1.95312C1.9324 14.2812 1.91253 14.273 1.89788 14.2584C1.88323 14.2437 1.875 14.2238 1.875 14.2031V13.0469C1.875 13.0262 1.88323 13.0063 1.89788 12.9916C1.91253 12.977 1.9324 12.9688 1.95312 12.9688H3.10937C3.13009 12.9688 3.14997 12.977 3.16462 12.9916C3.17927 13.0063 3.1875 13.0262 3.1875 13.0469V14.2031ZM9.77593 12.5H8.61969C8.4747 12.5002 8.33569 12.5578 8.23317 12.6604C8.13065 12.7629 8.07298 12.9019 8.07281 13.0469V14.2031C8.07298 14.3481 8.13065 14.4871 8.23317 14.5896C8.33569 14.6922 8.4747 14.7498 8.61969 14.75H9.77593C9.92092 14.7498 10.0599 14.6922 10.1625 14.5896C10.265 14.4871 10.3226 14.3481 10.3228 14.2031V13.0469C10.3226 12.9019 10.265 12.7629 10.1625 12.6604C10.0599 12.5578 9.92092 12.5002 9.77593 12.5ZM9.85406 14.2031C9.85406 14.2238 9.84583 14.2437 9.83118 14.2584C9.81653 14.273 9.79665 14.2812 9.77593 14.2812H8.61969C8.59899 14.2812 8.57917 14.2729 8.56453 14.2583C8.5499 14.2436 8.54164 14.2238 8.54156 14.2031V13.0469C8.54164 13.0262 8.5499 13.0064 8.56453 12.9917C8.57917 12.9771 8.59899 12.9688 8.61969 12.9688H9.77593C9.79665 12.9688 9.81653 12.977 9.83118 12.9916C9.84583 13.0063 9.85406 13.0262 9.85406 13.0469V14.2031ZM15.0625 11.1956V2.375C15.0622 2.0643 14.9386 1.76642 14.7189 1.54672C14.4992 1.32703 14.2013 1.20346 13.8906 1.20312H13.6406V0.796875C13.6406 0.585531 13.5567 0.382842 13.4072 0.233399C13.2578 0.0839562 13.0551 0 12.8437 0C12.6324 0 12.4297 0.0839562 12.2803 0.233399C12.1308 0.382842 12.0469 0.585531 12.0469 0.796875V1.20312H3.01562V0.796875C3.01562 0.585531 2.93167 0.382842 2.78222 0.233399C2.63278 0.0839562 2.43009 0 2.21875 0C2.00741 0 1.80472 0.0839562 1.65527 0.233399C1.50583 0.382842 1.42187 0.585531 1.42187 0.796875V1.20312H1.17187C0.861176 1.20346 0.563297 1.32703 0.3436 1.54672C0.123902 1.76642 0.000330883 2.0643 0 2.375L0 14.8281C0.000330883 15.1388 0.123902 15.4367 0.3436 15.6564C0.563297 15.8761 0.861176 15.9997 1.17187 16H13.0053C13.0516 16 13.0991 15.9981 13.1469 15.995C13.2 15.9981 13.2534 16 13.3072 16C14.7922 16 16 14.7737 16 13.2666C16.0007 12.8744 15.9174 12.4867 15.7557 12.1295C15.594 11.7722 15.3576 11.4538 15.0625 11.1956ZM12.515 0.796875C12.515 0.709851 12.5496 0.626391 12.6111 0.564856C12.6726 0.50332 12.7561 0.46875 12.8431 0.46875C12.9301 0.46875 13.0136 0.50332 13.0751 0.564856C13.1367 0.626391 13.1712 0.709851 13.1712 0.796875V2.07812C13.1712 2.16515 13.1367 2.24861 13.0751 2.31014C13.0136 2.37168 12.9301 2.40625 12.8431 2.40625C12.7561 2.40625 12.6726 2.37168 12.6111 2.31014C12.5496 2.24861 12.515 2.16515 12.515 2.07812V0.796875ZM1.89125 1.4375V0.796875C1.89125 0.709851 1.92582 0.626391 1.98736 0.564856C2.04889 0.50332 2.13235 0.46875 2.21937 0.46875C2.3064 0.46875 2.38986 0.50332 2.45139 0.564856C2.51293 0.626391 2.5475 0.709851 2.5475 0.796875V2.07812C2.5475 2.16515 2.51293 2.24861 2.45139 2.31014C2.38986 2.37168 2.3064 2.40625 2.21937 2.40625C2.13235 2.40625 2.04889 2.37168 1.98736 2.31014C1.92582 2.24861 1.89125 2.16515 1.89125 2.07812V1.4375ZM0.46875 2.375C0.468915 2.18857 0.543048 2.00982 0.674873 1.878C0.806699 1.74617 0.985445 1.67204 1.17187 1.67188H1.42187V2.07812C1.42187 2.28947 1.50583 2.49216 1.65527 2.6416C1.80472 2.79104 2.00741 2.875 2.21875 2.875C2.43009 2.875 2.63278 2.79104 2.78222 2.6416C2.93167 2.49216 3.01562 2.28947 3.01562 2.07812V1.67188H12.0469V2.07812C12.0469 2.28947 12.1308 2.49216 12.2803 2.6416C12.4297 2.79104 12.6324 2.875 12.8437 2.875C13.0551 2.875 13.2578 2.79104 13.4072 2.6416C13.5567 2.49216 13.6406 2.28947 13.6406 2.07812V1.67188H13.8906C14.0771 1.67204 14.2558 1.74617 14.3876 1.878C14.5194 2.00982 14.5936 2.18857 14.5937 2.375V4.71875H0.46875V2.375ZM1.17187 15.5312C0.985445 15.5311 0.806699 15.457 0.674873 15.3251C0.543048 15.1933 0.468915 15.0146 0.46875 14.8281V5.1875H14.5937V10.8659C14.3034 10.7048 13.9854 10.5998 13.6562 10.5562V9.85938C13.6561 9.71439 13.5984 9.57538 13.4959 9.47286C13.3934 9.37034 13.2544 9.31267 13.1094 9.3125H11.9531C11.8081 9.31267 11.6691 9.37034 11.5666 9.47286C11.4641 9.57538 11.4064 9.71439 11.4062 9.85938V11.0156C11.406 11.1045 11.4274 11.1922 11.4687 11.2709C11.1725 11.5532 10.9429 11.8979 10.7965 12.2801C10.6501 12.6622 10.5907 13.0721 10.6225 13.48C10.6543 13.888 10.7766 14.2837 10.9804 14.6385C11.1842 14.9933 11.4645 15.2983 11.8009 15.5312H1.17187ZM13.1875 9.85938V10.5363C12.7209 10.5571 12.2681 10.7009 11.875 10.9531V9.85938C11.875 9.83865 11.8832 9.81878 11.8979 9.80413C11.9125 9.78948 11.9324 9.78125 11.9531 9.78125H13.1094C13.1301 9.78125 13.15 9.78948 13.1646 9.80413C13.1793 9.81878 13.1875 9.83865 13.1875 9.85938ZM13.3072 15.5312C12.0809 15.5312 11.0834 14.5153 11.0834 13.2666C11.0834 12.0178 12.0809 11.0022 13.3072 11.0022C14.5334 11.0022 15.5312 12.0181 15.5312 13.2666C15.5312 14.515 14.5337 15.5312 13.3072 15.5312ZM3.10937 9.3125H1.95312C1.80814 9.31267 1.66913 9.37034 1.56661 9.47286C1.46409 9.57538 1.40642 9.71439 1.40625 9.85938V11.0156C1.40642 11.1606 1.46409 11.2996 1.56661 11.4021C1.66913 11.5047 1.80814 11.5623 1.95312 11.5625H3.10937C3.25436 11.5623 3.39337 11.5047 3.49589 11.4021C3.59841 11.2996 3.65608 11.1606 3.65625 11.0156V9.85938C3.65608 9.71439 3.59841 9.57538 3.49589 9.47286C3.39337 9.37034 3.25436 9.31267 3.10937 9.3125ZM3.1875 11.0156C3.1875 11.0363 3.17927 11.0562 3.16462 11.0709C3.14997 11.0855 3.13009 11.0938 3.10937 11.0938H1.95312C1.9324 11.0938 1.91253 11.0855 1.89788 11.0709C1.88323 11.0562 1.875 11.0363 1.875 11.0156V9.85938C1.875 9.83865 1.88323 9.81878 1.89788 9.80413C1.91253 9.78948 1.9324 9.78125 1.95312 9.78125H3.10937C3.13009 9.78125 3.14997 9.78948 3.16462 9.80413C3.17927 9.81878 3.1875 9.83865 3.1875 9.85938V11.0156ZM6.44281 6.125H5.28656C5.14157 6.12517 5.00257 6.18284 4.90005 6.28536C4.79752 6.38788 4.73985 6.52689 4.73969 6.67188V7.82812C4.73985 7.97311 4.79752 8.11212 4.90005 8.21464C5.00257 8.31716 5.14157 8.37483 5.28656 8.375H6.44281C6.5878 8.37483 6.7268 8.31716 6.82933 8.21464C6.93185 8.11212 6.98952 7.97311 6.98969 7.82812V6.67188C6.98952 6.52689 6.93185 6.38788 6.82933 6.28536C6.7268 6.18284 6.5878 6.12517 6.44281 6.125ZM6.52094 7.82812C6.52085 7.84882 6.5126 7.86864 6.49796 7.88328C6.48333 7.89791 6.46351 7.90617 6.44281 7.90625H5.28656C5.26584 7.90625 5.24597 7.89802 5.23132 7.88337C5.21667 7.86872 5.20844 7.84885 5.20844 7.82812V6.67188C5.20844 6.65115 5.21667 6.63128 5.23132 6.61663C5.24597 6.60198 5.26584 6.59375 5.28656 6.59375H6.44281C6.46351 6.59383 6.48333 6.60209 6.49796 6.61672C6.5126 6.63136 6.52085 6.65118 6.52094 6.67188V7.82812ZM3.10937 6.125H1.95312C1.80814 6.12517 1.66913 6.18284 1.56661 6.28536C1.46409 6.38788 1.40642 6.52689 1.40625 6.67188V7.82812C1.40642 7.97311 1.46409 8.11212 1.56661 8.21464C1.66913 8.31716 1.80814 8.37483 1.95312 8.375H3.10937C3.25436 8.37483 3.39337 8.31716 3.49589 8.21464C3.59841 8.11212 3.65608 7.97311 3.65625 7.82812V6.67188C3.65608 6.52689 3.59841 6.38788 3.49589 6.28536C3.39337 6.18284 3.25436 6.12517 3.10937 6.125ZM3.1875 7.82812C3.1875 7.84885 3.17927 7.86872 3.16462 7.88337C3.14997 7.89802 3.13009 7.90625 3.10937 7.90625H1.95312C1.9324 7.90625 1.91253 7.89802 1.89788 7.88337C1.88323 7.86872 1.875 7.84885 1.875 7.82812V6.67188C1.875 6.65115 1.88323 6.63128 1.89788 6.61663C1.91253 6.60198 1.9324 6.59375 1.95312 6.59375H3.10937C3.13009 6.59375 3.14997 6.60198 3.16462 6.61663C3.17927 6.63128 3.1875 6.65115 3.1875 6.67188V7.82812ZM6.44281 12.5H5.28656C5.14157 12.5002 5.00257 12.5578 4.90005 12.6604C4.79752 12.7629 4.73985 12.9019 4.73969 13.0469V14.2031C4.73985 14.3481 4.79752 14.4871 4.90005 14.5896C5.00257 14.6922 5.14157 14.7498 5.28656 14.75H6.44281C6.5878 14.7498 6.7268 14.6922 6.82933 14.5896C6.93185 14.4871 6.98952 14.3481 6.98969 14.2031V13.0469C6.98952 12.9019 6.93185 12.7629 6.82933 12.6604C6.7268 12.5578 6.5878 12.5002 6.44281 12.5ZM6.52094 14.2031C6.52085 14.2238 6.5126 14.2436 6.49796 14.2583C6.48333 14.2729 6.46351 14.2812 6.44281 14.2812H5.28656C5.26584 14.2812 5.24597 14.273 5.23132 14.2584C5.21667 14.2437 5.20844 14.2238 5.20844 14.2031V13.0469C5.20844 13.0262 5.21667 13.0063 5.23132 12.9916C5.24597 12.977 5.26584 12.9688 5.28656 12.9688H6.44281C6.46351 12.9688 6.48333 12.9771 6.49796 12.9917C6.5126 13.0064 6.52085 13.0262 6.52094 13.0469V14.2031Z" fill="#02101B"/>
</svg>
