<svg width="79" height="79" viewBox="0 0 79 79" fill="none" xmlns="http://www.w3.org/2000/svg">
<path fill-rule="evenodd" clip-rule="evenodd" d="M3.43478 20.6087V72.1347C3.43478 74.0587 4.9841 75.5652 6.89527 75.5652H54.9565V58.4116C54.9565 54.5669 58.0289 51.5217 61.8189 51.5217H75.5652V20.6087H3.43478ZM3.43478 17.1739V6.86526C3.43478 4.97066 4.94133 3.43478 6.86526 3.43478H72.1347C74.0293 3.43478 75.5652 4.98026 75.5652 6.89308V17.1739H3.43478ZM56.6739 79H6.86993C3.07577 79 0 75.9031 0 72.1275V6.87253C0 3.07694 3.09689 0 6.87253 0H72.1275C75.9231 0 79 3.07246 79 6.84916V53.2391V54.9565L58.3913 79H56.6739ZM58.3913 73.8478V58.4215C58.3913 56.5078 59.9392 54.9565 61.8149 54.9565H74.5346L58.3913 73.8478ZM10.3043 30.913V34.3478H68.6957V30.913H10.3043ZM10.3043 41.2174V44.6522H68.6957V41.2174H10.3043ZM10.3043 51.5217V54.9565H48.087V51.5217H10.3043ZM10.3043 61.8261V65.2609H48.087V61.8261H10.3043Z" fill="#1C1C1C"/>
</svg>
