<svg width="12" height="14" viewBox="0 0 12 14" fill="none" xmlns="http://www.w3.org/2000/svg">
<path d="M11.1771 9.81339L10.1365 8.4437C10.1182 8.41936 10.1083 8.38976 10.1083 8.35933V4.49214C10.1205 3.41036 9.71663 2.36524 8.98017 1.57276C8.2437 0.780284 7.23093 0.301022 6.15115 0.234015C5.58778 0.205008 5.02441 0.290971 4.49533 0.486669C3.96624 0.682368 3.48253 0.983707 3.07364 1.37234C2.66475 1.76097 2.33924 2.22875 2.11693 2.74722C1.89462 3.26568 1.78016 3.82396 1.78053 4.38808V8.50276C1.78053 8.53319 1.77066 8.5628 1.7524 8.58714L0.829901 9.81339C0.664854 9.99462 0.555984 10.2199 0.516516 10.4618C0.477047 10.7037 0.508678 10.9519 0.607566 11.1762C0.706454 11.4005 0.868345 11.5912 1.07357 11.7252C1.2788 11.8593 1.51853 11.9308 1.76365 11.9312H10.2349C10.4807 11.9325 10.7216 11.8621 10.9281 11.7287C11.1346 11.5953 11.2978 11.4047 11.3977 11.18C11.4977 10.9554 11.53 10.7066 11.4908 10.4639C11.4516 10.2212 11.3426 9.99515 11.1771 9.81339ZM10.6146 10.8259C10.5828 10.9016 10.5291 10.9661 10.4605 11.0111C10.3919 11.0562 10.3114 11.0799 10.2293 11.079H1.76365C1.68288 11.0775 1.60424 11.0529 1.53707 11.008C1.46991 10.9631 1.41704 10.8999 1.38475 10.8258C1.35247 10.7518 1.34212 10.67 1.35494 10.5903C1.36777 10.5105 1.40322 10.4361 1.45709 10.3759L1.48803 10.3393L2.43584 9.09058C2.55969 8.91973 2.62571 8.71378 2.62428 8.50276V4.38808C2.62427 3.95204 2.71034 3.5203 2.87754 3.1176C3.04475 2.71489 3.2898 2.34916 3.59864 2.04136C3.90749 1.73356 4.27405 1.48975 4.67732 1.32391C5.08058 1.15808 5.51262 1.07347 5.94865 1.07495H6.11178C6.97516 1.13182 7.78373 1.51812 8.37046 2.15405C8.95719 2.78999 9.27728 3.62698 9.26459 4.49214V8.37339C9.26459 8.58856 9.33469 8.79787 9.46428 8.96964L10.5162 10.3534L10.5443 10.3843C10.6008 10.4441 10.6383 10.5194 10.6518 10.6005C10.6653 10.6817 10.6543 10.7651 10.6202 10.84L10.6146 10.8259ZM7.66428 13.0225C7.45321 13.2591 7.19451 13.4484 6.90515 13.578C6.61579 13.7077 6.30229 13.7747 5.98521 13.7747C5.66814 13.7747 5.35464 13.7077 5.06528 13.578C4.77591 13.4484 4.51722 13.2591 4.30615 13.0225C4.23864 12.9383 4.20592 12.8315 4.21474 12.724C4.22355 12.6165 4.27321 12.5164 4.35353 12.4444C4.43384 12.3723 4.53869 12.3338 4.64654 12.3367C4.75438 12.3396 4.85701 12.3837 4.93334 12.46C5.06527 12.6082 5.22707 12.7268 5.40812 12.8081C5.58917 12.8893 5.78537 12.9313 5.98381 12.9313C6.18225 12.9313 6.37844 12.8893 6.55949 12.8081C6.74054 12.7268 6.90235 12.6082 7.03428 12.46C7.1106 12.3837 7.21324 12.3396 7.32108 12.3367C7.42892 12.3338 7.53378 12.3723 7.61409 12.4444C7.6944 12.5164 7.74407 12.6165 7.75288 12.724C7.76169 12.8315 7.72898 12.9383 7.66146 13.0225H7.66428Z" fill="#02101B"/>
</svg>
